<svg id="Capa_1" enable-background="new 0 0 512 512" height="512" viewBox="0 0 512 512" width="512" xmlns="http://www.w3.org/2000/svg"><g><path d="m8.787 503.213c11.716 11.716 30.711 11.716 42.426 0l42.855-42.855c5.858-5.858 5.858-15.355 0-21.213l-21.213-21.213c-5.858-5.858-15.355-5.858-21.213 0l-42.855 42.855c-11.716 11.716-11.716 30.71 0 42.426z" fill="#beebfa"/><path d="m94.068 460.358c5.858-5.858 5.858-15.355 0-21.213l-10.607-10.607-74.674 74.675c11.716 11.716 30.711 11.716 42.426 0z" fill="#9ee2f8"/><path d="m124.525 318.071h108.808v30h-108.808z" fill="#9ee2f8" transform="matrix(.707 -.707 .707 .707 -183.11 224.076)"/><path d="m129.828 330.874h108.808v15h-108.808z" fill="#87c0ed" transform="matrix(.707 -.707 .707 .707 -185.306 229.38)"/><circle cx="327" cy="185" fill="#999fed" r="170"/><path d="m327 355c93.888 0 170-76.112 170-170 0-46.944-19.028-89.444-49.792-120.208l-240.416 240.416c30.764 30.764 73.264 49.792 120.208 49.792z" fill="#7c84e8"/><path d="m327 370c-102.009 0-185-82.991-185-185s82.991-185 185-185 185 82.991 185 185-82.991 185-185 185zm0-340c-85.467 0-155 69.533-155 155s69.533 155 155 155 155-69.533 155-155-69.533-155-155-155z" fill="#beebfa"/><path d="m436.55 75.45c28.067 28.066 45.45 66.816 45.45 109.55 0 85.467-69.533 155-155 155-42.734 0-81.484-17.383-109.55-45.45l-21.203 21.203c33.498 33.499 79.748 54.247 130.753 54.247 102.009 0 185-82.991 185-185 0-51.005-20.748-97.255-54.247-130.753z" fill="#9ee2f8"/><path d="m161.673 371.541-21.213-21.213c-5.858-5.858-15.355-5.858-21.213 0l-67.604 67.604 42.426 42.426 67.604-67.604c5.858-5.858 5.858-15.356 0-21.213z" fill="#ff9f22"/><path d="m94.069 460.358 67.604-67.604c5.858-5.858 5.858-15.355 0-21.213l-10.607-10.607-78.211 78.211z" fill="#ff7c48"/><g><g><g><path d="m407 280h-160c-8.284 0-15-6.716-15-15v-8.789c0-52.302 41.763-95.7 94.063-96.207 52.811-.511 95.937 42.301 95.937 94.996v10c0 8.284-6.716 15-15 15z" fill="#5f55af"/><path d="m327 160.007v119.993h80c8.284 0 15-6.716 15-15v-10c0-52.383-42.617-94.992-95-94.993z" fill="#453d83"/><path d="m327 185c-31.705 0-57.5-25.795-57.5-57.5s25.795-57.5 57.5-57.5 57.5 25.795 57.5 57.5-25.794 57.5-57.5 57.5z" fill="#ffe4c2"/><path d="m327 70v115c31.706 0 57.5-25.794 57.5-57.5s-25.794-57.5-57.5-57.5z" fill="#f2d1a5"/></g></g></g></g></svg>