<svg id="Capa_1" enable-background="new 0 0 512 512" height="512" viewBox="0 0 512 512" width="512" xmlns="http://www.w3.org/2000/svg"><g><path d="m512 306h-512v55l21.83 15-21.83 15v40l21.83 15-21.83 15v25c0 8.284 6.716 15 15 15h186l55-20 55 20h186c8.284 0 15-6.716 15-15v-25l-23.452-15 23.452-15v-40l-23.452-15 23.452-15z" fill="#9cdd05"/><path d="m256 481 55 20h186c8.284 0 15-6.716 15-15v-25l-23.452-15 23.452-15v-40l-23.452-15 23.452-15v-55h-256z" fill="#85bb04"/><path d="m100 11-100 100v110l100 100h312l100-100v-110l-100-100h-101l-55 20-55-20z" fill="#d6fc7e"/><path d="m311 11-55 20v290h156l100-100v-110l-100-100z" fill="#b2fa09"/><path d="m0 361h512v30h-512z" fill="#d6fc7e"/><path d="m0 431h512v30h-512z" fill="#d6fc7e"/><path d="m396 181h-40c-8.284 0-15-6.716-15-15s6.716-15 15-15h40c8.284 0 15 6.716 15 15s-6.716 15-15 15z" fill="#85bb04"/><path d="m156 181h-40c-8.284 0-15-6.716-15-15s6.716-15 15-15h40c8.284 0 15 6.716 15 15s-6.716 15-15 15z" fill="#9cdd05"/><path d="m256 281c-63.411 0-115-51.589-115-115s51.589-115 115-115 115 51.589 115 115-51.589 115-115 115z" fill="#b2fa09"/><path d="m512 111c-55.229 0-100-44.771-100-100h85c8.284 0 15 6.716 15 15z" fill="#9cdd05"/><path d="m15 11h85c0 55.228-44.771 100-100 100v-85c0-8.284 6.716-15 15-15z" fill="#b2fa09"/><path d="m512 321h-100c0-55.228 44.771-100 100-100z" fill="#9cdd05"/><g fill="#b2fa09"><path d="m0 221c55.229 0 100 44.771 100 100h-100z"/><path d="m256 361h256v30h-256z"/><path d="m256 431h256v30h-256z"/></g><path d="m371 166c0-63.411-51.589-115-115-115v230c63.411 0 115-51.589 115-115z" fill="#9cdd05"/><path d="m311 501h-110v-490h110z" fill="#999fed"/><path d="m256 11h55v490h-55z" fill="#7c84e8"/></g></svg>