<svg id="Capa_1" enable-background="new 0 0 512 512" height="512" viewBox="0 0 512 512" width="512" xmlns="http://www.w3.org/2000/svg"><g><path d="m256 0c-96.495 0-175 78.505-175 175 0 53.149 23.778 102.791 65.236 136.196 22.093 17.803 34.764 43.172 34.764 69.604 0 10.604 8.596 19.2 19.2 19.2h111.6c10.604 0 19.2-8.596 19.2-19.2 0-26.432 12.671-51.801 34.764-69.604 41.458-33.405 65.236-83.047 65.236-136.196 0-96.495-78.505-175-175-175z" fill="#fff79f"/><path d="m311.8 400c10.604 0 19.2-8.596 19.2-19.2 0-26.432 12.671-51.801 34.764-69.604 41.458-33.405 65.236-83.047 65.236-136.196 0-96.495-78.505-175-175-175v400z" fill="#ffde55"/><g><g><g><g><path d="m336 270h-160c-8.284 0-15-6.716-15-15v-8.789c0-52.302 41.763-95.7 94.063-96.207 52.811-.511 95.937 42.301 95.937 94.996v10c0 8.284-6.716 15-15 15z" fill="#5f55af"/><path d="m256 150.007v119.993h80c8.284 0 15-6.716 15-15v-10c0-52.383-42.617-94.992-95-94.993z" fill="#453d83"/><path d="m256 175c-31.705 0-57.5-25.795-57.5-57.5s25.795-57.5 57.5-57.5 57.5 25.795 57.5 57.5-25.795 57.5-57.5 57.5z" fill="#ffe4c2"/><path d="m256 60v115c31.706 0 57.5-25.794 57.5-57.5s-25.794-57.5-57.5-57.5z" fill="#f2d1a5"/></g></g></g></g><path d="m266 512h-20c-24.853 0-45-20.147-45-45v-22c0-8.284 6.716-15 15-15h80c8.284 0 15 6.716 15 15v22c0 24.853-20.147 45-45 45z" fill="#5f55af"/><path d="m311 467v-22c0-8.284-6.716-15-15-15h-40v82h10c24.853 0 45-20.147 45-45z" fill="#453d83"/><path d="m181 380.8v44.2c0 19.299 15.701 35 35 35h80c19.299 0 35-15.701 35-35v-44.2z" fill="#beebfa"/><path d="m256 460h40c19.299 0 35-15.701 35-35v-44.2h-75z" fill="#9ee2f8"/><g><g><path d="m467.012 75.002c-4.847 0-9.604-2.346-12.495-6.682-4.595-6.893-2.732-16.206 4.161-20.801l30-20c6.892-4.597 16.206-2.733 20.801 4.16s2.732 16.206-4.161 20.801l-30 20c-2.556 1.706-5.447 2.522-8.306 2.522z" fill="#ffde55"/></g><g><path d="m496.985 325.002c-2.859 0-5.75-.816-8.307-2.521l-30-20c-6.893-4.595-8.756-13.908-4.161-20.801 4.596-6.894 13.91-8.755 20.801-4.16l30 20c6.893 4.595 8.756 13.908 4.161 20.801-2.89 4.335-7.648 6.681-12.494 6.681z" fill="#ffde55"/></g></g><g><g><path d="m44.988 75.002c-2.859 0-5.75-.816-8.307-2.521l-30-20c-6.893-4.595-8.756-13.908-4.161-20.801 4.596-6.894 13.91-8.756 20.801-4.16l30 20c6.893 4.595 8.756 13.908 4.161 20.801-2.89 4.335-7.647 6.681-12.494 6.681z" fill="#fff79f"/></g><g><path d="m15.015 325.002c-4.847 0-9.604-2.346-12.495-6.682-4.595-6.893-2.732-16.206 4.161-20.801l30-20c6.892-4.597 16.206-2.733 20.801 4.16s2.732 16.206-4.161 20.801l-30 20c-2.556 1.706-5.447 2.522-8.306 2.522z" fill="#fff79f"/></g></g><g><path d="m45 190h-30c-8.284 0-15-6.716-15-15s6.716-15 15-15h30c8.284 0 15 6.716 15 15s-6.716 15-15 15z" fill="#fff79f"/></g><g><path d="m497 190h-30c-8.284 0-15-6.716-15-15s6.716-15 15-15h30c8.284 0 15 6.716 15 15s-6.716 15-15 15z" fill="#ffde55"/></g></g></svg>