<svg id="Capa_1" enable-background="new 0 0 512 512" height="512" viewBox="0 0 512 512" width="512" xmlns="http://www.w3.org/2000/svg"><g><path d="m510.875 317.577c-.972-12.39-7.51-23.373-17.938-30.133-14.865-9.635-34.511-8.167-47.777 3.568l-92.996 82.264c-1.83 1.619-4.184 2.51-6.626 2.51h-21.001c20.478 0 37.709-16.124 38.193-36.596.499-21.089-16.511-38.404-37.489-38.404h-157.654c-25.444 0-50.519 8.603-70.603 24.225l-90.193 70.149c-3.654 2.842-5.791 7.211-5.791 11.84v90c0 8.284 6.716 15 15 15h108.588c3.085 0 6.096-.951 8.621-2.725l54.808-38.489h144.824c19.762 0 38.744-7.271 53.448-20.474l111.565-100.174c9.247-8.304 13.993-20.172 13.021-32.561z" fill="#ffe4c2"/><path d="m256 470.786h76.841c19.762 0 38.744-7.271 53.448-20.474l111.565-100.174c9.247-8.303 13.993-20.171 13.022-32.561-.972-12.39-7.51-23.373-17.938-30.133-14.865-9.635-34.511-8.167-47.777 3.568l-92.996 82.264c-1.83 1.619-4.184 2.51-6.626 2.51h-21.001c20.478 0 37.709-16.124 38.193-36.596.499-21.089-16.511-38.404-37.489-38.404h-69.24v170z" fill="#f2d1a5"/><path d="m352.164 373.276c-1.828 1.617-4.185 2.51-6.626 2.51h-101.032c-8.284 0-15 6.716-15 15 0 8.284 6.716 15 15 15h80.734c37.511 0 67.974-30.757 67.494-68.376-.011-.005-.006-.003-.017-.008z" fill="#f2d1a5"/><path d="m256 405.786h69.24c37.511 0 67.974-30.757 67.494-68.376-.011-.005-.006-.003-.017-.008l-40.554 35.874c-1.828 1.617-4.185 2.51-6.625 2.51h-89.538z" fill="#f2bb88"/><g><path d="m356 255h-200c-8.284 0-15-6.716-15-15v-12.5c0-63.411 51.589-115 115-115s115 51.589 115 115v12.5c0 8.284-6.716 15-15 15z" fill="#5f55af"/><path d="m356 255c8.284 0 15-6.716 15-15v-12.5c0-63.411-51.589-115-115-115v142.5z" fill="#453d83"/><path d="m256 135c-37.22 0-67.5-30.281-67.5-67.5s30.28-67.5 67.5-67.5c37.219 0 67.5 30.281 67.5 67.5s-30.281 67.5-67.5 67.5z" fill="#ffe4c2"/><path d="m256 0v135c37.219 0 67.5-30.281 67.5-67.5s-30.281-67.5-67.5-67.5z" fill="#f2d1a5"/></g></g></svg>