<svg id="Capa_1" enable-background="new 0 0 512 512" height="512" viewBox="0 0 512 512" width="512" xmlns="http://www.w3.org/2000/svg"><g><path d="m15 15h120v120h-120z" fill="#ff9f22"/><path d="m15 196h120v120h-120z" fill="#d6fc7e"/><path d="m15 377h120v120h-120z" fill="#999fed"/><path d="m75 15h60v120h-60z" fill="#ff7c48"/><path d="m75 196h60v120h-60z" fill="#b2fa09"/><path d="m75 377h60v120h-60z" fill="#7c84e8"/><g fill="#fff79f"><path d="m289.01 148.277-32.01-16.829-32.01 16.829c-11.004 5.785-23.866-3.559-21.764-15.813l6.113-35.644-25.897-25.243c-8.903-8.678-3.99-23.798 8.313-25.585l35.789-5.2 16.005-32.43c5.502-11.149 21.4-11.149 26.902 0l16.005 32.43 35.789 5.2c12.303 1.788 17.216 16.907 8.313 25.585l-25.897 25.243 6.113 35.644c2.102 12.254-10.759 21.599-21.764 15.813z"/><path d="m289.01 329.26-32.01-16.828-32.01 16.829c-11.004 5.785-23.866-3.559-21.764-15.813l6.113-35.644-25.897-25.243c-8.903-8.678-3.99-23.798 8.313-25.585l35.789-5.2 16.005-32.43c5.502-11.149 21.4-11.149 26.902 0l16.005 32.43 35.789 5.2c12.303 1.788 17.216 16.907 8.313 25.585l-25.897 25.243 6.113 35.644c2.102 12.253-10.759 21.598-21.764 15.812z"/><path d="m465.907 329.26-32.011-16.829-32.01 16.829c-11.004 5.785-23.866-3.559-21.764-15.813l6.113-35.644-25.897-25.243c-8.903-8.678-3.99-23.798 8.313-25.585l35.788-5.2 16.005-32.43c5.502-11.149 21.4-11.149 26.902 0l16.005 32.43 35.789 5.2c12.303 1.788 17.216 16.907 8.313 25.585l-25.897 25.243 6.114 35.644c2.103 12.254-10.759 21.599-21.763 15.813z"/><path d="m289.01 510.244-32.01-16.829-32.01 16.829c-11.004 5.785-23.866-3.559-21.764-15.813l6.113-35.644-25.897-25.243c-8.903-8.678-3.99-23.798 8.313-25.585l35.789-5.2 16.005-32.43c5.502-11.149 21.4-11.149 26.902 0l16.005 32.43 35.789 5.2c12.303 1.788 17.216 16.907 8.313 25.585l-25.897 25.243 6.113 35.644c2.102 12.254-10.759 21.598-21.764 15.813z"/></g><g fill="#ffde55"><path d="m310.774 132.465-6.113-35.644 25.897-25.243c8.903-8.678 3.99-23.798-8.313-25.585l-35.789-5.2-16.005-32.43c-2.751-5.576-8.101-8.363-13.451-8.363v131.448l32.01 16.829c11.005 5.786 23.866-3.559 21.764-15.812z"/><path d="m322.245 226.975-35.789-5.2-16.005-32.43c-2.751-5.574-8.101-8.362-13.451-8.362v131.448l32.01 16.829c11.004 5.785 23.866-3.559 21.764-15.813l-6.113-35.644 25.897-25.243c8.903-8.677 3.99-23.797-8.313-25.585z"/><path d="m499.141 226.975-35.789-5.2-16.005-32.43c-2.751-5.574-8.101-8.362-13.451-8.362v131.448l32.01 16.829c11.004 5.785 23.866-3.559 21.764-15.813l-6.113-35.644 25.897-25.243c8.903-8.677 3.99-23.797-8.313-25.585z"/><path d="m289.01 510.244c11.004 5.785 23.866-3.559 21.764-15.813l-6.113-35.644 25.897-25.243c8.903-8.678 3.99-23.798-8.313-25.585l-35.789-5.2-16.005-32.43c-2.751-5.574-8.101-8.362-13.451-8.362v131.448z"/></g><path d="m135 331h-120c-8.284 0-15-6.716-15-15v-120c0-8.284 6.716-15 15-15h120c8.284 0 15 6.716 15 15v120c0 8.284-6.716 15-15 15zm-105-30h90v-90h-90z" fill="#beebfa"/><path d="m120 211v90h-45v30h60c8.284 0 15-6.716 15-15v-120c0-8.284-6.716-15-15-15h-60v30z" fill="#9ee2f8"/><path d="m135 150h-120c-8.284 0-15-6.716-15-15v-120c0-8.284 6.716-15 15-15h120c8.284 0 15 6.716 15 15v120c0 8.284-6.716 15-15 15zm-105-30h90v-90h-90z" fill="#beebfa"/><path d="m150 135v-120c0-8.284-6.716-15-15-15h-60v30h45v90h-45v30h60c8.284 0 15-6.716 15-15z" fill="#9ee2f8"/><path d="m135 512h-120c-8.284 0-15-6.716-15-15v-120c0-8.284 6.716-15 15-15h120c8.284 0 15 6.716 15 15v120c0 8.284-6.716 15-15 15zm-105-30h90v-90h-90z" fill="#beebfa"/><path d="m120 392v90h-45v30h60c8.284 0 15-6.716 15-15v-120c0-8.284-6.716-15-15-15h-60v30z" fill="#9ee2f8"/></g></svg>