<svg id="Capa_1" enable-background="new 0 0 512 512" height="512" viewBox="0 0 512 512" width="512" xmlns="http://www.w3.org/2000/svg"><g><path d="m417 301h-146v-46c0-8.284-6.716-15-15-15s-15 6.716-15 15v46h-146c-19.299 0-35 15.701-35 35v41c0 8.284 6.716 15 15 15s15-6.716 15-15v-41c0-2.757 2.243-5 5-5h146v46c0 8.284 6.716 15 15 15s15-6.716 15-15v-46h146c2.757 0 5 2.243 5 5v41c0 8.284 6.716 15 15 15s15-6.716 15-15v-41c0-19.299-15.701-35-35-35z" fill="#5f55af"/><path d="m271 377v-46h146c2.757 0 5 2.243 5 5v41c0 8.284 6.716 15 15 15s15-6.716 15-15v-41c0-19.299-15.701-35-35-35h-146v-46c0-8.284-6.716-15-15-15v152c8.284 0 15-6.716 15-15z" fill="#453d83"/><path d="m336 255h-160c-22.091 0-40-17.909-40-40v-160c0-22.091 17.909-40 40-40h160c22.091 0 40 17.909 40 40v160c0 22.091-17.909 40-40 40z" fill="#5f55af"/><path d="m336 15h-80v240h80c22.091 0 40-17.909 40-40v-160c0-22.091-17.909-40-40-40z" fill="#453d83"/><path d="m296 150h-40c-8.284 0-15-6.716-15-15v-40c0-8.284 6.716-15 15-15s15 6.716 15 15v25h25c8.284 0 15 6.716 15 15s-6.716 15-15 15z" fill="#ff7c48"/><path d="m376 150h-30c-8.284 0-15-6.716-15-15 0-8.284 6.716-15 15-15h30z" fill="#ff4c04"/><g fill="#ff7c48"><path d="m166 150h-30v-30h30c8.284 0 15 6.716 15 15 0 8.284-6.716 15-15 15z"/><path d="m256 60c-8.284 0-15-6.716-15-15v-30h30v30c0 8.284-6.716 15-15 15z"/><path d="m271 255h-30v-30c0-8.284 6.716-15 15-15 8.284 0 15 6.716 15 15z"/></g><path d="m75 512c-41.355 0-75-33.645-75-75s33.645-75 75-75 75 33.645 75 75-33.645 75-75 75z" fill="#d6fc7e"/><path d="m256 512c-41.355 0-75-33.645-75-75s33.645-75 75-75 75 33.645 75 75-33.645 75-75 75z" fill="#ff9f22"/><path d="m437 512c-41.355 0-75-33.645-75-75s33.645-75 75-75 75 33.645 75 75-33.645 75-75 75z" fill="#beebfa"/><path d="m296 150c8.284 0 15-6.716 15-15s-6.716-15-15-15h-25v-25c0-8.284-6.716-15-15-15v70z" fill="#ff4c04"/><path d="m256 60c8.284 0 15-6.716 15-15v-30h-15z" fill="#ff4c04"/><path d="m271 255v-30c0-8.284-6.716-15-15-15v45z" fill="#ff4c04"/><g><path d="m75 362v150c41.355 0 75-33.645 75-75s-33.645-75-75-75z" fill="#b2fa09"/><path d="m256 362v150c41.355 0 75-33.645 75-75s-33.645-75-75-75z" fill="#ff7c48"/><path d="m437 362v150c41.355 0 75-33.645 75-75s-33.645-75-75-75z" fill="#9ee2f8"/></g><path d="m336 270h-160c-30.327 0-55-24.673-55-55v-160c0-30.327 24.673-55 55-55h160c30.327 0 55 24.673 55 55v160c0 30.327-24.673 55-55 55zm-160-240c-13.785 0-25 11.215-25 25v160c0 13.785 11.215 25 25 25h160c13.785 0 25-11.215 25-25v-160c0-13.785-11.215-25-25-25z" fill="#ff9f22"/><path d="m336 30c13.785 0 25 11.215 25 25v160c0 13.785-11.215 25-25 25h-80v30h80c30.327 0 55-24.673 55-55v-160c0-30.327-24.673-55-55-55h-80v30z" fill="#ff7c48"/></g></svg>