<svg id="Capa_1" enable-background="new 0 0 512 512" height="512" viewBox="0 0 512 512" width="512" xmlns="http://www.w3.org/2000/svg"><g><path d="m436 512h-360c-8.284 0-15-6.716-15-15v-51.158c0-26.227 9.08-51.902 25.568-72.298 16.487-20.396 39.691-34.654 65.336-40.149l60.953-13.062c1.033-.222 2.086-.333 3.143-.333h80c1.057 0 2.11.111 3.143.333l60.953 13.062c25.645 5.495 48.849 19.754 65.336 40.149 16.488 20.395 25.568 46.071 25.568 72.298v51.158c0 8.284-6.716 15-15 15z" fill="#5f55af"/><path d="m451 497v-51.158c0-26.227-9.08-51.902-25.568-72.298-16.487-20.396-39.691-34.654-65.336-40.149l-60.953-13.062c-1.033-.222-2.086-.333-3.143-.333h-40v192h180c8.284 0 15-6.716 15-15z" fill="#453d83"/><path d="m313.916 512h-115.832l29.979-125.878 27.937-20.122 27.938 20.122z" fill="#b2fa09"/><path d="m256 366v146h57.916l-29.978-125.878z" fill="#9cdd05"/><path d="m204.177 335.79c.247.987.581 1.954 1.025 2.876l22.861 47.456h55.875l22.86-47.456c.444-.923.778-1.889 1.025-2.876z" fill="#d6fc7e"/><path d="m256 386.122h27.938l22.86-47.456c.444-.923.778-1.889 1.025-2.876h-51.823z" fill="#b2fa09"/><path d="m308.285 260.534h-104.57v71.622c0 1.23.165 2.448.461 3.634 14.782 6.833 36.89 13.594 51.823 13.594 14.934 0 37.042-6.762 51.823-13.594.296-1.186.461-2.404.461-3.633v-71.623z" fill="#f2d1a5"/><path d="m256 349.384c14.934 0 37.042-6.762 51.823-13.594.296-1.186.461-2.404.461-3.633v-71.622h-52.284z" fill="#f2bb88"/><path d="m181 202.5h-42.5c-20.711 0-37.5-16.789-37.5-37.5 0-20.711 16.789-37.5 37.5-37.5h42.5z" fill="#f2d1a5"/><path d="m373.5 202.5h-42.5v-75h42.5c20.711 0 37.5 16.789 37.5 37.5 0 20.711-16.789 37.5-37.5 37.5z" fill="#f2bb88"/><path d="m256 300c-57.897 0-105-47.103-105-105v-100c0-8.284 6.716-15 15-15h180c8.284 0 15 6.716 15 15v100c0 57.897-47.103 105-105 105z" fill="#ffe4c2"/><path d="m346 80h-90v220c57.897 0 105-47.103 105-105v-100c0-8.284-6.716-15-15-15z" fill="#f2d1a5"/><path d="m306 0h-120c-41.355 0-75 33.645-75 75s33.645 75 75 75c8.284 0 15-6.716 15-15v-25h160v-55c0-30.327-24.673-55-55-55z" fill="#ff9f22"/><path d="m361 110v-55c0-30.327-24.673-55-55-55h-50v110z" fill="#ff7c48"/></g></svg>