<svg id="Capa_1" enable-background="new 0 0 512 512" height="512" viewBox="0 0 512 512" width="512" xmlns="http://www.w3.org/2000/svg"><g><g fill="#5f55af"><path d="m196 211h-20c-8.284 0-15-6.716-15-15s6.716-15 15-15h20c8.284 0 15 6.716 15 15s-6.716 15-15 15z"/><path d="m336 211h-80c-8.284 0-15-6.716-15-15s6.716-15 15-15h80c8.284 0 15 6.716 15 15s-6.716 15-15 15z"/><path d="m196 271h-20c-8.284 0-15-6.716-15-15s6.716-15 15-15h20c8.284 0 15 6.716 15 15s-6.716 15-15 15z"/><path d="m336 271h-80c-8.284 0-15-6.716-15-15s6.716-15 15-15h80c8.284 0 15 6.716 15 15s-6.716 15-15 15z"/><path d="m196 331h-20c-8.284 0-15-6.716-15-15s6.716-15 15-15h20c8.284 0 15 6.716 15 15s-6.716 15-15 15z"/><path d="m336 331h-80c-8.284 0-15-6.716-15-15s6.716-15 15-15h80c8.284 0 15 6.716 15 15s-6.716 15-15 15z"/></g><path d="m256 512c-57.425 0-111.731-18.639-157.047-53.9-7.119-5.54-7.773-16.066-1.395-22.445l65.157-65.157c5.044-5.044 12.942-5.838 18.889-1.9 22.13 14.656 47.856 22.402 74.396 22.402s52.266-7.746 74.396-22.401c5.947-3.938 13.845-3.144 18.889 1.9l65.157 65.157c6.379 6.379 5.725 16.905-1.395 22.445-45.316 35.26-99.622 53.899-157.047 53.899z" fill="#ff9f22"/><path d="m55.037 414.508c-34.513-44.354-54.237-98.648-55.011-154.843-.81-58.778 17.863-114.433 53.874-160.712 5.54-7.12 16.066-7.774 22.445-1.395l65.157 65.158c5.044 5.044 5.838 12.941 1.9 18.888-14.655 22.131-22.402 47.857-22.402 74.396 0 26.54 7.747 52.266 22.402 74.396l.738 1.114c3.509 5.299 2.801 12.336-1.693 16.83l-67.41 67.41c-5.685 5.685-15.063 5.102-20-1.242z" fill="#999fed"/><path d="m437.019 74.98c-48.352-48.351-112.639-74.98-181.019-74.98-57.424 0-111.73 18.639-157.046 53.901-7.12 5.54-7.774 16.066-1.395 22.445l65.157 65.156c5.043 5.043 12.941 5.838 18.888 1.9 22.132-14.656 47.857-22.402 74.396-22.402 74.439 0 135 60.561 135 135 0 26.54-7.747 52.266-22.402 74.396-3.938 5.947-3.144 13.845 1.9 18.888l65.157 65.157c6.379 6.379 16.905 5.725 22.445-1.395 35.261-45.315 53.9-99.621 53.9-157.046 0-68.38-26.629-132.667-74.981-181.02z" fill="#fff79f"/><path d="m336 211c8.284 0 15-6.716 15-15s-6.716-15-15-15h-80v30z" fill="#453d83"/><path d="m336 271c8.284 0 15-6.716 15-15s-6.716-15-15-15h-80v30z" fill="#453d83"/><path d="m336 331c8.284 0 15-6.716 15-15s-6.716-15-15-15h-80v30z" fill="#453d83"/><path d="m414.442 435.655-65.157-65.157c-5.044-5.044-12.942-5.838-18.889-1.9-22.13 14.656-47.856 22.402-74.396 22.402v121c57.425 0 111.731-18.639 157.047-53.9 7.119-5.54 7.773-16.066 1.395-22.445z" fill="#ff7c48"/><path d="m391 256c0 26.54-7.747 52.266-22.402 74.396-3.938 5.947-3.144 13.845 1.9 18.888l65.157 65.157c6.379 6.379 16.905 5.725 22.445-1.395 35.261-45.315 53.9-99.621 53.9-157.046 0-68.38-26.628-132.667-74.98-181.02-48.353-48.351-112.64-74.98-181.02-74.98v121c74.439 0 135 60.561 135 135z" fill="#ffde55"/></g></svg>