<svg id="Capa_1" enable-background="new 0 0 512 512" height="512" viewBox="0 0 512 512" width="512" xmlns="http://www.w3.org/2000/svg"><g><g><circle cx="256" cy="256" fill="#ffde55" r="151"/><path d="m256 105v302c83.395 0 151-67.605 151-151s-67.605-151-151-151z" fill="#ffcd00"/><path d="m256 422c-91.532 0-166-74.467-166-166s74.468-166 166-166 166 74.467 166 166-74.468 166-166 166zm0-302c-74.99 0-136 61.009-136 136s61.01 136 136 136 136-61.009 136-136-61.01-136-136-136z" fill="#fff79f"/><path d="m256 90v30c74.99 0 136 61.009 136 136s-61.01 136-136 136v30c91.532 0 166-74.467 166-166s-74.468-166-166-166z" fill="#ffde55"/><path d="m278.084 240.961c-2.332-.824-4.704-1.679-7.08-2.558v-43.856c4.256 1.759 6.714 3.83 6.933 4.019l-.168-.152.011-.012c2.673 2.467 6.234 3.986 10.159 3.986 8.284 0 15-6.716 15-15 0-4.36-1.871-8.273-4.841-11.014l.011-.012c-5.085-4.691-14.636-10.5-27.104-13.035v-7.327c0-8.284-6.716-15-15-15s-15 6.716-15 15v8.352c-.716.191-1.433.388-2.156.606-17.189 5.178-30.025 19.844-33.499 38.275-3.19 16.935 2.322 33.334 14.389 42.798 5.553 4.356 12.295 8.351 21.267 12.49v59.039c-5.958-.969-10.639-3.155-17.903-7.907-6.934-4.535-16.23-2.592-20.765 4.341s-2.592 16.229 4.341 20.764c13.003 8.506 22.511 11.837 34.327 12.986v8.256c0 8.284 6.716 15 15 15s15-6.716 15-15v-9.668c8.973-2.34 17.144-6.768 24.096-13.155 9.58-8.802 16.046-20.727 18.206-33.579 4.381-26.076-9.773-49.64-35.224-58.637zm-37.08-16.556c-.968-.652-1.9-1.31-2.753-1.979-3.17-2.487-4.514-7.839-3.421-13.637.724-3.839 2.694-8.207 6.174-11.394zm42.718 70.22c-1.212 7.206-5.517 14.776-12.718 19.356v-43.55c13.987 6.461 13.606 18.904 12.718 24.194z" fill="#fff79f"/><path d="m271.004 356v-9.668c8.973-2.34 17.144-6.768 24.096-13.155 9.58-8.802 16.046-20.727 18.206-33.579 4.384-26.076-9.771-49.64-35.222-58.637-2.332-.824-4.704-1.679-7.08-2.558v-43.856c4.256 1.759 6.714 3.83 6.933 4.019l-.168-.152.011-.012c2.673 2.467 6.234 3.986 10.159 3.986 8.284 0 15-6.716 15-15 0-4.36-1.871-8.273-4.841-11.014l.011-.012c-5.085-4.691-14.636-10.5-27.104-13.035v-7.327c0-8.284-6.716-15-15-15-.001 0-.003 0-.004 0v230h.004c8.283 0 14.999-6.716 14.999-15zm0-85.57c13.987 6.462 13.606 18.905 12.718 24.194-1.212 7.206-5.517 14.776-12.718 19.356z" fill="#ffde55"/></g><g><g><g><path d="m484.556 241v-160.024h12.415c12.815 0 19.729-15.032 11.389-24.762l-43.693-50.976c-5.986-6.984-16.791-6.984-22.778 0l-43.693 50.976c-8.34 9.73-1.426 24.762 11.389 24.762h12.415v175.024h47.556c8.284 0 15-6.716 15-15z" fill="#d6fc7e"/></g></g><path d="m508.36 56.214-43.693-50.976c-2.994-3.492-7.192-5.238-11.389-5.238v256h16.278c8.284 0 15-6.716 15-15v-160.024h12.415c12.815 0 19.729-15.032 11.389-24.762z" fill="#b2fa09"/></g><g><g><g><path d="m90 256v175.024h12.415c12.815 0 19.729 15.032 11.389 24.762l-43.693 50.976c-5.986 6.984-16.791 6.984-22.778 0l-43.693-50.976c-8.34-9.73-1.426-24.762 11.389-24.762h12.415v-160.024c0-8.284 6.716-15 15-15z" fill="#ff9f22"/></g></g><path d="m113.804 455.786-43.693 50.975c-2.993 3.493-7.191 5.239-11.389 5.239v-256h31.278v175.024h12.415c12.816 0 19.73 15.032 11.389 24.762z" fill="#ff7c48"/></g></g></svg>