<svg id="Capa_1" enable-background="new 0 0 512 512" height="512" viewBox="0 0 512 512" width="512" xmlns="http://www.w3.org/2000/svg"><g><path d="m426 145c0-37.451-25.77-68.8-60.52-77.512-3.702-29.583-28.892-52.488-59.48-52.488-20.881 0-39.254 10.678-50 26.86-10.746-16.182-29.119-26.86-50-26.86-30.588 0-55.778 22.905-59.48 52.488-34.75 8.712-60.52 40.061-60.52 77.512 0 21.329 8.4 40.658 22.006 55-13.606 14.342-22.006 33.671-22.006 55 0 37.451 25.77 68.8 60.52 77.512 3.702 29.583 28.892 52.488 59.48 52.488h100c30.588 0 55.778-22.905 59.48-52.488 34.75-8.712 60.52-40.061 60.52-77.512 0-21.329-8.4-40.658-22.006-55 13.606-14.342 22.006-33.671 22.006-55z" fill="#ffde55"/><path d="m306 385c30.588 0 55.778-22.905 59.48-52.488 34.75-8.712 60.52-40.061 60.52-77.512 0-21.329-8.4-40.658-22.006-55 13.606-14.342 22.006-33.671 22.006-55 0-37.451-25.77-68.8-60.52-77.512-3.702-29.583-28.892-52.488-59.48-52.488-20.881 0-39.254 10.678-50 26.86v343.14z" fill="#ffcd00"/><path d="m266 512h-20c-24.853 0-45-20.147-45-45v-22c0-8.284 6.716-15 15-15h80c8.284 0 15 6.716 15 15v22c0 24.853-20.147 45-45 45z" fill="#5f55af"/><path d="m311 467v-22c0-8.284-6.716-15-15-15h-40v82h10c24.853 0 45-20.147 45-45z" fill="#453d83"/><path d="m181 395.692v29.308c0 19.33 15.67 35 35 35h80c19.33 0 35-15.67 35-35v-29.307z" fill="#beebfa"/><path d="m331 425v-29.307h-75v64.307h40c19.33 0 35-15.67 35-35z" fill="#9ee2f8"/><path d="m441 145c0-40.314-25.272-75.722-62.541-89.212-8.561-32.414-38.13-55.788-72.459-55.788-18.706 0-36.411 6.927-50 19.106-13.589-12.179-31.294-19.106-50-19.106-34.328 0-63.897 23.374-72.459 55.788-37.269 13.491-62.541 48.898-62.541 89.212 0 19.886 6.178 38.992 17.607 55-11.429 16.008-17.607 35.114-17.607 55 0 40.314 25.272 75.721 62.541 89.212 8.562 32.414 38.131 55.788 72.459 55.788h100c34.329 0 63.898-23.374 72.459-55.788 37.269-13.49 62.541-48.898 62.541-89.212 0-19.886-6.178-38.992-17.607-55 11.429-16.008 17.607-35.114 17.607-55zm-235 225c-22.616 0-41.789-16.917-44.596-39.352 0-.001 0-.003-.001-.004h.001c-1.688-13.483 2.722-27.415 12.776-37.47 5.858-5.857 5.858-15.355 0-21.213-5.857-5.857-15.355-5.857-21.213 0-10.827 10.826-17.758 24.355-20.55 38.637-19.13-11.504-31.417-32.358-31.417-55.598 0-16.65 6.353-32.517 17.888-44.677 5.49-5.787 5.49-14.859 0-20.646-11.535-12.16-17.888-28.027-17.888-44.677 0-23.24 12.287-44.094 31.417-55.599 2.837 14.454 9.89 27.972 20.551 38.632 2.929 2.929 6.768 4.394 10.606 4.394s7.678-1.465 10.606-4.394c5.858-5.857 5.858-15.355 0-21.213-9.83-9.83-14.5-23.714-12.777-37.467v-.001c2.808-22.435 21.981-39.352 44.597-39.352 13.693 0 26.482 6.211 35 16.776v191.217c-17.459-4.816-30-17.784-30-32.993 0-8.284-6.716-15-15-15s-15 6.716-15 15c0 31.39 25.808 57.653 60 63.692v101.308zm187.112-159.677c11.535 12.16 17.888 28.027 17.888 44.677 0 23.24-12.287 44.094-31.417 55.599-2.792-14.282-9.723-27.811-20.55-38.637-5.857-5.857-15.355-5.857-21.213 0s-5.858 15.355 0 21.213c10.055 10.055 14.464 23.987 12.776 37.47-2.807 22.433-21.979 39.355-44.596 39.355h-35v-207.993c17.459 4.816 30 17.784 30 32.993 0 8.284 6.716 15 15 15s15-6.716 15-15c0-31.39-25.808-57.653-60-63.692v-84.532c8.518-10.565 21.307-16.776 35-16.776 22.617 0 41.789 16.917 44.596 39.351 1.725 13.754-2.946 27.639-12.776 37.47-5.858 5.857-5.858 15.355 0 21.213 2.929 2.929 6.768 4.394 10.606 4.394s7.678-1.465 10.606-4.394c10.66-10.66 17.714-24.178 20.551-38.632 19.13 11.504 31.417 32.358 31.417 55.598 0 16.65-6.353 32.517-17.888 44.677-5.49 5.787-5.49 14.859 0 20.646z" fill="#fff79f"/><path d="m306 400c34.329 0 63.898-23.374 72.459-55.788 37.269-13.49 62.541-48.898 62.541-89.212 0-19.886-6.178-38.992-17.607-55 11.429-16.008 17.607-35.114 17.607-55 0-40.314-25.272-75.722-62.541-89.212-8.561-32.414-38.13-55.788-72.459-55.788-18.706 0-36.411 6.927-50 19.106v380.894zm-35-237.993c17.459 4.816 30 17.784 30 32.993 0 8.284 6.716 15 15 15s15-6.716 15-15c0-31.39-25.808-57.653-60-63.692v-84.532c8.518-10.565 21.307-16.776 35-16.776 22.617 0 41.789 16.917 44.596 39.351 1.725 13.754-2.946 27.639-12.776 37.47-5.858 5.857-5.858 15.355 0 21.213 2.929 2.929 6.768 4.394 10.606 4.394s7.678-1.465 10.606-4.394c10.66-10.66 17.714-24.178 20.551-38.632 19.13 11.504 31.417 32.358 31.417 55.598 0 16.65-6.353 32.517-17.888 44.677-5.49 5.787-5.49 14.859 0 20.646 11.535 12.16 17.888 28.027 17.888 44.677 0 23.24-12.287 44.094-31.417 55.599-2.792-14.282-9.723-27.811-20.55-38.637-5.857-5.857-15.355-5.857-21.213 0s-5.858 15.355 0 21.213c10.055 10.055 14.464 23.987 12.776 37.47-2.807 22.433-21.979 39.355-44.596 39.355h-35z" fill="#ffde55"/><g><g><path d="m467.012 100.002c-4.847 0-9.604-2.346-12.495-6.682-4.595-6.893-2.732-16.206 4.161-20.801l30-20c6.892-4.597 16.206-2.733 20.801 4.16s2.732 16.206-4.161 20.801l-30 20c-2.556 1.706-5.447 2.522-8.306 2.522z" fill="#ffde55"/></g><g><path d="m496.985 350.002c-2.859 0-5.75-.816-8.307-2.521l-30-20c-6.893-4.595-8.756-13.908-4.161-20.801 4.596-6.894 13.91-8.755 20.801-4.16l30 20c6.893 4.595 8.756 13.908 4.161 20.801-2.89 4.335-7.648 6.681-12.494 6.681z" fill="#ffde55"/></g></g><g><g><path d="m44.988 100.002c-2.859 0-5.75-.816-8.307-2.521l-30-20c-6.893-4.595-8.756-13.908-4.161-20.801 4.596-6.894 13.91-8.756 20.801-4.16l30 20c6.893 4.595 8.756 13.908 4.161 20.801-2.89 4.335-7.647 6.681-12.494 6.681z" fill="#fff79f"/></g><g><path d="m15.015 350.002c-4.847 0-9.604-2.346-12.495-6.682-4.595-6.893-2.732-16.206 4.161-20.801l30-20c6.892-4.597 16.206-2.733 20.801 4.16s2.732 16.206-4.161 20.801l-30 20c-2.556 1.706-5.447 2.522-8.306 2.522z" fill="#fff79f"/></g></g><g><path d="m45 215h-30c-8.284 0-15-6.716-15-15s6.716-15 15-15h30c8.284 0 15 6.716 15 15s-6.716 15-15 15z" fill="#fff79f"/></g><g><path d="m497 215h-30c-8.284 0-15-6.716-15-15s6.716-15 15-15h30c8.284 0 15 6.716 15 15s-6.716 15-15 15z" fill="#ffde55"/></g></g></svg>