<svg id="Capa_1" enable-background="new 0 0 512 512" height="512" viewBox="0 0 512 512" width="512" xmlns="http://www.w3.org/2000/svg"><g><path d="m165 512h-150c-5.874 0-11.208-3.429-13.646-8.772-2.439-5.344-1.534-11.619 2.315-16.057l32.338-37.279c-23.308-29.159-36.007-65.208-36.007-102.892 0-90.981 74.019-165 165-165s165 74.019 165 165-74.018 165-165 165z" fill="#beebfa"/><g fill="#9ee2f8"><path d="m165 182v330c90.981 0 165-74.019 165-165s-74.018-165-165-165z"/><path d="m215 332h-100c-8.284 0-15-6.716-15-15s6.716-15 15-15h100c8.284 0 15 6.716 15 15s-6.716 15-15 15z"/><path d="m215 392h-100c-8.284 0-15-6.716-15-15s6.716-15 15-15h100c8.284 0 15 6.716 15 15s-6.716 15-15 15z"/></g><path d="m215 362h-50v30h50c8.284 0 15-6.716 15-15s-6.716-15-15-15z" fill="#87c0ed"/><path d="m215 302h-50v30h50c8.284 0 15-6.716 15-15s-6.716-15-15-15z" fill="#87c0ed"/><g><path d="m497 330h-150c-90.981 0-165-74.019-165-165s74.018-165 165-165 165 74.019 165 165c0 37.684-12.699 73.733-36.007 102.892l32.338 37.279c3.849 4.438 4.754 10.713 2.315 16.057-2.439 5.343-7.772 8.772-13.646 8.772z" fill="#999fed"/><path d="m508.331 305.171-32.338-37.279c23.308-29.159 36.007-65.208 36.007-102.892 0-90.981-74.019-165-165-165v330h150c5.874 0 11.208-3.429 13.646-8.772 2.439-5.344 1.534-11.62-2.315-16.057z" fill="#7c84e8"/><circle cx="347" cy="252" fill="#fff79f" r="15"/><path d="m347 221.586c-8.284 0-15-6.716-15-15v-44.491c0-8.284 6.716-15 15-15 7.623 0 14.717-3.051 19.977-8.59 5.254-5.534 7.929-12.794 7.532-20.443-.743-14.321-12.574-25.767-26.933-26.056-.188-.004-.376-.006-.564-.006-13.715 0-25.396 10.091-27.293 23.687-.177 1.266-.266 2.565-.266 3.861 0 8.284-6.716 15-15 15s-15-6.716-15-15c0-2.678.187-5.371.554-8.007 4.022-28.823 29.064-50.126 58.173-49.529 30.009.605 54.734 24.542 56.289 54.495.828 15.946-4.761 31.095-15.736 42.654-7.309 7.698-16.62 13.179-26.732 15.925v31.5c-.001 8.284-6.717 15-15.001 15z" fill="#fff79f"/><g fill="#ffde55"><path d="m347 237v30c8.284 0 15-6.716 15-15s-6.716-15-15-15z"/><path d="m404.469 116.507c-1.555-29.953-26.28-53.89-56.289-54.495-.395-.008-.786.003-1.18.003v29.985h.012c.188 0 .375.002.564.006 14.359.289 26.19 11.734 26.933 26.056.397 7.649-2.278 14.909-7.532 20.443-5.259 5.539-12.353 8.59-19.977 8.59v74.491c8.284 0 15-6.716 15-15v-31.5c10.112-2.746 19.424-8.227 26.732-15.925 10.976-11.559 16.564-26.708 15.737-42.654z"/></g></g></g></svg>