<svg id="Capa_1" enable-background="new 0 0 512 512" height="512" viewBox="0 0 512 512" width="512" xmlns="http://www.w3.org/2000/svg"><g><path d="m498.602 152.228-59.089-10.419c-8.158-1.439-15.938 4.009-17.377 12.167s4.009 15.938 12.167 17.377l26.42 4.659-112.485 89.988 18.74 23.426 107.341-85.872-3.515 19.932c-1.438 8.158 4.009 15.938 12.167 17.377 8.158 1.439 15.938-4.009 17.377-12.167l10.419-59.089c1.441-8.16-4.006-15.94-12.165-17.379z" fill="#5f55af"/><g><path d="m136 332h-60c-8.284 0-15 6.716-15 15v150h90v-150c0-8.284-6.716-15-15-15z" fill="#d6fc7e"/><path d="m256 292h-60c-8.284 0-15 6.716-15 15v190h90v-190c0-8.284-6.716-15-15-15z" fill="#999fed"/><path d="m271 307c0-8.284-6.716-15-15-15h-30v205h45z" fill="#7c84e8"/><path d="m376 362h-60c-8.284 0-15 6.716-15 15v120h90v-120c0-8.284-6.716-15-15-15z" fill="#ff9f22"/><path d="m496 272h-60c-8.284 0-15 6.716-15 15v210h75c8.284 0 15-6.716 15-15v-195c0-8.284-6.716-15-15-15z" fill="#fff79f"/><path d="m511 287c0-8.284-6.716-15-15-15h-30v225h30c8.284 0 15-6.716 15-15z" fill="#ffde55"/></g><g fill="#5f55af"><path d="m62.407 293.344c-3.503-7.507-.258-16.433 7.249-19.936l136.48-63.692 12.687 27.186-136.48 63.692c-7.507 3.502-16.433.257-19.936-7.25z"/><path d="m271 197.416h30v109.167h-30z" transform="matrix(.504 -.864 .864 .504 -75.78 372.063)"/></g><circle cx="226" cy="217" fill="#999fed" r="37.5"/><path d="m226 179.5v75c20.711 0 37.5-16.789 37.5-37.5s-16.789-37.5-37.5-37.5z" fill="#7c84e8"/><path d="m365.538 89.908c-2.317-.819-4.677-1.67-7.039-2.548v-41.63c4.85 1.734 7.667 4.126 7.895 4.323l-.128-.116.01-.01c2.228 2.056 5.195 3.322 8.465 3.322 6.904 0 12.5-5.596 12.5-12.5 0-3.633-1.56-6.895-4.035-9.178l.009-.01c-.568-.524-9.706-8.76-24.716-11.654v-7.407c0-6.903-5.597-12.5-12.5-12.5s-12.5 5.597-12.5 12.5v8.286c-.876.224-1.759.464-2.652.734-15.111 4.552-26.397 17.456-29.454 33.676-2.803 14.873 2.019 29.26 12.583 37.545 5.057 3.967 11.23 7.603 19.523 11.389v54.913c-6.043-.805-10.579-2.785-17.661-7.418-5.776-3.78-13.524-2.159-17.304 3.618s-2.159 13.524 3.618 17.304c12.257 8.018 20.874 10.781 31.347 11.646v8.309c0 6.903 5.597 12.5 12.5 12.5s12.5-5.597 12.5-12.5v-9.477c8.214-2.01 15.684-5.989 22.01-11.801 8.459-7.771 14.168-18.302 16.076-29.65 3.923-23.333-8.265-43.613-31.047-51.666zm-36.133-16.839c-3.145-2.466-4.497-7.665-3.445-13.244.794-4.211 3.172-9.099 7.539-12.153v28.232c-1.481-.926-2.863-1.869-4.094-2.835zm42.526 64.359c-1.217 7.239-5.769 14.875-13.432 19.01v-42.469c14.657 5.876 14.301 18.288 13.432 23.459z" fill="#fff79f"/><path d="m498.602 152.228-59.089-10.419c-8.158-1.439-15.938 4.009-17.377 12.167s4.009 15.938 12.167 17.377l26.42 4.659-112.485 89.988 18.74 23.426 107.341-85.872-3.515 19.932c-1.438 8.158 4.009 15.938 12.167 17.377 8.158 1.439 15.938-4.009 17.377-12.167l10.419-59.089c1.441-8.16-4.006-15.94-12.165-17.379z" fill="#453d83"/><path d="m391 497v-120c0-8.284-6.716-15-15-15h-30v135z" fill="#ff7c48"/><path d="m151 497v-150c0-8.284-6.716-15-15-15h-30v165z" fill="#b2fa09"/><path d="m358.499 192.5v-9.477c8.214-2.01 15.684-5.989 22.01-11.801 8.459-7.771 14.168-18.302 16.076-29.65 3.923-23.331-8.265-43.611-31.047-51.664-2.317-.819-4.677-1.67-7.039-2.548v-41.63c4.85 1.734 7.667 4.126 7.895 4.323l-.128-.116.01-.01c2.228 2.056 5.195 3.322 8.465 3.322 6.904 0 12.5-5.596 12.5-12.5 0-3.633-1.56-6.895-4.035-9.178l.009-.01c-.568-.524-9.706-8.76-24.716-11.654v-7.407c0-6.903-5.596-12.5-12.499-12.5v205c6.903 0 12.499-5.597 12.499-12.5zm0-78.531c14.657 5.876 14.301 18.287 13.432 23.458-1.217 7.239-5.769 14.875-13.432 19.01z" fill="#ffde55"/><path d="m31 482v-467c0-8.284-6.716-15-15-15s-15 6.716-15 15v482c0 8.284 6.716 15 15 15h480c8.284 0 15-6.716 15-15v-15z" fill="#5f55af"/><path d="m346 482v30h150c8.284 0 15-6.716 15-15v-15z" fill="#453d83"/><circle cx="346" cy="287" fill="#ff9f22" r="37.5"/><path d="m383.5 287c0-20.711-16.789-37.5-37.5-37.5v75c20.711 0 37.5-16.789 37.5-37.5z" fill="#ff7c48"/></g></svg>