<svg id="Capa_1" enable-background="new 0 0 512 512" height="512" viewBox="0 0 512 512" width="512" xmlns="http://www.w3.org/2000/svg"><g><path d="m256 482c-49.415 0-95.873-19.244-130.815-54.185-34.941-34.942-54.185-81.4-54.185-130.815s19.244-95.873 54.185-130.815c34.942-34.941 81.4-54.185 130.815-54.185s95.873 19.244 130.815 54.185c34.941 34.942 54.185 81.4 54.185 130.815s-19.244 95.873-54.185 130.815c-34.942 34.941-81.4 54.185-130.815 54.185z" fill="#fff79f"/><path d="m386.815 427.815c34.941-34.942 54.185-81.4 54.185-130.815s-19.244-95.873-54.185-130.815c-34.942-34.941-81.399-54.185-130.815-54.185v370c49.416 0 95.873-19.244 130.815-54.185z" fill="#ffde55"/><g fill="#453d83"><path d="m241 127v45c0 8.284 6.716 15 15 15 8.284 0 15-6.716 15-15v-45z"/><path d="m271 467h-30v-45c0-8.284 6.716-15 15-15 8.284 0 15 6.716 15 15z"/><path d="m131 312h-45v-30h45c8.284 0 15 6.716 15 15 0 8.284-6.716 15-15 15z"/><path d="m426 312h-45c-8.284 0-15-6.716-15-15 0-8.284 6.716-15 15-15h45z"/></g><path d="m221.37 269.079-42.426 84.853c-6.447 12.893 7.231 26.571 20.125 20.125l84.853-42.426c1.452-.726 2.766-1.677 3.898-2.81l3.536-17.678-49.498-49.497-17.678 3.536c-1.133 1.131-2.084 2.445-2.81 3.897z" fill="#999fed"/><path d="m256 187c8.284 0 15-6.716 15-15v-45h-15z" fill="#2d2755"/><path d="m271 467v-45c0-8.284-6.716-15-15-15v60z" fill="#2d2755"/><path d="m426 312h-45c-8.284 0-15-6.716-15-15 0-8.284 6.716-15 15-15h45z" fill="#2d2755"/><path d="m181.754 371.246c4.225 4.225 10.868 6.033 17.315 2.81l84.853-42.426c1.452-.726 2.766-1.677 3.898-2.81l3.536-17.678-24.749-24.749z" fill="#7c84e8"/><path d="m256 112c-30.879 0-56-25.121-56-56s25.121-56 56-56 56 25.121 56 56-25.121 56-56 56zm0-82c-14.337 0-26 11.663-26 26s11.663 26 26 26 26-11.663 26-26-11.663-26-26-26z" fill="#453d83"/><path d="m282 56c0 14.337-11.663 26-26 26v30c30.879 0 56-25.121 56-56s-25.121-56-56-56v30c14.337 0 26 11.663 26 26z" fill="#2d2755"/><path d="m408.028 144.972c-40.608-40.608-94.599-62.972-152.028-62.972s-111.42 22.364-152.028 62.972c-40.608 40.608-62.972 94.599-62.972 152.028s22.364 111.42 62.972 152.028 94.599 62.972 152.028 62.972 111.42-22.364 152.028-62.972 62.972-94.599 62.972-152.028-22.364-111.42-62.972-152.028zm-152.028 307.028c-85.468 0-155-69.532-155-155s69.532-155 155-155 155 69.532 155 155-69.532 155-155 155z" fill="#5f55af"/><path d="m471 297c0-57.429-22.364-111.42-62.972-152.028s-94.599-62.972-152.028-62.972v60c85.468 0 155 69.532 155 155s-69.532 155-155 155v60c57.429 0 111.42-22.364 152.028-62.972s62.972-94.599 62.972-152.028z" fill="#453d83"/><path d="m333.056 240.069c6.447-12.893-7.231-26.571-20.125-20.125l-84.853 42.427c-1.451.726-2.766 1.677-3.898 2.81l63.64 63.64c1.133-1.133 2.084-2.447 2.81-3.898z" fill="#ff9f22"/><path d="m330.246 222.754-74.246 74.246 31.82 31.82c1.133-1.133 2.084-2.447 2.81-3.898l42.427-84.853c3.222-6.447 1.415-13.09-2.811-17.315z" fill="#ff7c48"/></g></svg>