<svg id="Capa_1" enable-background="new 0 0 512 512" height="512" viewBox="0 0 512 512" width="512" xmlns="http://www.w3.org/2000/svg"><g><path d="m45 177c-16.569 0-30 13.431-30 30v260c0 16.569 13.431 30 30 30h422c16.569 0 30-13.431 30-30v-260c0-16.569-13.431-30-30-30z" fill="#beebfa"/><path d="m467 177h-211v320h211c16.569 0 30-13.431 30-30v-260c0-16.569-13.431-30-30-30z" fill="#9ee2f8"/><path d="m376 132h-80c-8.284 0-15-6.716-15-15s23.475-15 31.759-15h63.241c8.271 0 15-6.729 15-15s-6.729-15-15-15c-24.813 0-45-20.187-45-45v-12c0-8.284 6.716-15 15-15s15 6.716 15 15v12c0 8.271 6.729 15 15 15 24.813 0 45 20.187 45 45s-20.187 45-45 45z" fill="#ff7c48"/><path d="m467 512h-422c-24.813 0-45-20.187-45-45v-260c0-24.813 20.187-45 45-45h422c24.813 0 45 20.187 45 45v260c0 24.813-20.187 45-45 45zm-422-320c-8.271 0-15 6.729-15 15v260c0 8.271 6.729 15 15 15h422c8.271 0 15-6.729 15-15v-260c0-8.271-6.729-15-15-15z" fill="#9ee2f8"/><g fill="#87c0ed"><path d="m467 162h-211v30h211c8.271 0 15 6.729 15 15v260c0 8.271-6.729 15-15 15h-211v30h211c24.813 0 45-20.187 45-45v-260c0-24.813-20.187-45-45-45z"/><path d="m436 272h-90c-8.284 0-15-6.716-15-15s6.716-15 15-15h90c8.284 0 15 6.716 15 15s-6.716 15-15 15z"/><path d="m436 332h-140c-8.284 0-15-6.716-15-15s6.716-15 15-15h140c8.284 0 15 6.716 15 15s-6.716 15-15 15z"/><path d="m366 392h-70c-8.284 0-15-6.716-15-15s6.716-15 15-15h70c8.284 0 15 6.716 15 15s-6.716 15-15 15z"/><path d="m436 392h-20c-8.284 0-15-6.716-15-15s6.716-15 15-15h20c8.284 0 15 6.716 15 15s-6.716 15-15 15z"/><path d="m366 452h-70c-8.284 0-15-6.716-15-15s6.716-15 15-15h70c8.284 0 15 6.716 15 15s-6.716 15-15 15z"/><path d="m436 452h-20c-8.284 0-15-6.716-15-15s6.716-15 15-15h20c8.284 0 15 6.716 15 15s-6.716 15-15 15z"/></g><g><g><g><g><g><path d="m236 452h-160c-8.284 0-15-6.716-15-15v-8.789c0-52.302 41.763-95.7 94.063-96.207 52.811-.511 95.937 42.301 95.937 94.996v10c0 8.284-6.716 15-15 15z" fill="#5f55af"/><path d="m156 332.007v119.993h80c8.284 0 15-6.716 15-15v-10c0-52.383-42.617-94.992-95-94.993z" fill="#453d83"/><path d="m156 357c-31.705 0-57.5-25.795-57.5-57.5s25.795-57.5 57.5-57.5 57.5 25.795 57.5 57.5-25.795 57.5-57.5 57.5z" fill="#ffe4c2"/><path d="m156 242v115c31.706 0 57.5-25.794 57.5-57.5s-25.794-57.5-57.5-57.5z" fill="#f2d1a5"/></g></g></g></g></g><path d="m216 132h-80c-24.813 0-45-20.187-45-45s20.187-45 45-45c8.271 0 15-6.729 15-15v-12c0-8.284 6.716-15 15-15s15 6.716 15 15v12c0 24.813-20.187 45-45 45-8.271 0-15 6.729-15 15s6.729 15 15 15h63.241c8.284 0 31.759 6.716 31.759 15s-6.716 15-15 15z" fill="#ff9f22"/><path d="m286 222h-60c-7.643 0-14.064-5.747-14.908-13.344l-11.851-106.656h113.518l-11.85 106.656c-.845 7.597-7.266 13.344-14.909 13.344z" fill="#999fed"/><path d="m256 222h30c7.643 0 14.064-5.747 14.908-13.344l11.851-106.656h-56.759z" fill="#7c84e8"/></g></svg>