<svg id="Capa_1" enable-background="new 0 0 512 512" height="512" viewBox="0 0 512 512" width="512" xmlns="http://www.w3.org/2000/svg"><g><path d="m411.786 90.882c-32.175-56.907-90.412-90.882-155.786-90.882s-123.611 33.975-155.786 90.882-31.263 124.325 2.44 180.341l135.841 225.777h35.01l135.841-225.776c33.703-56.016 34.615-123.434 2.44-180.342z" fill="#ff9f22"/><path d="m273.505 497 135.841-225.776c33.703-56.016 34.615-123.434 2.44-180.341s-90.412-90.883-155.786-90.883v497z" fill="#ff7c48"/><g><g><g><path d="m336 270h-160c-8.284 0-15-6.716-15-15v-8.789c0-52.302 41.763-95.7 94.063-96.207 52.811-.511 95.937 42.301 95.937 94.996v10c0 8.284-6.716 15-15 15z" fill="#5f55af"/><path d="m256 150.007v119.993h80c8.284 0 15-6.716 15-15v-10c0-52.383-42.617-94.992-95-94.993z" fill="#453d83"/><path d="m256 175c-31.705 0-57.5-25.795-57.5-57.5s25.795-57.5 57.5-57.5 57.5 25.795 57.5 57.5-25.795 57.5-57.5 57.5z" fill="#ffe4c2"/><path d="m256 60v115c31.706 0 57.5-25.794 57.5-57.5s-25.794-57.5-57.5-57.5z" fill="#f2d1a5"/></g></g></g><path d="m396 512h-280c-8.284 0-15-6.716-15-15s6.716-15 15-15h280c8.284 0 15 6.716 15 15s-6.716 15-15 15z" fill="#d6fc7e"/><path d="m411 497c0-8.284-6.716-15-15-15h-140v30h140c8.284 0 15-6.716 15-15z" fill="#b2fa09"/></g></svg>