<svg id="Capa_1" enable-background="new 0 0 512 512" height="512" viewBox="0 0 512 512" width="512" xmlns="http://www.w3.org/2000/svg"><g><path d="m65 212c-8.284 0-15-6.716-15-15v-142c0-30.327 24.673-55 55-55h50c8.284 0 15 6.716 15 15s-6.716 15-15 15h-50c-13.785 0-25 11.215-25 25v142c0 8.284-6.716 15-15 15z" fill="#5f55af"/><path d="m155 0h-50c-15.75 0-29.964 6.665-40 17.31v194.69c8.284 0 15-6.716 15-15v-142c0-13.785 11.215-25 25-25h50c8.284 0 15-6.716 15-15s-6.716-15-15-15z" fill="#453d83"/><path d="m210 55c0-30.611-25.137-55.462-55.854-54.993-30.179.46-54.146 25.646-54.146 55.828v4.165c0 8.284 6.716 15 15 15h80c8.284 0 15-6.716 15-15z" fill="#fff79f"/><path d="m100 60v15c0 8.284 6.716 15 15 15h80c8.284 0 15-6.716 15-15v-15z" fill="#ffde55"/><path d="m230 317c0-8.284-6.716-15-15-15h-200c-8.284 0-15 6.716-15 15v82.5l17 15-17 15v67.5c0 8.284 6.716 15 15 15h200c8.284 0 15-6.716 15-15v-67.5l-12-15 12-15z" fill="#453d83"/><path d="m230 317c0-8.284-6.716-15-15-15h-100v210h100c8.284 0 15-6.716 15-15v-67.5l-12-15 12-15z" fill="#2d2755"/><path d="m85 182h-40c-24.853 0-45 20.147-45 45v15c0 8.284 6.716 15 15 15h115v-30c0-24.853-20.147-45-45-45z" fill="#beebfa"/><path d="m130 227c0-24.853-20.147-45-45-45h-20v75h65z" fill="#9ee2f8"/><path d="m477 15h-200c-11.046 0-20 8.954-20 20v142c0 11.046 8.954 20 20 20h200c11.046 0 20-8.954 20-20v-142c0-11.046-8.954-20-20-20z" fill="#5f55af"/><path d="m421.796 194.534c-1.205-7.233-7.463-12.534-14.796-12.534h-60c-7.333 0-13.591 5.301-14.796 12.534l-10 60h109.592z" fill="#9ee2f8"/><path d="m477 15h-100v182h100c11.046 0 20-8.954 20-20v-142c0-11.046-8.954-20-20-20z" fill="#453d83"/><path d="m421.796 194.534c-1.205-7.233-7.463-12.534-14.796-12.534h-30v72.534h54.796z" fill="#87c0ed"/><path d="m497 302h-15v195c0 8.284 6.716 15 15 15s15-6.716 15-15v-180c0-8.284-6.716-15-15-15z" fill="#2d2755"/><path d="m100 302v45c0 8.284 6.716 15 15 15s15-6.716 15-15v-45z" fill="#fff79f"/><path d="m100 414.5v45c0 8.284 6.716 15 15 15s15-6.716 15-15v-45z" fill="#fff79f"/><g><path d="m296 512c-8.284 0-15-6.716-15-15v-75h30v75c0 8.284-6.716 15-15 15z" fill="#5f55af"/><path d="m416 512c-8.284 0-15-6.716-15-15v-75h30v75c0 8.284-6.716 15-15 15z" fill="#453d83"/><path d="m436 362h-160c-8.284 0-15 6.716-15 15v45c0 8.284 6.716 15 15 15h160c8.284 0 15-6.716 15-15v-45c0-8.284-6.716-15-15-15z" fill="#ff9f22"/><path d="m436 362h-80v75h80c8.284 0 15-6.716 15-15v-45c0-8.284-6.716-15-15-15z" fill="#ff7c48"/></g><path d="m130 347v-45h-15v60c8.284 0 15-6.716 15-15z" fill="#ffde55"/><path d="m130 459.5v-45h-15v60c8.284 0 15-6.716 15-15z" fill="#ffde55"/><path d="m477 0h-200c-19.299 0-35 15.701-35 35v142c0 19.299 15.701 35 35 35h200c19.299 0 35-15.701 35-35v-142c0-19.299-15.701-35-35-35zm-205 157v-122c0-2.757 2.243-5 5-5h200c2.757 0 5 2.243 5 5v122z" fill="#beebfa"/><path d="m477 0h-100v30h100c2.757 0 5 2.243 5 5v122h-105v55h100c19.299 0 35-15.701 35-35v-142c0-19.299-15.701-35-35-35z" fill="#9ee2f8"/><path d="m497 242h-497v75h512v-60c0-8.284-6.716-15-15-15z" fill="#5f55af"/><path d="m512 257c0-8.284-6.716-15-15-15h-382v75h397z" fill="#453d83"/><path d="m0 399.5h230v30h-230z" fill="#5f55af"/><path d="m115 399.5h115v30h-115z" fill="#453d83"/></g></svg>