<svg id="Capa_1" enable-background="new 0 0 512 512" height="512" viewBox="0 0 512 512" width="512" xmlns="http://www.w3.org/2000/svg"><g><path d="m511.955 495.848-5.149-66.941c-.983-12.778-16.501-18.518-25.562-9.456l-7.031 7.031-388.695-388.694 7.031-7.031c9.062-9.062 3.321-24.579-9.456-25.562l-66.941-5.15c-9.172-.705-16.812 6.935-16.107 16.107l5.149 66.941c.983 12.778 16.501 18.518 25.562 9.456l7.031-7.031 388.694 388.694-7.031 7.031c-9.062 9.062-3.321 24.579 9.456 25.562l66.941 5.149c9.173.706 16.813-6.934 16.108-16.106z" fill="#d6fc7e"/><path d="m4.395 4.395c-2.968 2.968-4.702 7.171-4.349 11.757l5.149 66.941c.983 12.778 16.501 18.518 25.562 9.456l7.031-7.031 388.694 388.694-7.031 7.031c-9.062 9.062-3.321 24.579 9.456 25.562l66.941 5.149c4.586.353 8.789-1.381 11.757-4.349z" fill="#b2fa09"/><path d="m.045 495.848 5.149-66.941c.983-12.778 16.501-18.518 25.562-9.456l7.031 7.031 388.695-388.694-7.031-7.031c-9.062-9.062-3.321-24.579 9.456-25.562l66.941-5.149c9.172-.705 16.812 6.935 16.106 16.106l-5.149 66.941c-.983 12.778-16.501 18.518-25.562 9.456l-7.031-7.031-388.694 388.694 7.031 7.031c9.062 9.062 3.321 24.579-9.456 25.562l-66.941 5.149c-9.172.706-16.812-6.934-16.107-16.106z" fill="#ff9f22"/><path d="m507.606 4.395c2.968 2.968 4.702 7.171 4.349 11.757l-5.149 66.941c-.983 12.778-16.501 18.518-25.562 9.456l-7.031-7.031-388.695 388.694 7.031 7.031c9.062 9.062 3.321 24.579-9.456 25.562l-66.941 5.149c-4.586.353-8.789-1.381-11.757-4.349z" fill="#ff7c48"/><g><path d="m161 185v110c0 8.284 6.716 15 15 15h25v187c0 8.284 6.716 15 15 15h80c8.284 0 15-6.716 15-15v-187h25c8.284 0 15-6.716 15-15v-110c0-52.467-42.533-95-95-95-52.467 0-95 42.533-95 95z" fill="#5f55af"/><path d="m256 90v422h40c8.284 0 15-6.716 15-15v-187h25c8.284 0 15-6.716 15-15v-110c0-52.467-42.533-95-95-95z" fill="#453d83"/><path d="m256 115c-31.705 0-57.5-25.795-57.5-57.5s25.795-57.5 57.5-57.5 57.5 25.795 57.5 57.5-25.794 57.5-57.5 57.5z" fill="#ffe4c2"/><path d="m256 0v115c31.706 0 57.5-25.794 57.5-57.5s-25.794-57.5-57.5-57.5z" fill="#f2d1a5"/></g></g></svg>