<svg id="Capa_1" enable-background="new 0 0 512 512" height="512" viewBox="0 0 512 512" width="512" xmlns="http://www.w3.org/2000/svg"><g><path d="m336 0h-160c-30.327 0-55 24.673-55 55v160c0 30.327 24.673 55 55 55h160c30.327 0 55-24.673 55-55v-160c0-30.327-24.673-55-55-55z" fill="#ff9f22"/><path d="m336 0h-80v270h80c30.327 0 55-24.673 55-55v-160c0-30.327-24.673-55-55-55z" fill="#ff7c48"/><g><path d="m496 512h-175v-23.789c0-52.302 41.763-95.7 94.063-96.207 52.811-.511 95.937 42.301 95.937 94.996v10c0 8.284-6.716 15-15 15z" fill="#beebfa"/><path d="m416 392.007v119.993h80c8.284 0 15-6.716 15-15v-10c0-52.383-42.617-94.992-95-94.993z" fill="#9ee2f8"/><path d="m416 417c-31.705 0-57.5-25.795-57.5-57.5s25.795-57.5 57.5-57.5 57.5 25.795 57.5 57.5-25.795 57.5-57.5 57.5z" fill="#ffe4c2"/><path d="m416 302v115c31.706 0 57.5-25.794 57.5-57.5s-25.794-57.5-57.5-57.5z" fill="#f2d1a5"/></g><g><path d="m191 512h-175c-8.284 0-15-6.716-15-15v-8.789c0-52.302 41.763-95.7 94.063-96.207 52.811-.511 95.937 42.301 95.937 94.996z" fill="#fff79f"/><path d="m96 392.007v119.993h95v-25c0-52.383-42.617-94.992-95-94.993z" fill="#ffde55"/><path d="m96 417c-31.705 0-57.5-25.795-57.5-57.5s25.795-57.5 57.5-57.5 57.5 25.795 57.5 57.5-25.795 57.5-57.5 57.5z" fill="#ffe4c2"/><path d="m96 302v115c31.706 0 57.5-25.794 57.5-57.5s-25.794-57.5-57.5-57.5z" fill="#f2d1a5"/></g><path d="m220.645 188.033-35.355-35.355c-5.858-5.858-5.858-15.355 0-21.213 5.858-5.858 15.355-5.858 21.213 0l24.749 24.748 74.246-74.246c5.858-5.858 15.355-5.858 21.213 0 5.858 5.858 5.858 15.355 0 21.213l-84.853 84.853c-5.858 5.858-15.355 5.858-21.213 0z" fill="#fff79f"/><path d="m326.711 81.967c-5.858-5.858-15.355-5.858-21.213 0l-49.498 49.497v42.427l70.711-70.711c5.858-5.857 5.858-15.355 0-21.213z" fill="#ffde55"/><g><path d="m351 512h-190v-23.789c0-52.302 41.763-95.7 94.063-96.207 52.811-.511 95.937 42.301 95.937 94.996z" fill="#5f55af"/><path d="m256 392.007v119.993h95v-25c0-52.383-42.617-94.992-95-94.993z" fill="#453d83"/><path d="m256 417c-31.705 0-57.5-25.795-57.5-57.5s25.795-57.5 57.5-57.5 57.5 25.795 57.5 57.5-25.795 57.5-57.5 57.5z" fill="#ffe4c2"/><path d="m256 302v115c31.706 0 57.5-25.794 57.5-57.5s-25.794-57.5-57.5-57.5z" fill="#f2d1a5"/></g></g></svg>