<svg id="Capa_1" enable-background="new 0 0 512 512" height="512" viewBox="0 0 512 512" width="512" xmlns="http://www.w3.org/2000/svg"><g><path d="m210 152h-90v-100h90z" fill="#999fed"/><path d="m392 152h-90v-100h90z" fill="#7c84e8"/><path d="m215 0h-100c-8.284 0-15 6.716-15 15v37c0 8.284 6.716 15 15 15h100c8.284 0 15-6.716 15-15v-37c0-8.284-6.716-15-15-15z" fill="#fff79f"/><path d="m397 0h-100c-8.284 0-15 6.716-15 15v37c0 8.284 6.716 15 15 15h100c8.284 0 15-6.716 15-15v-37c0-8.284-6.716-15-15-15z" fill="#ffde55"/><path d="m377 122h-106l-15 20-15-20h-106c-24.813 0-45 20.187-45 45v50c0 8.284 6.716 15 15 15h302c8.284 0 15-6.716 15-15v-50c0-24.813-20.187-45-45-45z" fill="#fff79f"/><path d="m377 122h-106l-15 20v90h151c8.284 0 15-6.716 15-15v-50c0-24.813-20.187-45-45-45z" fill="#ffde55"/><path d="m256 167c8.284 0 15-6.716 15-15v-30h-30v30c0 8.284 6.716 15 15 15z" fill="#ffde55"/><path d="m256 122v45c8.284 0 15-6.716 15-15v-30z" fill="#ffcd00"/><path d="m312 202h-112c-8.284 0-15 6.716-15 15v175c0 8.284 6.716 15 15 15h41l15-20 15 20h41c8.284 0 15-6.716 15-15v-175c0-8.284-6.716-15-15-15z" fill="#5f55af"/><path d="m312 202h-56v185l15 20h41c8.284 0 15-6.716 15-15v-175c0-8.284-6.716-15-15-15z" fill="#453d83"/><path d="m105 202c-24.521 0-45.625 18.304-49.092 42.577l-27.489 192.423c0 8.284 6.716 15 15 15h141.581c8.284 0 15-6.716 15-15v-235z" fill="#999fed"/><path d="m456.092 244.578c-3.467-24.274-24.571-42.578-49.092-42.578h-95v235c0 8.284 6.716 15 15 15h141.581c8.284 0 15-6.716 15-15z" fill="#7c84e8"/><path d="m483.581 437h-171.581v60h179.982c0-.706-.031-1.414-.132-2.122z" fill="#5f69e3"/><path d="m497 512h-190c-8.284 0-15-6.716-15-15s6.716-15 15-15h190c8.284 0 15 6.716 15 15s-6.716 15-15 15z" fill="#ffde55"/><path d="m20.15 494.878c-.101.708-.132 1.416-.132 2.122h179.982v-60h-171.581z" fill="#7c84e8"/><path d="m205 512h-190c-8.284 0-15-6.716-15-15s6.716-15 15-15h190c8.284 0 15 6.716 15 15s-6.716 15-15 15z" fill="#fff79f"/><path d="m256 282c-8.284 0-15 6.716-15 15v110h30v-110c0-8.284-6.716-15-15-15z" fill="#453d83"/><path d="m271 297c0-8.284-6.716-15-15-15v125h15z" fill="#2d2755"/></g></svg>