<svg id="Capa_1" enable-background="new 0 0 512 512" height="512" viewBox="0 0 512 512" width="512" xmlns="http://www.w3.org/2000/svg"><g><path d="m346 112c-8.284 0-15-6.716-15-15v-42c0-13.785-11.215-25-25-25h-100c-13.785 0-25 11.215-25 25v42c0 8.284-6.716 15-15 15s-15-6.716-15-15v-42c0-30.327 24.673-55 55-55h100c30.327 0 55 24.673 55 55v42c0 8.284-6.716 15-15 15z" fill="#5f55af"/><path d="m306 30c13.785 0 25 11.215 25 25v42c0 8.284 6.716 15 15 15s15-6.716 15-15v-42c0-30.327-24.673-55-55-55h-50v30z" fill="#453d83"/><path d="m30 437v20c0 30.376 24.624 55 55 55h342c30.376 0 55-24.624 55-55v-20c0-8.284-6.716-15-15-15h-422c-8.284 0-15 6.716-15 15z" fill="#ff9f22"/><path d="m482 457v-20c0-8.284-6.716-15-15-15h-211v90h171c30.376 0 55-24.624 55-55z" fill="#ff7c48"/><path d="m30 217.779h452v219.221h-452z" fill="#ff7c48"/><path d="m256 217.779h226v219.221h-226z" fill="#ff4c04"/><path d="m447 237h-382c-35.841 0-65-29.159-65-65v-75c0-8.284 6.716-15 15-15h76l30 20 30-20h210l30 20 30-20h76c8.284 0 15 6.716 15 15v75c0 35.841-29.159 65-65 65z" fill="#ff9f22"/><path d="m497 82h-76l-30 20-30-20h-105v155h191c35.841 0 65-29.159 65-65v-75c0-8.284-6.716-15-15-15z" fill="#ff7c48"/><path d="m391 332c-16.569 0-30-13.431-30-30v-45c0-8.284 6.716-15 15-15h30c8.284 0 15 6.716 15 15v45c0 16.569-13.431 30-30 30z" fill="#ffcd00"/><path d="m361 82h60v175h-60z" fill="#ffde55"/><path d="m121 332c-16.569 0-30-13.431-30-30v-45c0-8.284 6.716-15 15-15h30c8.284 0 15 6.716 15 15v45c0 16.569-13.431 30-30 30z" fill="#ffde55"/><path d="m91 82h60v175h-60z" fill="#fff79f"/></g></svg>