<svg id="Capa_1" enable-background="new 0 0 512 512" height="512" viewBox="0 0 512 512" width="512" xmlns="http://www.w3.org/2000/svg"><g><g><path d="m126.078 332.01-77.953 45.006c21.072 36.419 51.439 66.786 87.858 87.858l45.006-77.953c-22.762-13.17-41.741-32.149-54.911-54.911z" fill="#999fed"/><path d="m180.99 386.922-45.006 77.953c35.305 20.427 76.293 32.125 120.016 32.125v-90c-27.327 0-52.944-7.311-75.01-20.078z" fill="#ff9f22"/><path d="m106 257h-90c0 43.723 11.698 84.711 32.125 120.017l77.953-45.006c-12.767-22.067-20.078-47.684-20.078-75.011z" fill="#999fed"/><path d="m256 407v90c43.723 0 84.711-11.698 120.017-32.125l-45.006-77.953c-22.067 12.767-47.684 20.078-75.011 20.078z" fill="#ff7c48"/><g fill="#ffde55"><path d="m406 257c0 27.327-7.311 52.944-20.078 75.01l77.953 45.006c20.427-35.305 32.125-76.293 32.125-120.016z"/><path d="m331.01 386.922 45.006 77.953c36.419-21.072 66.786-51.439 87.858-87.858l-77.953-45.006c-13.17 22.761-32.148 41.74-54.911 54.911z"/></g></g><path d="m496 242h-90c-8.284 0-15 6.716-15 15 0 74.439-60.561 135-135 135s-135-60.561-135-135c0-8.284-6.716-15-15-15h-90c-8.284 0-15 6.716-15 15 0 68.113 26.524 132.149 74.688 180.312 48.163 48.164 112.199 74.688 180.312 74.688s132.149-26.524 180.312-74.688 74.688-112.199 74.688-180.312c0-8.284-6.716-15-15-15zm-255 239.492c-30.064-1.989-58.534-9.903-84.245-22.594l30.086-52.109c16.735 7.757 34.977 12.791 54.159 14.528zm30-60.176c19.182-1.737 37.424-6.771 54.159-14.528l30.086 52.11c-25.712 12.691-54.181 20.605-84.245 22.594zm-179.324-149.316c1.736 19.183 6.778 37.424 14.536 54.16l-52.101 30.08c-12.692-25.712-20.627-54.175-22.616-84.24zm-22.528 110.199 52.104-30.083c10.866 15.348 24.282 28.765 39.631 39.63l-30.085 52.109c-24.326-16.353-45.296-37.329-61.65-61.656zm312.054 61.657-30.085-52.109c15.348-10.866 28.765-24.283 39.631-39.631l52.105 30.083c-16.355 24.327-37.325 45.303-61.651 61.657zm76.688-87.615-52.101-30.081c7.758-16.736 12.8-34.977 14.536-54.16h60.182c-1.991 30.065-9.926 58.528-22.617 84.241z" fill="#beebfa"/><g fill="#5f55af"><path d="m35 30h-20c-8.284 0-15-6.716-15-15s6.716-15 15-15h20c8.284 0 15 6.716 15 15s-6.716 15-15 15z"/><path d="m175 30h-80c-8.284 0-15-6.716-15-15s6.716-15 15-15h80c8.284 0 15 6.716 15 15s-6.716 15-15 15z"/><path d="m35 90h-20c-8.284 0-15-6.716-15-15s6.716-15 15-15h20c8.284 0 15 6.716 15 15s-6.716 15-15 15z"/><path d="m175 90h-80c-8.284 0-15-6.716-15-15s6.716-15 15-15h80c8.284 0 15 6.716 15 15s-6.716 15-15 15z"/><path d="m35 150h-20c-8.284 0-15-6.716-15-15s6.716-15 15-15h20c8.284 0 15 6.716 15 15s-6.716 15-15 15z"/><path d="m175 150h-80c-8.284 0-15-6.716-15-15s6.716-15 15-15h80c8.284 0 15 6.716 15 15s-6.716 15-15 15z"/></g><path d="m357 30h-20c-8.284 0-15-6.716-15-15s6.716-15 15-15h20c8.284 0 15 6.716 15 15s-6.716 15-15 15z" fill="#453d83"/><path d="m497 30h-80c-8.284 0-15-6.716-15-15s6.716-15 15-15h80c8.284 0 15 6.716 15 15s-6.716 15-15 15z" fill="#453d83"/><path d="m357 90h-20c-8.284 0-15-6.716-15-15s6.716-15 15-15h20c8.284 0 15 6.716 15 15s-6.716 15-15 15z" fill="#453d83"/><path d="m497 90h-80c-8.284 0-15-6.716-15-15s6.716-15 15-15h80c8.284 0 15 6.716 15 15s-6.716 15-15 15z" fill="#453d83"/><path d="m357 150h-20c-8.284 0-15-6.716-15-15s6.716-15 15-15h20c8.284 0 15 6.716 15 15s-6.716 15-15 15z" fill="#453d83"/><path d="m497 150h-80c-8.284 0-15-6.716-15-15s6.716-15 15-15h80c8.284 0 15 6.716 15 15s-6.716 15-15 15z" fill="#453d83"/><g><g><g><g><g><g><path d="m161 317c0 8.284 6.716 15 15 15h160c8.284 0 15-6.716 15-15 0-52.467-42.533-95-95-95-52.467 0-95 42.533-95 95z" fill="#5f55af"/><path d="m256 332h80c8.284 0 15-6.716 15-15 0-52.467-42.533-95-95-95z" fill="#453d83"/><path d="m256 247c-31.705 0-57.5-25.795-57.5-57.5s25.795-57.5 57.5-57.5 57.5 25.795 57.5 57.5-25.795 57.5-57.5 57.5z" fill="#ffe4c2"/><path d="m256 132v115c31.706 0 57.5-25.794 57.5-57.5s-25.794-57.5-57.5-57.5z" fill="#f2d1a5"/></g></g></g></g></g></g><path d="m436.312 437.312c48.164-48.163 74.688-112.199 74.688-180.312 0-8.284-6.716-15-15-15h-90c-8.284 0-15 6.716-15 15 0 74.439-60.561 135-135 135v120c68.113 0 132.149-26.524 180.312-74.688zm-15.988-165.312h60.182c-1.99 30.065-9.925 58.528-22.616 84.241l-52.101-30.081c7.757-16.736 12.799-34.977 14.535-54.16zm-29.577 80.116 52.105 30.083c-16.354 24.327-37.323 45.302-61.65 61.656l-30.085-52.109c15.348-10.865 28.764-24.282 39.63-39.63zm-119.747 69.2c19.182-1.737 37.424-6.771 54.159-14.528l30.086 52.11c-25.712 12.691-54.181 20.605-84.245 22.594z" fill="#9ee2f8"/></g></svg>