<svg id="Capa_1" enable-background="new 0 0 512 512" height="512" viewBox="0 0 512 512" width="512" xmlns="http://www.w3.org/2000/svg"><g><g><path d="m302 362h60v-15c0-41.421 33.579-75 75-75 41.421 0 75 33.579 75 75v150c0 8.284-6.716 15-15 15h-85c-8.284 0-50-6.716-50-15v-75h-60c-16.569 0-30-13.431-30-30 0-16.569 13.431-30 30-30z" fill="#5f55af"/><path d="m437 272v240h60c8.284 0 15-6.716 15-15v-150c0-41.421-33.579-75-75-75z" fill="#453d83"/><path d="m210 362h-60v-15c0-41.421-33.579-75-75-75-41.421 0-75 33.579-75 75v150c0 8.284 6.716 15 15 15h85c8.284 0 50-6.716 50-15v-75h60c16.569 0 30-13.431 30-30 0-16.569-13.431-30-30-30z" fill="#5f55af"/><path d="m210 362h-60v-15c0-41.421-33.579-75-75-75-41.421 0-75 33.579-75 75v150c0 8.284 6.716 15 15 15h85c8.284 0 50-6.716 50-15v-75h60c16.569 0 30-13.431 30-30 0-16.569-13.431-30-30-30z" fill="#5f55af"/><g><path d="m210 362h-60v-15c0-41.421-33.579-75-75-75v240h25c8.284 0 50-6.716 50-15v-75h60c16.569 0 30-13.431 30-30 0-16.569-13.431-30-30-30z" fill="#453d83"/></g><path d="m437 397v-20c0-8.284 6.716-15 15-15 8.284 0 15 6.716 15 15v20c0 30.376-24.624 55-55 55h-50v-30h50c13.807 0 25-11.193 25-25z" fill="#453d83"/><path d="m452 362c-8.284 0-15 6.716-15 15v20 48.985c17.804-9.105 30-27.615 30-48.985v-20c0-8.284-6.716-15-15-15z" fill="#2d2755"/><g><path d="m316.002 190c-3.345 0-6.66-1.117-9.372-3.287l-45.892-36.713h-9.477l-45.892 36.713c-4.504 3.604-10.671 4.305-15.868 1.807-5.195-2.499-8.501-7.754-8.501-13.52v-25h-5c-19.299 0-35-15.701-35-35v-80c0-19.299 15.701-35 35-35h160c19.299 0 35 15.701 35 35v80c0 19.299-15.701 35-35 35h-5v25c0 5.766-3.306 11.021-8.502 13.52-2.066.993-4.288 1.48-6.496 1.48z" fill="#beebfa"/><path d="m336 0h-80v150h4.738l45.892 36.713c4.514 3.615 10.698 4.295 15.868 1.807 5.196-2.498 8.502-7.754 8.502-13.52v-25h5c19.299 0 35-15.701 35-35v-80c0-19.299-15.701-35-35-35z" fill="#9ee2f8"/><path d="m296 90h-80c-8.284 0-15-6.716-15-15s6.716-15 15-15h80c8.284 0 15 6.716 15 15s-6.716 15-15 15z" fill="#9ee2f8"/><path d="m296 60h-40v30h40c8.284 0 15-6.716 15-15s-6.716-15-15-15z" fill="#87c0ed"/></g><path d="m75 397v-20c0-8.284-6.716-15-15-15-8.284 0-15 6.716-15 15v20c0 30.376 24.624 55 55 55h50v-30h-50c-13.807 0-25-11.193-25-25z" fill="#453d83"/><path d="m75 397v48.985c7.503 3.837 15.994 6.015 25 6.015h50v-30h-50c-13.807 0-25-11.193-25-25z" fill="#2d2755"/><path d="m412 512h-312v-90h312z" fill="#fff79f"/><path d="m412 512h-156v-90h156z" fill="#ffde55"/><g fill="#ffe4c2"><path d="m102.5 287c-34.463 0-62.5-28.037-62.5-62.5s28.037-62.5 62.5-62.5 62.5 28.037 62.5 62.5-28.037 62.5-62.5 62.5z"/><path d="m347 224.5c0-34.463 28.037-62.5 62.5-62.5s62.5 28.037 62.5 62.5-28.037 62.5-62.5 62.5-62.5-28.037-62.5-62.5z"/></g></g><g fill="#f2d1a5"><path d="m102.5 162v125c34.463 0 62.5-28.037 62.5-62.5s-28.037-62.5-62.5-62.5z"/><path d="m409.5 162v125c34.463 0 62.5-28.037 62.5-62.5s-28.037-62.5-62.5-62.5z"/></g></g></svg>