<svg id="Capa_1" enable-background="new 0 0 512 512" height="512" viewBox="0 0 512 512" width="512" xmlns="http://www.w3.org/2000/svg"><g><path d="m15 15h482v400h-482z" fill="#999fed"/><path d="m256 15h241v400h-241z" fill="#7c84e8"/><path d="m255.997 260c-1.932 0-3.881-.374-5.737-1.142-5.605-2.322-9.26-7.792-9.26-13.858v-150c0-19.299 15.701-35 35-35h140c19.299 0 35 15.701 35 35v80c0 19.299-15.701 35-35 35h-103.787l-45.606 45.606c-2.87 2.87-6.707 4.394-10.61 4.394z" fill="#ff9f22"/><path d="m416 60h-140c-7.432 0-14.326 2.336-20 6.302v193.698c3.903-.001 7.738-1.525 10.606-4.394l45.607-45.606h103.787c19.299 0 35-15.701 35-35v-80c0-19.299-15.701-35-35-35z" fill="#ff7c48"/><path d="m376 150h-60c-8.284 0-15-6.716-15-15s6.716-15 15-15h60c8.284 0 15 6.716 15 15s-6.716 15-15 15z" fill="#ff4c04"/><path d="m226 380h-160c-8.284 0-15-6.716-15-15v-8.789c0-52.302 41.763-95.7 94.063-96.207 52.811-.511 95.937 42.301 95.937 94.996v10c0 8.284-6.716 15-15 15z" fill="#5f55af"/><path d="m146 260.007v119.993h80c8.284 0 15-6.716 15-15v-10c0-52.383-42.617-94.992-95-94.993z" fill="#453d83"/><path d="m146 285c-31.705 0-57.5-25.795-57.5-57.5s25.795-57.5 57.5-57.5 57.5 25.795 57.5 57.5-25.795 57.5-57.5 57.5z" fill="#ffe4c2"/><path d="m146 170v115c31.706 0 57.5-25.794 57.5-57.5s-25.794-57.5-57.5-57.5z" fill="#f2d1a5"/><path d="m327.781 400h-143.562l-23.659 97h190.88z" fill="#9ee2f8"/><path d="m256 497h95.44l-23.659-97h-71.781z" fill="#87c0ed"/><path d="m366 512h-220c-8.284 0-15-6.716-15-15s6.716-15 15-15h220c8.284 0 15 6.716 15 15s-6.716 15-15 15z" fill="#beebfa"/><path d="m381 497c0-8.284-6.716-15-15-15h-110v30h110c8.284 0 15-6.716 15-15z" fill="#9ee2f8"/><path d="m497 0h-482c-8.284 0-15 6.716-15 15v400c0 8.284 6.716 15 15 15h482c8.284 0 15-6.716 15-15v-400c0-8.284-6.716-15-15-15zm-467 355v-325h452v325z" fill="#beebfa"/><path d="m497 0h-241v30h226v325h-226v75h241c8.284 0 15-6.716 15-15v-400c0-8.284-6.716-15-15-15z" fill="#9ee2f8"/></g></svg>