<svg id="Capa_1" enable-background="new 0 0 512 512" height="512" viewBox="0 0 512 512" width="512" xmlns="http://www.w3.org/2000/svg"><g><path d="m256 512c-1.452 0-2.904-.211-4.31-.633-61.357-18.407-114.001-55.302-152.239-106.696-38.239-51.393-58.451-112.418-58.451-176.477v-173.194c0-6.134 3.734-11.649 9.429-13.927 68.135-27.254 137.299-41.073 205.571-41.073s137.437 13.819 205.571 41.073c5.695 2.278 9.429 7.793 9.429 13.927v173.194c0 64.059-20.212 125.084-58.45 176.478-38.239 51.394-90.882 88.289-152.239 106.696-1.407.421-2.859.632-4.311.632z" fill="#beebfa"/><path d="m412.55 404.671c38.238-51.393 58.45-112.418 58.45-176.477v-173.194c0-6.134-3.734-11.649-9.429-13.927-68.134-27.254-137.299-41.073-205.571-41.073v512c1.452 0 2.904-.211 4.311-.633 61.357-18.407 114-55.302 152.239-106.696z" fill="#9ee2f8"/><path d="m256 453.953c-1.807 0-3.613-.326-5.33-.979-45.844-17.428-84.672-47.782-112.286-87.78-27.728-40.164-42.384-87.537-42.384-136.998v-134.627c0-6.508 4.196-12.273 10.389-14.274 49.903-16.121 100.239-24.295 149.611-24.295s99.708 8.174 149.611 24.295c6.193 2.001 10.389 7.767 10.389 14.274v134.627c0 49.461-14.656 96.834-42.384 136.998-27.614 39.999-66.441 70.353-112.286 87.78-1.717.653-3.523.979-5.33.979z" fill="#9ee2f8"/><path d="m261.33 452.974c45.845-17.428 84.672-47.782 112.286-87.78 27.728-40.164 42.384-87.537 42.384-136.998v-134.627c0-6.508-4.196-12.273-10.389-14.274-49.903-16.121-100.239-24.295-149.611-24.295v398.953c1.807 0 3.613-.326 5.33-.979z" fill="#87c0ed"/><g><g><path d="m336 322h-160c-8.284 0-15-6.716-15-15v-8.789c0-52.302 41.763-95.7 94.063-96.207 52.811-.511 95.937 42.301 95.937 94.996v10c0 8.284-6.716 15-15 15z" fill="#5f55af"/><path d="m256 202.007v119.993h80c8.284 0 15-6.716 15-15v-10c0-52.383-42.617-94.992-95-94.993z" fill="#453d83"/><path d="m256 227c-31.705 0-57.5-25.795-57.5-57.5s25.795-57.5 57.5-57.5 57.5 25.795 57.5 57.5-25.795 57.5-57.5 57.5z" fill="#ffe4c2"/><path d="m256 112v115c31.706 0 57.5-25.794 57.5-57.5s-25.794-57.5-57.5-57.5z" fill="#f2d1a5"/></g></g></g></svg>