<svg id="Capa_1" enable-background="new 0 0 512 512" height="512" viewBox="0 0 512 512" width="512" xmlns="http://www.w3.org/2000/svg"><g><path d="m476 512h-440c-8.284 0-15-6.716-15-15v-400c0-6.624 4.345-12.464 10.69-14.367l100-30c1.398-.42 2.85-.633 4.31-.633h240c1.46 0 2.912.213 4.31.633l100 30c6.345 1.903 10.69 7.743 10.69 14.367v400c0 8.284-6.716 15-15 15z" fill="#9ee2f8"/><path d="m491 497v-400c0-6.624-4.345-12.464-10.69-14.367l-100-30c-1.398-.42-2.85-.633-4.31-.633h-120v460h220c8.284 0 15-6.716 15-15z" fill="#87c0ed"/><path d="m291.657 194.5c0 8.284-6.716 15-15 15h-41.314c-8.284 0-15-6.716-15-15l-19.043-66.651 14.423-4.12 80.841-1 14.423 4.12z" fill="#ff9f22"/><path d="m256 123.23v86.27h20.657c8.284 0 15-6.716 15-15l19.329-67.651-14.423-4.12z" fill="#ff7c48"/><path d="m196.831 381.169-7.794 61.875c-.579 4.597.999 9.205 4.276 12.481l7.081 7.08h111.046v-111.045l-9.509-75.491-11.931-27.069 2.423-48.423-.766-6.077h-71.314l-11.263 89.42.92 44.08z" fill="#5f55af"/><path d="m290 249 2.423-48.423-.766-6.077h-35.657v268.106h55.44v-111.046l-9.509-75.491z" fill="#453d83"/><path d="m292.423 200.577-83.343 83.343-12.249 97.249 105.1-105.1z" fill="#ff9f22"/><path d="m311.44 351.56-111.047 111.046 45 45c5.858 5.858 15.355 5.858 21.213 0l52.081-52.08c3.277-3.277 4.855-7.884 4.276-12.481z" fill="#ff9f22"/><path d="m311.44 351.56-55.44 55.44v105c3.839 0 7.678-1.465 10.607-4.394l52.081-52.08c3.277-3.277 4.855-7.884 4.276-12.481z" fill="#ff7c48"/><path d="m256 322 45.931-45.931-9.508-75.492-36.423 36.423z" fill="#ff7c48"/><path d="m386.862 46.655-40-42h-181.724l-40 42c-3.741 3.929-5.07 9.571-3.474 14.756l40 130c1.495 4.858 5.348 8.629 10.238 10.019 4.89 1.386 10.151.207 13.976-3.141l70.122-61.357 70.123 61.357c3.831 3.36 9.132 4.523 13.976 3.141 4.89-1.39 8.744-5.16 10.238-10.019l40-130c1.595-5.184.267-10.827-3.475-14.756z" fill="#beebfa"/><path d="m336 0h-160c-4.105 0-8.031 1.683-10.862 4.655l90.862 132.277 90.862-132.277c-2.831-2.972-6.757-4.655-10.862-4.655z" fill="#9ee2f8"/><path d="m346.862 4.655h-90.862v132.276l70.123 61.357c3.831 3.36 9.132 4.523 13.976 3.141 4.89-1.39 8.744-5.16 10.238-10.019l40-130c1.596-5.185.267-10.827-3.474-14.756z" fill="#9ee2f8"/><path d="m346.862 4.655c-2.831-2.972-6.757-4.655-10.862-4.655h-80v136.932z" fill="#87c0ed"/></g></svg>