<svg id="Capa_1" enable-background="new 0 0 512 512" height="512" viewBox="0 0 512 512" width="512" xmlns="http://www.w3.org/2000/svg"><g><g><g><g><path d="m315 0h-300c-8.284 0-15 6.716-15 15v482c0 8.284 6.716 15 15 15h360c8.284 0 15-6.716 15-15v-422z" fill="#beebfa"/><path d="m195 0v512h180c8.284 0 15-6.716 15-15v-422l-75-75z" fill="#9ee2f8"/></g><path d="m315 0v60c0 8.284 6.716 15 15 15h60c0-41.355-33.645-75-75-75z" fill="#87c0ed"/></g></g><path d="m233.457 451h-78.457c-8.284 0-15-6.716-15-15s6.716-15 15-15h78.457c8.284 0 15 6.716 15 15s-6.716 15-15 15z" fill="#5f55af"/><path d="m195 451h38.457c8.284 0 15-6.716 15-15s-6.716-15-15-15h-38.457z" fill="#453d83"/><g><g><g><g><g><g><path d="m235 271h-160c-8.284 0-15-6.716-15-15v-8.789c0-52.302 41.763-95.7 94.063-96.207 52.811-.511 95.937 42.301 95.937 94.996v10c0 8.284-6.716 15-15 15z" fill="#5f55af"/><path d="m155 151.007v119.993h80c8.284 0 15-6.716 15-15v-10c0-52.383-42.617-94.992-95-94.993z" fill="#453d83"/><path d="m155 176c-31.705 0-57.5-25.795-57.5-57.5s25.795-57.5 57.5-57.5 57.5 25.795 57.5 57.5-25.795 57.5-57.5 57.5z" fill="#ffe4c2"/><path d="m155 61v115c31.706 0 57.5-25.794 57.5-57.5s-25.794-57.5-57.5-57.5z" fill="#f2d1a5"/></g></g></g></g></g></g><g><path d="m195 331h-120c-8.284 0-15-6.716-15-15s6.716-15 15-15h120c8.284 0 15 6.716 15 15s-6.716 15-15 15z" fill="#9ee2f8"/></g><g><path d="m195 391h-120c-8.284 0-15-6.716-15-15s6.716-15 15-15h120c8.284 0 15 6.716 15 15s-6.716 15-15 15z" fill="#9ee2f8"/></g><path d="m315 161h-40c-8.284 0-15-6.716-15-15s6.716-15 15-15h40c8.284 0 15 6.716 15 15s-6.716 15-15 15z" fill="#87c0ed"/><path d="m315 221h-40c-8.284 0-15-6.716-15-15s6.716-15 15-15h40c8.284 0 15 6.716 15 15s-6.716 15-15 15z" fill="#87c0ed"/><g><path d="m475.47 240.923-30.642-25.712c-6.346-5.325-7.174-14.786-1.849-21.132s14.786-7.174 21.132-1.849l30.642 25.712c6.346 5.325 7.174 14.786 1.849 21.132-5.325 6.347-14.786 7.174-21.132 1.849z" fill="#453d83"/><path d="m468.074 156.394c-6.346-5.325-7.174-14.786-1.849-21.132l19.284-22.981c5.325-6.346 14.786-7.174 21.132-1.849s7.174 14.786 1.849 21.132l-19.284 22.981c-5.324 6.346-14.785 7.174-21.132 1.849z" fill="#5f55af"/><path d="m506.642 110.431-38.567 45.963c6.346 5.325 15.808 4.497 21.132-1.849l19.284-22.981c5.325-6.346 4.497-15.808-1.849-21.133z" fill="#453d83"/><path d="m465.961 213.363c5.325-6.346 4.497-15.807-1.849-21.132l-30.642-25.712c-6.346-5.325-15.807-4.497-21.132 1.849l-102.847 122.567c-5.325 6.346-4.497 15.807 1.849 21.132l30.642 25.711c6.346 5.325 15.807 4.497 21.132-1.849z" fill="#999fed"/><path d="m464.112 192.231-15.321-12.856-122.13 145.548 15.321 12.856c6.346 5.325 15.807 4.497 21.132-1.849l102.846-122.567c5.326-6.346 4.498-15.807-1.848-21.132z" fill="#7c84e8"/><path d="m309.491 290.935-38.567 45.963c-5.325 6.346-4.497 15.807 1.849 21.132l30.642 25.711c6.346 5.325 15.808 4.497 21.132-1.849l38.567-45.963z" fill="#fff79f"/><path d="m336.303 313.433-48.209 57.453 15.321 12.856c6.346 5.325 15.808 4.497 21.132-1.849l38.567-45.963z" fill="#ffde55"/><path d="m237.798 414.326c-1.925-22.004 4.97-43.872 19.168-60.793l13.958-16.635 53.623 44.995-13.958 16.635c-14.198 16.921-34.536 27.508-56.541 29.433-8.253.722-15.528-5.383-16.25-13.635z" fill="#999fed"/><path d="m297.736 359.396-54.637 65.113c2.941 2.468 6.823 3.813 10.949 3.452 22.004-1.925 42.343-12.513 56.541-29.433l13.958-16.635z" fill="#7c84e8"/><path d="m237.509 407.835-15.543 18.523c-5.325 6.346-4.497 15.808 1.849 21.133s15.808 4.497 21.132-1.849l15.543-18.523z" fill="#5f55af"/><path d="m249 417.477-25.185 30.014c6.346 5.325 15.808 4.497 21.132-1.849l15.543-18.523z" fill="#453d83"/><path d="m495.019 139.84-15.321-12.856c-10.577-8.875-26.346-7.495-35.221 3.081l-32.139 38.302 53.623 44.995 32.139-38.302c8.875-10.576 7.495-26.345-3.081-35.22z" fill="#7c84e8"/><path d="m498.1 175.061c8.875-10.577 7.495-26.346-3.081-35.221l-7.66-6.428-48.209 57.453 26.812 22.498z" fill="#5f69e3"/></g><g fill="#87c0ed"><path d="m210 316c0-8.284-6.716-15-15-15v30c8.284 0 15-6.716 15-15z"/><path d="m195 361v30c8.284 0 15-6.716 15-15s-6.716-15-15-15z"/></g></g></svg>