<svg id="Capa_1" enable-background="new 0 0 512 512" height="512" viewBox="0 0 512 512" width="512" xmlns="http://www.w3.org/2000/svg"><g><path d="m107 291v180c0 11.046 8.954 20 20 20h43.945c14.39 0 26.055-11.665 26.055-26.055 0-8.712-4.354-16.847-11.603-21.679l-18.397-12.266v-140" fill="#453d83"/><path d="m411.427 150.432c-14.236-18.98-33.564-29.432-54.427-29.432v190c20.863 0 40.191-10.452 54.427-29.432 13.266-17.689 20.573-40.975 20.573-65.568s-7.307-47.879-20.573-65.568z" fill="#ff9f22"/><path d="m357 311c20.863 0 40.191-10.452 54.427-29.432 13.266-17.689 20.573-40.975 20.573-65.568h-75z" fill="#ff7c48"/><path d="m497 231h-30c-8.284 0-15-6.716-15-15 0-8.284 6.716-15 15-15h30c8.284 0 15 6.716 15 15 0 8.284-6.716 15-15 15z" fill="#5f55af"/><path d="m444.01 148.5c-4.142-7.174-1.684-16.348 5.49-20.49l25.98-15c7.174-4.142 16.348-1.684 20.49 5.49 4.142 7.174 1.684 16.348-5.49 20.49l-25.98 15c-7.174 4.142-16.348 1.684-20.49-5.49z" fill="#5f55af"/><path d="m475.48 318.99-25.98-15c-7.174-4.142-9.632-13.316-5.49-20.49 4.142-7.174 13.316-9.632 20.49-5.49l25.98 15c7.174 4.142 9.632 13.316 5.49 20.49-4.141 7.174-13.315 9.632-20.49 5.49z" fill="#453d83"/><path d="m452 216c0 8.284 6.716 15 15 15h30c8.284 0 15-6.716 15-15z" fill="#453d83"/><path d="m67 281h-32c-19.33 0-35-15.67-35-35v-60c0-19.33 15.67-35 35-35h32c8.284 0 15 6.716 15 15v100c0 8.284-6.716 15-15 15z" fill="#beebfa"/><path d="m0 216v30c0 19.33 15.67 35 35 35h32c8.284 0 15-6.716 15-15v-50z" fill="#9ee2f8"/><path d="m144.565 121v190l152.435 50.812h15v-291.624h-15z" fill="#beebfa"/><path d="m144.565 216v95l152.435 50.812h15v-145.812z" fill="#9ee2f8"/><path d="m297 70.188v291.624l60 20v-331.624z" fill="#5f55af"/><path d="m297 216v145.812l60 20v-165.812z" fill="#453d83"/><path d="m147 121h-50c-24.813 0-45 20.187-45 45v.833l15 15-15 15v38.333l15 15-15 15v.834c0 24.813 20.187 45 45 45h50c8.284 0 15-6.716 15-15v-160c0-8.284-6.716-15-15-15z" fill="#ff9f22"/><path d="m52 216v19.167l15 15-15 15v.833c0 24.813 20.187 45 45 45h50c8.284 0 15-6.716 15-15v-80z" fill="#ff7c48"/><path d="m112 181.833c0-8.284-6.716-15-15-15h-45v30h45c8.284 0 15-6.715 15-15z" fill="#ff7c48"/><path d="m112 250.167c0-8.284-6.716-15-15-15h-45v30h45c8.284 0 15-6.716 15-15z" fill="#ff4c04"/><path d="m357 411c-8.284 0-15-6.716-15-15v-360c0-8.284 6.716-15 15-15s15 6.716 15 15v360c0 8.284-6.716 15-15 15z" fill="#beebfa"/><path d="m342 216v180c0 8.284 6.716 15 15 15s15-6.716 15-15v-180z" fill="#9ee2f8"/></g></svg>