<svg id="Capa_1" enable-background="new 0 0 512 512" height="512" viewBox="0 0 512 512" width="512" xmlns="http://www.w3.org/2000/svg"><g><path d="m8.787 503.213c11.716 11.716 30.711 11.716 42.426 0l42.855-42.855c5.858-5.858 5.858-15.355 0-21.213l-21.213-21.213c-5.858-5.858-15.355-5.858-21.213 0l-42.855 42.855c-11.716 11.716-11.716 30.71 0 42.426z" fill="#beebfa"/><path d="m94.068 460.358c5.858-5.858 5.858-15.355 0-21.213l-10.607-10.607-74.674 74.675c11.716 11.716 30.711 11.716 42.426 0z" fill="#9ee2f8"/><path d="m124.525 318.071h108.808v30h-108.808z" fill="#9ee2f8" transform="matrix(.707 -.707 .707 .707 -183.11 224.076)"/><path d="m129.828 330.874h108.808v15h-108.808z" fill="#87c0ed" transform="matrix(.707 -.707 .707 .707 -185.306 229.38)"/><circle cx="327" cy="185" fill="#999fed" r="170"/><path d="m327 355c93.888 0 170-76.112 170-170 0-46.944-19.028-89.444-49.792-120.208l-240.416 240.416c30.764 30.764 73.264 49.792 120.208 49.792z" fill="#7c84e8"/><path d="m327 370c-102.009 0-185-82.991-185-185s82.991-185 185-185 185 82.991 185 185-82.991 185-185 185zm0-340c-85.467 0-155 69.533-155 155s69.533 155 155 155 155-69.533 155-155-69.533-155-155-155z" fill="#beebfa"/><path d="m436.55 75.45c28.067 28.066 45.45 66.816 45.45 109.55 0 85.467-69.533 155-155 155-42.734 0-81.484-17.383-109.55-45.45l-21.203 21.203c33.498 33.499 79.748 54.247 130.753 54.247 102.009 0 185-82.991 185-185 0-51.005-20.748-97.255-54.247-130.753z" fill="#9ee2f8"/><path d="m161.673 371.541-21.213-21.213c-5.858-5.858-15.355-5.858-21.213 0l-67.604 67.604 42.426 42.426 67.604-67.604c5.858-5.858 5.858-15.356 0-21.213z" fill="#ff9f22"/><path d="m94.069 460.358 67.604-67.604c5.858-5.858 5.858-15.355 0-21.213l-10.607-10.607-78.211 78.211z" fill="#ff7c48"/><g><path d="m212 175v60c0 19.33 15.67 35 35 35h160c19.33 0 35-15.67 35-35v-60c0-8.284-6.716-15-15-15h-200c-8.284 0-15 6.716-15 15z" fill="#ff7c48"/><path d="m427 160h-100v110h80c19.33 0 35-15.67 35-35v-60c0-8.284-6.716-15-15-15z" fill="#ff4c04"/><g><path d="m387 210c-8.284 0-15-6.716-15-15v-35h30v35c0 8.284-6.716 15-15 15z" fill="#ffde55"/><path d="m267 210c-8.284 0-15-6.716-15-15v-35h30v35c0 8.284-6.716 15-15 15z" fill="#fff79f"/></g><path d="m367 140c-8.284 0-15-6.716-15-15v-30c0-2.757-2.243-5-5-5h-40c-2.757 0-5 2.243-5 5v30c0 8.284-6.716 15-15 15s-15-6.716-15-15v-30c0-19.299 15.701-35 35-35h40c19.299 0 35 15.701 35 35v30c0 8.284-6.716 15-15 15z" fill="#5f55af"/><path d="m352 95v30c0 8.284 6.716 15 15 15s15-6.716 15-15v-30c0-19.299-15.701-35-35-35h-20v30h20c2.757 0 5 2.243 5 5z" fill="#453d83"/><path d="m442 145c0-19.299-15.701-35-35-35h-160c-19.299 0-35 15.701-35 35v30h230z" fill="#ff9f22"/><path d="m442 145c0-19.299-15.701-35-35-35h-80v65h115z" fill="#ff7c48"/></g></g></svg>