<svg id="Capa_1" enable-background="new 0 0 512 512" height="512" viewBox="0 0 512 512" width="512" xmlns="http://www.w3.org/2000/svg"><g><path d="m322 185v90c0 8.284 6.716 15 15 15h25v207h110v-207h25c8.284 0 15-6.716 15-15v-90c0-52.467-42.533-95-95-95-52.467 0-95 42.533-95 95z" fill="#5f55af"/><path d="m417 90v407h55v-207h25c8.284 0 15-6.716 15-15v-90c0-52.467-42.533-95-95-95z" fill="#453d83"/><path d="m82.5 497h-67.5c-8.284 0-15-6.716-15-15v-97c0-8.284 6.716-15 15-15h67.5z" fill="#ff9f22"/><path d="m150 497h-82.5v-192c0-8.284 6.716-15 15-15h67.5z" fill="#ff7c48"/><path d="m217.5 497h-82.5v-272c0-8.284 6.716-15 15-15h67.5z" fill="#ff4c04"/><path d="m291.332 116.214-43.693-50.976c-5.987-6.984-16.791-6.984-22.778 0l-43.693 50.976c-8.34 9.73-1.426 24.762 11.389 24.762h9.943v356.024h67.5v-356.024h9.943c12.816 0 19.729-15.032 11.389-24.762z" fill="#d6fc7e"/><path d="m417 115c-31.705 0-57.5-25.795-57.5-57.5s25.795-57.5 57.5-57.5 57.5 25.795 57.5 57.5-25.795 57.5-57.5 57.5z" fill="#ffe4c2"/><path d="m291.332 116.214-43.693-50.976c-2.993-3.492-7.191-5.238-11.389-5.238v437h33.75v-356.024h9.943c12.816 0 19.729-15.032 11.389-24.762z" fill="#b2fa09"/><path d="m497 482h-497v15c0 8.284 6.716 15 15 15h482c8.284 0 15-6.716 15-15s-6.716-15-15-15z" fill="#5f55af"/><g><path d="m497 482h-260.75v30h260.75c8.284 0 15-6.716 15-15s-6.716-15-15-15z" fill="#453d83"/></g><path d="m417 0v115c31.706 0 57.5-25.794 57.5-57.5s-25.794-57.5-57.5-57.5z" fill="#f2d1a5"/></g></svg>