<svg id="Capa_1" enable-background="new 0 0 512 512" height="512" viewBox="0 0 512 512" width="512" xmlns="http://www.w3.org/2000/svg"><g><g><path d="m15 95h482v320h-482z" fill="#5f55af"/><path d="m256 95h241v320h-241z" fill="#453d83"/><path d="m327.781 400h-143.562l-23.659 97h190.88z" fill="#7c84e8"/><path d="m256 497h95.44l-23.659-97h-71.781z" fill="#5f69e3"/><path d="m366 512h-220c-8.284 0-15-6.716-15-15s6.716-15 15-15h220c8.284 0 15 6.716 15 15s-6.716 15-15 15z" fill="#999fed"/><path d="m381 497c0-8.284-6.716-15-15-15h-110v30h110c8.284 0 15-6.716 15-15z" fill="#7c84e8"/><g><path d="m497 80h-482c-8.284 0-15 6.716-15 15v320c0 8.284 6.716 15 15 15h482c8.284 0 15-6.716 15-15v-320c0-8.284-6.716-15-15-15zm-467 275v-245h452v245z" fill="#999fed"/><path d="m497 80h-241v30h226v245h-226v75h241c8.284 0 15-6.716 15-15v-320c0-8.284-6.716-15-15-15z" fill="#7c84e8"/></g></g><g><path d="m376 0h-300c-8.284 0-15 6.716-15 15v355h390v-295z" fill="#beebfa"/><path d="m256 370h195v-295l-75-75h-120z" fill="#9ee2f8"/><path d="m376 0v60c0 8.284 6.716 15 15 15h60c0-41.421-33.579-75-75-75z" fill="#87c0ed"/></g><path d="m30 355h452l15 75h-482z" fill="#999fed"/><path d="m482 355h-226v75h241" fill="#7c84e8"/><g fill="#87c0ed"><path d="m386 135h-40c-8.284 0-15-6.716-15-15s6.716-15 15-15h40c8.284 0 15 6.716 15 15s-6.716 15-15 15z"/><path d="m386 195h-40c-8.284 0-15-6.716-15-15s6.716-15 15-15h40c8.284 0 15 6.716 15 15s-6.716 15-15 15z"/><path d="m386 255h-40c-8.284 0-15-6.716-15-15s6.716-15 15-15h40c8.284 0 15 6.716 15 15s-6.716 15-15 15z"/></g><path d="m386 315h-260c-8.284 0-15-6.716-15-15s6.716-15 15-15h260c8.284 0 15 6.716 15 15s-6.716 15-15 15z" fill="#9ee2f8"/><path d="m256 315h130c8.284 0 15-6.716 15-15s-6.716-15-15-15h-130z" fill="#87c0ed"/><g><g><g><g><g><g><g><path d="m121 240c0 8.284 6.716 15 15 15h160c8.284 0 15-6.716 15-15 0-52.467-42.533-95-95-95-52.467 0-95 42.533-95 95z" fill="#5f55af"/><path d="m216 255h80c8.284 0 15-6.716 15-15 0-52.467-42.533-95-95-95z" fill="#453d83"/><path d="m216 170c-31.705 0-57.5-25.795-57.5-57.5s25.795-57.5 57.5-57.5 57.5 25.795 57.5 57.5-25.795 57.5-57.5 57.5z" fill="#ffe4c2"/><path d="m216 55v115c31.706 0 57.5-25.794 57.5-57.5s-25.794-57.5-57.5-57.5z" fill="#f2d1a5"/></g></g></g></g></g></g></g></g></svg>