<svg id="Capa_1" enable-background="new 0 0 512 512" height="512" viewBox="0 0 512 512" width="512" xmlns="http://www.w3.org/2000/svg"><g><g><path d="m386 512h-260c-8.284 0-15-6.716-15-15v-29.01c0-30.877 21.976-57.683 52.253-63.738l59.806-11.961c.969-.193 1.954-.291 2.941-.291h60c.987 0 1.973.098 2.941.291l59.806 11.961c30.277 6.056 52.253 32.861 52.253 63.738v29.01c0 8.284-6.716 15-15 15z" fill="#5f55af"/><path d="m348.747 404.252-59.806-11.961c-.968-.193-1.954-.291-2.941-.291h-30v120h130c8.284 0 15-6.716 15-15v-29.01c0-30.877-21.976-57.682-52.253-63.738z" fill="#453d83"/><path d="m256 434.5c-20.711 0-37.5-16.789-37.5-37.5v-36.826c0-4.142 3.358-7.5 7.5-7.5h60c4.142 0 7.5 3.358 7.5 7.5v36.826c0 20.711-16.789 37.5-37.5 37.5z" fill="#f2d1a5"/><path d="m256 434.5c20.711 0 37.5-16.789 37.5-37.5v-36.826c0-4.142-3.358-7.5-7.5-7.5h-30z" fill="#f2bb88"/><path d="m256 382c-46.869 0-85-38.131-85-85v-50c0-8.284 6.716-15 15-15h140c8.284 0 15 11.716 15 20v45c0 46.869-38.131 85-85 85z" fill="#ffe4c2"/><path d="m341 297v-45c0-8.284-6.716-20-15-20h-70v150c46.869 0 85-38.131 85-85z" fill="#f2d1a5"/><path d="m296 172h-95c-33.084 0-60 26.916-60 60s26.916 60 60 60h5c8.284 0 15-6.716 15-15v-25h120v-35c0-24.813-20.186-45-45-45z" fill="#ff9f22"/><path d="m341 217c0-24.813-20.187-45-45-45h-40v80h85z" fill="#ff7c48"/></g><g><path d="m288.01 148.277-32.01-16.829-32.01 16.829c-11.004 5.785-23.866-3.559-21.764-15.813l6.113-35.644-25.897-25.243c-8.903-8.678-3.99-23.798 8.313-25.585l35.789-5.2 16.005-32.43c5.502-11.149 21.4-11.149 26.902 0l16.005 32.43 35.789 5.2c12.303 1.788 17.216 16.907 8.313 25.585l-25.897 25.243 6.113 35.644c2.102 12.254-10.759 21.599-21.764 15.813z" fill="#fff79f"/><path d="m309.774 132.465-6.113-35.644 25.897-25.243c8.903-8.678 3.99-23.798-8.313-25.585l-35.789-5.2-16.005-32.43c-2.751-5.576-8.101-8.363-13.451-8.363v131.448l32.01 16.829c11.005 5.786 23.866-3.559 21.764-15.812z" fill="#ffde55"/></g><g><path d="m465.907 208.244-32.011-16.829-32.01 16.829c-11.004 5.785-23.866-3.559-21.764-15.813l6.113-35.644-25.897-25.243c-8.903-8.678-3.99-23.798 8.313-25.585l35.788-5.2 16.005-32.43c5.502-11.149 21.4-11.149 26.902 0l16.005 32.43 35.789 5.2c12.303 1.788 17.216 16.907 8.313 25.585l-25.897 25.243 6.114 35.644c2.103 12.254-10.759 21.598-21.763 15.813z" fill="#fff79f"/><path d="m499.141 105.676-35.789-5.214-16.005-32.518c-2.751-5.59-8.101-8.384-13.451-8.384v131.804l32.01 16.874c11.004 5.801 23.866-3.569 21.764-15.855l-6.113-35.741 25.897-25.311c8.903-8.701 3.99-23.862-8.313-25.655z" fill="#ffde55"/></g><g><path d="m110.114 208.244-32.01-16.829-32.01 16.829c-11.004 5.785-23.866-3.559-21.764-15.813l6.113-35.644-25.897-25.243c-8.903-8.678-3.99-23.798 8.313-25.585l35.789-5.2 16.005-32.43c5.502-11.149 21.4-11.149 26.902 0l16.005 32.43 35.789 5.2c12.303 1.788 17.216 16.907 8.313 25.585l-25.897 25.243 6.113 35.644c2.102 12.254-10.759 21.598-21.764 15.813z" fill="#fff79f"/><path d="m110.114 208.244c11.004 5.785 23.866-3.559 21.764-15.813l-6.113-35.644 25.897-25.243c8.903-8.678 3.99-23.798-8.313-25.585l-35.789-5.2-16.005-32.43c-2.751-5.574-8.101-8.362-13.451-8.362v131.448z" fill="#ffde55"/></g></g></svg>