<svg id="Capa_1" enable-background="new 0 0 512 512" height="512" viewBox="0 0 512 512" width="512" xmlns="http://www.w3.org/2000/svg"><g><path d="m385.873 424.077-83.355-48.125 33.75-58.457 83.355 48.125c16.142 9.32 21.673 29.961 12.353 46.103-9.32 16.143-29.961 21.674-46.103 12.354z" fill="#f2d1a5"/><path d="m326.142 467.534-57.374-33.125 33.75-58.457 57.374 33.125c16.142 9.32 21.673 29.961 12.353 46.103-9.32 16.143-29.961 21.674-46.103 12.354z" fill="#f2d1a5"/><path d="m98.138 146.082 150.213-86.724c14.178-8.186 31.121-9.64 46.486-3.989l49.124 18.069 54.537-31.487c7.138-4.121 16.265-1.711 20.437 5.398l91.001 155.062c3.732 6.359 2.289 14.487-3.403 19.173l-52.101 42.891-194.949-112.553z" fill="#b46e5a"/><g><path d="m321.044 464.591-74.917-43.253-.892-.715-153.534-123.086-84.199-48.612c-7.016-4.051-9.548-12.941-5.719-20.08l85.123-158.701c4.003-7.462 13.385-10.134 20.719-5.9l71.447 41.25 90 17.321 186.973 107.949z" fill="#ffe4c2"/></g><path d="m1.784 228.845c-3.829 7.139-1.298 16.03 5.719 20.08l84.198 48.612 153.534 123.085.892.715 74.917 43.253 67.5-116.914-343.977-198.595z" fill="#f2d1a5"/><path d="m453.373 307.163-83.355-48.125 33.75-58.457 83.355 48.125c16.142 9.32 21.673 29.961 12.353 46.103-9.319 16.143-29.961 21.674-46.103 12.354z" fill="#ffe4c2"/><path d="m436.943 375.62-100.675-58.125 33.75-58.457 100.675 58.125c16.142 9.32 21.673 29.961 12.353 46.103-9.319 16.143-29.96 21.674-46.103 12.354z" fill="#ffe4c2"/><path d="m303.05 114.379-115.723 66.813c-17.936 10.355-40.871 4.21-51.226-13.726-10.355-17.936-4.21-40.871 13.726-51.226l98.524-56.883c14.179-8.186 31.122-9.64 46.486-3.987" fill="#b46e5a"/><g><path d="m147.982 421.113c-16.142-9.32-21.673-29.961-12.353-46.103l36.25-62.787c9.32-16.142 29.961-21.673 46.103-12.353 16.142 9.32 21.673 29.961 12.353 46.103l-36.25 62.787c-9.32 16.142-29.961 21.672-46.103 12.353z" fill="#a65d4e"/><path d="m206.438 454.863c-16.142-9.32-21.673-29.961-12.353-46.103l26.25-45.466c9.32-16.142 29.961-21.673 46.103-12.353 16.142 9.32 21.673 29.961 12.353 46.103l-26.25 45.466c-9.319 16.142-29.96 21.672-46.103 12.353z" fill="#a65d4e"/><g fill="#b46e5a"><path d="m31.068 353.613c-16.142-9.32-21.673-29.961-12.353-46.103l36.25-62.787c9.32-16.142 29.961-21.673 46.103-12.353 16.142 9.32 21.673 29.961 12.353 46.103l-36.25 62.787c-9.319 16.142-29.96 21.672-46.103 12.353z"/><path d="m89.525 387.363c-16.142-9.32-21.673-29.961-12.353-46.103l46.25-80.107c9.32-16.142 29.961-21.673 46.103-12.353 16.142 9.32 21.673 29.961 12.353 46.103l-46.25 80.107c-9.32 16.142-29.961 21.672-46.103 12.353z"/></g></g></g></svg>