<svg id="Capa_1" enable-background="new 0 0 512 512" height="512" viewBox="0 0 512 512" width="512" xmlns="http://www.w3.org/2000/svg"><g><path d="m31 317v180c0 8.284 6.716 15 15 15h420c8.284 0 15-6.716 15-15v-180z" fill="#9ee2f8"/><path d="m481 497v-180h-225v195h210c8.284 0 15-6.716 15-15z" fill="#87c0ed"/><path d="m389.802 270h-267.604l-13.926-167.11c-2.2-26.4 6.826-52.722 24.763-72.215 17.938-19.494 43.418-30.675 69.909-30.675h106.111c26.491 0 51.972 11.181 69.909 30.675 17.937 19.493 26.963 45.814 24.763 72.215z" fill="#ff9f22"/><path d="m389.802 270 13.926-167.11c2.2-26.4-6.826-52.722-24.763-72.215-17.938-19.494-43.418-30.675-69.909-30.675h-53.056v270z" fill="#ff7c48"/><path d="m351 270h-190v-23.789c0-52.302 41.763-95.7 94.063-96.207 52.811-.511 95.937 42.301 95.937 94.996z" fill="#5f55af"/><path d="m256 150.007v119.993h95v-25c0-52.383-42.617-94.992-95-94.993z" fill="#453d83"/><path d="m256 175c-31.705 0-57.5-25.795-57.5-57.5s25.795-57.5 57.5-57.5 57.5 25.795 57.5 57.5-25.795 57.5-57.5 57.5z" fill="#ffe4c2"/><path d="m256 60v115c31.706 0 57.5-25.794 57.5-57.5s-25.794-57.5-57.5-57.5z" fill="#f2d1a5"/><path d="m406 407h-300c-8.284 0-15-6.716-15-15s6.716-15 15-15h300c8.284 0 15 6.716 15 15s-6.716 15-15 15z" fill="#beebfa"/><path d="m406 467h-300c-8.284 0-15-6.716-15-15s6.716-15 15-15h300c8.284 0 15 6.716 15 15s-6.716 15-15 15z" fill="#beebfa"/><path d="m406 377h-150v30h150c8.284 0 15-6.716 15-15s-6.716-15-15-15z" fill="#9ee2f8"/><path d="m406 437h-150v30h150c8.284 0 15-6.716 15-15s-6.716-15-15-15z" fill="#9ee2f8"/><path d="m1 270v47c0 8.284 6.716 15 15 15h480c8.284 0 15-6.716 15-15v-47c0-8.284-6.716-15-15-15h-480c-8.284 0-15 6.716-15 15z" fill="#beebfa"/><path d="m496 255h-240v77h240c8.284 0 15-6.716 15-15v-47c0-8.284-6.716-15-15-15z" fill="#9ee2f8"/></g></svg>