<svg id="Capa_1" enable-background="new 0 0 512 512" height="512" viewBox="0 0 512 512" width="512" xmlns="http://www.w3.org/2000/svg"><g><path d="m0 177v100c0 19.33 15.67 35 35 35h442c19.33 0 35-15.67 35-35v-100c0-8.284-6.716-15-15-15h-482c-8.284 0-15 6.716-15 15z" fill="#ff9f22"/><path d="m497 162h-241v150h221c19.33 0 35-15.67 35-35v-100c0-8.284-6.716-15-15-15z" fill="#ff7c48"/><path d="m111 237v260c0 8.284 6.716 15 15 15h260c8.284 0 15-6.716 15-15v-260z" fill="#beebfa"/><path d="m256 512h130c8.284 0 15-6.716 15-15v-260h-145z" fill="#9ee2f8"/><path d="m406 252h-300c-8.284 0-15-6.716-15-15s6.716-15 15-15h300c8.284 0 15 6.716 15 15s-6.716 15-15 15z" fill="#ff7c48"/><path d="m161 437c0 8.284 6.716 15 15 15h160c8.284 0 15-6.716 15-15 0-52.467-42.533-95-95-95-52.467 0-95 42.533-95 95z" fill="#5f55af"/><path d="m256 452h80c8.284 0 15-6.716 15-15 0-52.467-42.533-95-95-95z" fill="#453d83"/><path d="m256 367c-31.705 0-57.5-25.795-57.5-57.5s25.795-57.5 57.5-57.5 57.5 25.795 57.5 57.5-25.795 57.5-57.5 57.5z" fill="#ffe4c2"/><path d="m256 252v115c31.706 0 57.5-25.794 57.5-57.5s-25.794-57.5-57.5-57.5z" fill="#f2d1a5"/><path d="m406 222h-150v30h150c8.284 0 15-6.716 15-15s-6.716-15-15-15z" fill="#ff4c04"/><path d="m512 77c0-19.299-15.701-35-35-35h-442c-19.299 0-35 15.701-35 35v100h512z" fill="#5f55af"/><path d="m477 42h-221v135h256v-100c0-19.299-15.701-35-35-35z" fill="#453d83"/><path d="m386 0h-260c-8.284 0-15 6.716-15 15v102h290v-102c0-8.284-6.716-15-15-15z" fill="#beebfa"/><path d="m386 0h-130v117h145v-102c0-8.284-6.716-15-15-15z" fill="#9ee2f8"/><path d="m406 132h-300c-8.284 0-15-6.716-15-15s6.716-15 15-15h300c8.284 0 15 6.716 15 15s-6.716 15-15 15z" fill="#453d83"/><path d="m406 102h-150v30h150c8.284 0 15-6.716 15-15s-6.716-15-15-15z" fill="#2d2755"/></g></svg>