<svg id="Capa_1" enable-background="new 0 0 512 512" height="512" viewBox="0 0 512 512" width="512" xmlns="http://www.w3.org/2000/svg"><g><path d="m416 90c-8.284 0-15-6.716-15-15v-30c0-8.271-6.729-15-15-15-8.284 0-15-6.716-15-15s6.716-15 15-15c24.813 0 45 20.187 45 45v30c0 8.284-6.716 15-15 15z" fill="#ff7c48"/><path d="m106 512h-60c-8.284 0-15-6.716-15-15v-422c0-8.284 6.716-15 15-15h120c4.347 0 8.479 1.886 11.329 5.168 2.849 3.283 4.134 7.64 3.522 11.943l-60 422c-1.052 7.395-7.382 12.889-14.851 12.889z" fill="#87c0ed"/><g><g><g><path d="m166 60h300c8.284 0 15 6.716 15 15v422c0 8.284-6.716 15-15 15h-375v-377z" fill="#beebfa"/><path d="m286 60v452h180c8.284 0 15-6.716 15-15v-422c0-8.284-6.716-15-15-15z" fill="#9ee2f8"/><g><g><path d="m406 391h-240c-8.284 0-15-6.716-15-15s6.716-15 15-15h240c8.284 0 15 6.716 15 15s-6.716 15-15 15z" fill="#9ee2f8"/></g></g><g><g><path d="m406 451h-240c-8.284 0-15-6.716-15-15s6.716-15 15-15h240c8.284 0 15 6.716 15 15s-6.716 15-15 15z" fill="#9ee2f8"/></g></g><g fill="#87c0ed"><path d="m421 376c0-8.284-6.716-15-15-15h-120v30h120c8.284 0 15-6.716 15-15z"/><path d="m421 436c0-8.284-6.716-15-15-15h-120v30h120c8.284 0 15-6.716 15-15z"/></g><g><path d="m406 331h-30c-8.284 0-15-6.716-15-15s6.716-15 15-15h30c8.284 0 15 6.716 15 15s-6.716 15-15 15z" fill="#87c0ed"/></g><g><path d="m406 271h-30c-8.284 0-15-6.716-15-15s6.716-15 15-15h30c8.284 0 15 6.716 15 15s-6.716 15-15 15z" fill="#87c0ed"/></g><path d="m166 60v60c0 8.284-6.716 15-15 15h-60c0-41.355 33.645-75 75-75z" fill="#9ee2f8"/></g></g><g><g><g><g><g><g><path d="m326 331h-160c-8.284 0-15-6.716-15-15v-8.789c0-52.302 41.763-95.7 94.063-96.207 52.811-.511 95.937 42.301 95.937 94.996v10c0 8.284-6.716 15-15 15z" fill="#5f55af"/><path d="m246 211.007v119.993h80c8.284 0 15-6.716 15-15v-10c0-52.383-42.617-94.992-95-94.993z" fill="#453d83"/><path d="m246 236c-31.705 0-57.5-25.795-57.5-57.5s25.795-57.5 57.5-57.5 57.5 25.795 57.5 57.5-25.795 57.5-57.5 57.5z" fill="#ffe4c2"/><path d="m246 121v115c31.706 0 57.5-25.794 57.5-57.5s-25.794-57.5-57.5-57.5z" fill="#f2d1a5"/></g></g></g></g></g></g></g><path d="m386 180c-24.813 0-45-20.187-45-45v-90c0-24.813 20.187-45 45-45 8.284 0 15 6.716 15 15s-6.716 15-15 15c-8.271 0-15 6.729-15 15v90c0 8.271 6.729 15 15 15s15-6.729 15-15c0-8.284 6.716-15 15-15s15 6.716 15 15c0 24.813-20.187 45-45 45z" fill="#ff7c48"/></g></svg>