<svg id="Capa_1" enable-background="new 0 0 512 512" height="512" viewBox="0 0 512 512" width="512" xmlns="http://www.w3.org/2000/svg"><g><path d="m416 472h-360c-8.284 0-15-6.716-15-15v-442c0-8.284 6.716-15 15-15h360c8.284 0 15 6.716 15 15v442c0 8.284-6.716 15-15 15z" fill="#9ee2f8"/><path d="m416 0h-180v472h180c8.284 0 15-6.716 15-15v-442c0-8.284-6.716-15-15-15z" fill="#87c0ed"/><path d="m326 412h-180c-3.979 0-7.794-1.58-10.606-4.394l-30-30c-2.814-2.812-4.394-6.627-4.394-10.606v-262c0-3.979 1.58-7.794 4.394-10.606l30-30c2.812-2.814 6.627-4.394 10.606-4.394h180c3.979 0 7.794 1.58 10.606 4.394l30 30c2.814 2.812 4.394 6.627 4.394 10.606v262c0 3.979-1.58 7.794-4.394 10.606l-30 30c-2.812 2.814-6.627 4.394-10.606 4.394z" fill="#beebfa"/><g fill="#9ee2f8"><path d="m366.606 94.394-30-30c-2.812-2.814-6.627-4.394-10.606-4.394h-90v352h90c3.979 0 7.794-1.58 10.606-4.394l30-30c2.814-2.812 4.394-6.627 4.394-10.606v-262c0-3.979-1.58-7.794-4.394-10.606z"/><path d="m296 150h-120c-8.284 0-15-6.716-15-15s6.716-15 15-15h120c8.284 0 15 6.716 15 15s-6.716 15-15 15z"/><path d="m296 210h-120c-8.284 0-15-6.716-15-15s6.716-15 15-15h120c8.284 0 15 6.716 15 15s-6.716 15-15 15z"/><path d="m266 270h-60c-8.284 0-15-6.716-15-15s6.716-15 15-15h60c8.284 0 15 6.716 15 15s-6.716 15-15 15z"/></g><path d="m311 135c0-8.284-6.716-15-15-15h-60v30h60c8.284 0 15-6.716 15-15z" fill="#87c0ed"/><path d="m296 180h-60v30h60c8.284 0 15-6.716 15-15s-6.716-15-15-15z" fill="#87c0ed"/><path d="m266 270c8.284 0 15-6.716 15-15s-6.716-15-15-15h-30v30z" fill="#87c0ed"/><path d="m419.5 508.973-23.5-17.625-23.5 17.625c-9.889 7.416-24 .361-24-12v-87.869l95 .001v87.868c0 12.36-14.111 19.416-24 12z" fill="#ff9f22"/><path d="m396 409.104v82.244l23.5 17.625c9.889 7.416 24 .361 24-12v-87.868z" fill="#ff7c48"/><circle cx="396" cy="357" fill="#fff79f" r="75"/><path d="m396 282v150c41.355 0 75-33.645 75-75s-33.645-75-75-75z" fill="#ffde55"/><circle cx="396" cy="357" fill="#ffde55" r="45"/><path d="m396 312v90c24.813 0 45-20.187 45-45s-20.187-45-45-45z" fill="#ffcd00"/><circle cx="396" cy="357" fill="#fff79f" r="15"/><path d="m411 357c0-8.284-6.716-15-15-15v30c8.284 0 15-6.716 15-15z" fill="#ffde55"/></g></svg>