<svg id="Capa_1" enable-background="new 0 0 512 512" height="512" viewBox="0 0 512 512" width="512" xmlns="http://www.w3.org/2000/svg"><g><g><path d="m295 0h-280c-8.284 0-15 6.716-15 15v482c0 8.284 6.716 15 15 15h340c8.284 0 15-6.716 15-15v-96l-70-85 70-80v-161z" fill="#beebfa"/><path d="m185 0v512h170c8.284 0 15-6.716 15-15v-96l-70-85 70-80v-161l-75-75z" fill="#9ee2f8"/><path d="m295 0v60c0 8.284 6.716 15 15 15h60c0-41.355-33.645-75-75-75z" fill="#87c0ed"/></g><g fill="#9ee2f8"><path d="m305 151h-240c-8.284 0-15-6.716-15-15 0-8.284 6.716-15 15-15h240c8.284 0 15 6.716 15 15 0 8.284-6.716 15-15 15z"/><path d="m235 211h-170c-8.284 0-15-6.716-15-15 0-8.284 6.716-15 15-15h170c8.284 0 15 6.716 15 15 0 8.284-6.716 15-15 15z"/><path d="m195 271h-130c-8.284 0-15-6.716-15-15 0-8.284 6.716-15 15-15h130c8.284 0 15 6.716 15 15 0 8.284-6.716 15-15 15z"/><path d="m195 331h-130c-8.284 0-15-6.716-15-15 0-8.284 6.716-15 15-15h130c8.284 0 15 6.716 15 15 0 8.284-6.716 15-15 15z"/><path d="m195 391h-130c-8.284 0-15-6.716-15-15 0-8.284 6.716-15 15-15h130c8.284 0 15 6.716 15 15 0 8.284-6.716 15-15 15z"/><path d="m235 451h-170c-8.284 0-15-6.716-15-15 0-8.284 6.716-15 15-15h170c8.284 0 15 6.716 15 15 0 8.284-6.716 15-15 15z"/></g><g fill="#87c0ed"><path d="m320 136c0-8.284-6.716-15-15-15h-120v30h120c8.284 0 15-6.716 15-15z"/><path d="m250 196c0-8.284-6.716-15-15-15h-50v30h50c8.284 0 15-6.716 15-15z"/><path d="m210 256c0-8.284-6.716-15-15-15h-10v30h10c8.284 0 15-6.716 15-15z"/><path d="m210 316c0-8.284-6.716-15-15-15h-10v30h10c8.284 0 15-6.716 15-15z"/><path d="m210 376c0-8.284-6.716-15-15-15h-10v30h10c8.284 0 15-6.716 15-15z"/><path d="m250 436c0-8.284-6.716-15-15-15h-50v30h50c8.284 0 15-6.716 15-15z"/></g><path d="m504.5 337.029-16.992-9.811c.378-3.724.568-7.472.568-11.218s-.19-7.494-.568-11.218l16.992-9.811c3.445-1.989 5.959-5.265 6.989-9.108 1.029-3.843.49-7.937-1.499-11.382l-30-51.962c-1.989-3.445-5.266-5.959-9.108-6.989-3.842-1.029-7.937-.491-11.382 1.499l-17.076 9.859c-6.074-4.407-12.538-8.152-19.348-11.209v-19.679c0-8.284-6.716-15-15-15h-59.999c-8.284 0-15 6.716-15 15v19.678c-6.81 3.057-13.273 6.803-19.348 11.209l-17.076-9.859c-3.445-1.99-7.543-2.529-11.382-1.499-3.843 1.029-7.119 3.543-9.108 6.989l-30 51.962c-1.989 3.445-2.528 7.54-1.499 11.382s3.543 7.119 6.989 9.108l16.992 9.811c-.378 3.724-.568 7.472-.568 11.218s.19 7.494.568 11.218l-16.992 9.811c-3.445 1.989-5.959 5.265-6.989 9.108s-.491 7.937 1.499 11.382l30 51.962c1.989 3.445 5.266 5.959 9.108 6.989 3.844 1.03 7.938.491 11.382-1.499l17.076-9.859c6.074 4.407 12.538 8.152 19.348 11.209v19.68c0 8.284 6.716 15 15 15h59.999c8.284 0 15-6.716 15-15v-19.678c6.81-3.057 13.273-6.803 19.348-11.209l17.076 9.859c3.444 1.989 7.542 2.527 11.382 1.499 3.843-1.029 7.119-3.543 9.108-6.989l30-51.962c1.989-3.445 2.528-7.54 1.499-11.382-1.03-3.844-3.544-7.12-6.989-9.109zm-126.424 28.971c-27.569 0-49.999-22.43-49.999-50s22.43-50 49.999-50c27.57 0 50 22.43 50 50s-22.43 50-50 50z" fill="#5f55af"/><path d="m504.5 337.029-16.992-9.811c.378-3.724.568-7.472.568-11.218s-.19-7.494-.568-11.218l16.992-9.811c3.445-1.989 5.959-5.265 6.989-9.108 1.029-3.843.49-7.937-1.499-11.382l-30-51.962c-1.989-3.445-5.266-5.959-9.108-6.989-3.842-1.029-7.937-.491-11.382 1.499l-17.076 9.859c-6.074-4.407-12.538-8.152-19.348-11.209v-19.679c0-8.284-6.716-15-15-15h-30v85c27.57 0 50 22.43 50 50s-22.429 50-50 50v85h30c8.284 0 15-6.716 15-15v-19.678c6.81-3.057 13.273-6.803 19.348-11.209l17.076 9.859c3.444 1.989 7.542 2.527 11.382 1.499 3.843-1.029 7.119-3.543 9.108-6.989l30-51.962c1.989-3.445 2.528-7.54 1.499-11.382-1.03-3.844-3.544-7.12-6.989-9.109z" fill="#453d83"/></g></svg>