<svg id="Capa_1" enable-background="new 0 0 512 512" height="512" viewBox="0 0 512 512" width="512" xmlns="http://www.w3.org/2000/svg"><g><g><g><path d="m315 0h-300c-8.284 0-15 6.716-15 15v482c0 8.284 6.716 15 15 15h360c8.284 0 15-6.716 15-15v-422z" fill="#beebfa"/><path d="m195 0v512h180c8.284 0 15-6.716 15-15v-422l-75-75z" fill="#9ee2f8"/><path d="m397 471c-63.411 0-115-51.589-115-115s51.589-115 115-115 115 51.589 115 115-51.589 115-115 115z" fill="#ff9f22"/><path d="m397 241v230c63.411 0 115-51.589 115-115s-51.589-115-115-115z" fill="#ff7c48"/></g><path d="m315 0v60c0 8.284 6.716 15 15 15h60c0-41.355-33.645-75-75-75z" fill="#87c0ed"/></g><g fill="#9ee2f8"><g><path d="m95 331h-20c-8.284 0-15-6.716-15-15s6.716-15 15-15h20c8.284 0 15 6.716 15 15s-6.716 15-15 15z"/><path d="m235 331h-80c-8.284 0-15-6.716-15-15s6.716-15 15-15h80c8.284 0 15 6.716 15 15s-6.716 15-15 15z"/></g><g><path d="m95 391h-20c-8.284 0-15-6.716-15-15s6.716-15 15-15h20c8.284 0 15 6.716 15 15s-6.716 15-15 15z"/><path d="m235 391h-80c-8.284 0-15-6.716-15-15s6.716-15 15-15h80c8.284 0 15 6.716 15 15s-6.716 15-15 15z"/></g><g><path d="m95 451h-20c-8.284 0-15-6.716-15-15s6.716-15 15-15h20c8.284 0 15 6.716 15 15s-6.716 15-15 15z"/><path d="m255 451h-100c-8.284 0-15-6.716-15-15s6.716-15 15-15h100c8.284 0 15 6.716 15 15s-6.716 15-15 15z"/></g></g><g><g><g><g><g><path d="m275 271h-160c-8.284 0-15-6.716-15-15v-8.789c0-52.302 41.763-95.7 94.063-96.207 52.811-.511 95.937 42.301 95.937 94.996v10c0 8.284-6.716 15-15 15z" fill="#5f55af"/><path d="m195 151.007v119.993h80c8.284 0 15-6.716 15-15v-10c0-52.383-42.617-94.992-95-94.993z" fill="#453d83"/><g fill="#87c0ed"><path d="m250 316c0-8.284-6.716-15-15-15h-40v30h40c8.284 0 15-6.716 15-15z"/><path d="m250 376c0-8.284-6.716-15-15-15h-40v30h40c8.284 0 15-6.716 15-15z"/><path d="m270 436c0-8.284-6.716-15-15-15h-60v30h60c8.284 0 15-6.716 15-15z"/></g><path d="m195 176c-31.705 0-57.5-25.795-57.5-57.5s25.795-57.5 57.5-57.5 57.5 25.795 57.5 57.5-25.795 57.5-57.5 57.5z" fill="#ffe4c2"/><path d="m195 61v115c31.706 0 57.5-25.794 57.5-57.5s-25.794-57.5-57.5-57.5z" fill="#f2d1a5"/></g></g></g></g></g><path d="m435.891 317.109c-5.858-5.858-15.355-5.858-21.213 0l-17.678 17.678-17.678-17.678c-5.858-5.858-15.355-5.858-21.213 0-5.858 5.858-5.858 15.355 0 21.213l17.678 17.678-17.678 17.677c-5.858 5.858-5.858 15.355 0 21.213 5.858 5.858 15.355 5.858 21.213 0l17.678-17.677 17.678 17.678c5.858 5.858 15.355 5.858 21.213 0 5.858-5.858 5.858-15.355 0-21.213l-17.678-17.678 17.678-17.677c5.858-5.858 5.858-15.356 0-21.214z" fill="#fff79f"/><path d="m435.891 394.891c5.858-5.858 5.858-15.355 0-21.213l-17.678-17.678 17.678-17.677c5.858-5.858 5.858-15.355 0-21.213-5.858-5.858-15.355-5.858-21.213 0l-17.678 17.677v42.426l17.678 17.677c5.858 5.859 15.355 5.859 21.213.001z" fill="#ffde55"/></g></svg>