<svg id="Capa_1" enable-background="new 0 0 512 512" height="512" viewBox="0 0 512 512" width="512" xmlns="http://www.w3.org/2000/svg"><g><g><path d="m342 376.976c0 8.284-6.716 15-15 15h-142c-8.284 0-15-6.716-15-15 0-8.284-6.716-15-15-15h-140c-8.284 0-15 6.716-15 15 .006 29.857 10.718 58.784 30.166 81.455 19.463 22.69 46.438 37.669 75.957 42.178 49.725 7.594 99.801 11.391 149.877 11.391s100.152-3.797 149.877-11.391c29.518-4.508 56.493-19.487 75.957-42.178 19.447-22.671 30.159-51.598 30.166-81.455 0-8.284-6.716-15-15-15h-140c-8.284 0-15 6.716-15 15z" fill="#999fed"/><g><g><path d="m497 361.976h-140c-8.284 0-15 6.716-15 15s-6.716 15-15 15h-71v120.024c50.076 0 100.152-3.797 149.877-11.391 29.518-4.508 56.493-19.487 75.957-42.178 19.447-22.671 30.159-51.598 30.166-81.455 0-8.284-6.716-15-15-15z" fill="#7c84e8"/></g></g><path d="m512 376.95v-39.974c0-19.33-15.67-35-35-35h-100c-19.33 0-35 15.67-35 35v40h170c0-.009 0-.018 0-.026z" fill="#5f69e3"/><path d="m170 336.976c0-19.33-15.67-35-35-35h-100c-19.33 0-35 15.67-35 35v39.974.026h170z" fill="#7c84e8"/></g><g><g><g><path d="m206 15v160.024h13.693c12.815 0 19.729 15.032 11.389 24.762l-43.693 50.976c-5.986 6.984-16.791 6.984-22.778 0l-43.693-50.976c-8.34-9.73-1.426-24.762 11.389-24.762h13.693v-160.024c0-8.284 6.716-15 15-15h30c8.284 0 15 6.716 15 15z" fill="#ff9f22"/></g></g><path d="m231.082 199.786-43.693 50.975c-2.993 3.493-7.191 5.239-11.389 5.239v-256h15c8.284 0 15 6.716 15 15v160.024h13.693c12.816 0 19.729 15.032 11.389 24.762z" fill="#ff7c48"/></g><g><g><g><path d="m366 241v-160.024h13.693c12.815 0 19.729-15.032 11.389-24.762l-43.693-50.976c-5.986-6.984-16.791-6.984-22.778 0l-43.693 50.976c-8.34 9.73-1.426 24.762 11.389 24.762h13.693v160.024c0 8.284 6.716 15 15 15h30c8.284 0 15-6.716 15-15z" fill="#d6fc7e"/></g></g><path d="m391.082 56.214-43.693-50.976c-2.993-3.492-7.191-5.238-11.389-5.238v256h15c8.284 0 15-6.716 15-15v-160.024h13.693c12.816 0 19.729-15.032 11.389-24.762z" fill="#b2fa09"/></g></g></svg>