<svg id="Capa_1" enable-background="new 0 0 512 512" height="512" viewBox="0 0 512 512" width="512" xmlns="http://www.w3.org/2000/svg"><g><g><g><g><g><path d="m175 210h-160c-8.284 0-15-6.716-15-15v-8.789c0-52.302 41.763-95.7 94.063-96.207 52.811-.511 95.937 42.301 95.937 94.996v10c0 8.284-6.716 15-15 15z" fill="#5f55af"/><path d="m95 90.007v119.993h80c8.284 0 15-6.716 15-15v-10c0-52.383-42.617-94.992-95-94.993z" fill="#453d83"/><path d="m95 115c-31.705 0-57.5-25.795-57.5-57.5s25.795-57.5 57.5-57.5 57.5 25.795 57.5 57.5-25.795 57.5-57.5 57.5z" fill="#ffe4c2"/><path d="m95 0v115c31.706 0 57.5-25.794 57.5-57.5s-25.794-57.5-57.5-57.5z" fill="#f2d1a5"/></g></g></g></g><g><g><g><path d="m497 512h-160c-8.284 0-15-6.716-15-15v-8.789c0-52.302 41.763-95.7 94.063-96.207 52.811-.511 95.937 42.301 95.937 94.996v10c0 8.284-6.716 15-15 15z" fill="#beebfa"/><path d="m417 392.007v119.993h80c8.284 0 15-6.716 15-15v-10c0-52.383-42.617-94.992-95-94.993z" fill="#9ee2f8"/><path d="m417 417c-31.705 0-57.5-25.795-57.5-57.5s25.795-57.5 57.5-57.5 57.5 25.795 57.5 57.5-25.794 57.5-57.5 57.5z" fill="#ffe4c2"/><path d="m417 302v115c31.706 0 57.5-25.794 57.5-57.5s-25.794-57.5-57.5-57.5z" fill="#f2d1a5"/></g></g></g><g><g><path d="m266.737 441.889-50.976-43.693c-9.73-8.34-24.762-1.427-24.762 11.389v13.693h-66v-137c0-8.284-6.716-15-15-15h-29.999c-8.284 0-15 6.716-15 15v182c0 8.284 6.716 15 15 15h111v13.693c0 12.815 15.032 19.729 24.762 11.389l50.976-43.693c6.984-5.987 6.984-16.792-.001-22.778z" fill="#ff9f22"/></g></g><path d="m266.737 441.889-50.976-43.693c-9.73-8.34-24.762-1.427-24.762 11.389v13.693h-66v-137c0-8.284-6.716-15-15-15h-14.999v212h96v13.693c0 12.815 15.032 19.729 24.762 11.389l50.976-43.693c6.984-5.987 6.984-16.792-.001-22.778z" fill="#ff7c48"/><g><g><path d="m245.263 70.111 50.976 43.693c9.73 8.34 24.762 1.427 24.762-11.389v-13.693h66v137c0 8.284 6.716 15 15 15h30c8.284 0 15-6.716 15-15v-182c0-8.284-6.716-15-15-15h-111.001v-13.693c0-12.815-15.032-19.729-24.762-11.389l-50.976 43.693c-6.984 5.987-6.984 16.792.001 22.778z" fill="#ff9f22"/></g></g><path d="m432 28.722h-15v212h15c8.284 0 15-6.716 15-15v-182c0-8.284-6.716-15-15-15z" fill="#ff7c48"/></g></svg>