<svg id="Capa_1" enable-background="new 0 0 512 512" height="512" viewBox="0 0 512 512" width="512" xmlns="http://www.w3.org/2000/svg"><g><path d="m376 497h-240c-11.046 0-20-8.954-20-20v-442c0-11.046 8.954-20 20-20h240c11.046 0 20 8.954 20 20v442c0 11.046-8.954 20-20 20z" fill="#999fed"/><path d="m376 15h-120v482h120c11.046 0 20-8.954 20-20v-442c0-11.046-8.954-20-20-20z" fill="#7c84e8"/><path d="m181.292 17.942 10 50c1.401 7.011 7.558 12.058 14.708 12.058h100c7.15 0 13.307-5.047 14.708-12.058l10-50z" fill="#9ee2f8"/><path d="m256 80h50c7.15 0 13.307-5.047 14.708-12.058l10-50h-74.708z" fill="#87c0ed"/><path d="m376 0h-240c-19.299 0-35 15.701-35 35v442c0 19.299 15.701 35 35 35h240c19.299 0 35-15.701 35-35v-442c0-19.299-15.701-35-35-35zm-245 427v-392c0-2.757 2.243-5 5-5h240c2.757 0 5 2.243 5 5v392z" fill="#beebfa"/><path d="m411 477v-442c0-19.299-15.701-35-35-35h-120v30h120c2.757 0 5 2.243 5 5v392h-125v85h120c19.299 0 35-15.701 35-35z" fill="#9ee2f8"/><path d="m346 381h-90c-8.284 0-15-6.716-15-15s6.716-15 15-15h90c8.284 0 15 6.716 15 15s-6.716 15-15 15z" fill="#7c84e8"/><path d="m346 381c8.284 0 15-6.716 15-15s-6.716-15-15-15h-90v30z" fill="#5f69e3"/><path d="m196 381h-20c-8.284 0-15-6.716-15-15s6.716-15 15-15h20c8.284 0 15 6.716 15 15s-6.716 15-15 15z" fill="#7c84e8"/><path d="m336 321h-160c-8.284 0-15-6.716-15-15v-8.789c0-52.302 41.763-95.7 94.063-96.207 52.811-.511 95.937 42.301 95.937 94.996v10c0 8.284-6.716 15-15 15z" fill="#5f55af"/><path d="m256 201.007v119.993h80c8.284 0 15-6.716 15-15v-10c0-52.383-42.617-94.992-95-94.993z" fill="#453d83"/><path d="m256 226c-31.705 0-57.5-25.795-57.5-57.5s25.795-57.5 57.5-57.5 57.5 25.795 57.5 57.5-25.795 57.5-57.5 57.5z" fill="#ffe4c2"/><path d="m256 111v115c31.706 0 57.5-25.794 57.5-57.5s-25.794-57.5-57.5-57.5z" fill="#f2d1a5"/></g></svg>