<svg id="Capa_1" enable-background="new 0 0 512 512" height="512" viewBox="0 0 512 512" width="512" xmlns="http://www.w3.org/2000/svg"><g><path d="m402.688 354.922c-39.417-14.781-91.512-22.922-146.688-22.922s-107.271 8.141-146.688 22.922c-44.052 16.519-68.312 40.342-68.312 67.078 0 10.544 3.789 20.632 11.061 30h407.878c7.272-9.368 11.061-19.456 11.061-30 0-26.736-24.26-50.559-68.312-67.078z" fill="#999fed"/><path d="m459.939 452c7.272-9.368 11.061-19.456 11.061-30 0-26.736-24.26-50.559-68.312-67.078-39.417-14.781-91.512-22.922-146.688-22.922v120z" fill="#7c84e8"/><path d="m402.688 414.922c-39.417-14.781-91.512-22.922-146.688-22.922s-107.271 8.141-146.688 22.922c-26.679 10.005-46.083 22.691-57.251 37.078 11.168 14.387 30.572 27.073 57.251 37.078 8.355 3.133 17.285 5.964 26.688 8.487l30-15.565 30 26.674c19.238 2.19 39.404 3.326 60 3.326s40.762-1.135 60-3.326l30-26.674 30 15.565c9.403-2.522 18.333-5.354 26.688-8.487 26.679-10.005 46.083-22.691 57.251-37.078-11.168-14.387-30.572-27.073-57.251-37.078z" fill="#5f55af"/><path d="m346 482 30 15.565c9.403-2.522 18.333-5.354 26.688-8.487 26.679-10.005 46.083-22.691 57.251-37.078-11.168-14.387-30.572-27.073-57.251-37.078-39.417-14.781-91.512-22.922-146.688-22.922v120c20.596 0 40.762-1.135 60-3.326z" fill="#453d83"/><g fill="#9ee2f8"><path d="m181 272h150v30h-150z"/><path d="m181 212h150v30h-150z"/><path d="m181 152h150v30h-150z"/><path d="m181 92h150v30h-150z"/><path d="m181 32h150v30h-150z"/></g><path d="m256 272h75v30h-75z" fill="#87c0ed"/><path d="m256 212h75v30h-75z" fill="#87c0ed"/><path d="m256 152h75v30h-75z" fill="#87c0ed"/><path d="m256 92h75v30h-75z" fill="#87c0ed"/><path d="m256 32h75v30h-75z" fill="#87c0ed"/><path d="m181 0h-30c-8.284 0-15 6.716-15 15v482.565c18.399 4.935 38.624 8.675 60 11.109v-493.674c0-8.284-6.716-15-15-15z" fill="#beebfa"/><path d="m361 0h-30c-8.284 0-15 6.716-15 15v493.674c21.376-2.434 41.601-6.174 60-11.109v-482.565c0-8.284-6.716-15-15-15z" fill="#9ee2f8"/></g></svg>