<svg id="Capa_1" enable-background="new 0 0 512 512" height="512" viewBox="0 0 512 512" width="512" xmlns="http://www.w3.org/2000/svg"><g><g><path d="m302 0h-287c-8.284 0-15 6.716-15 15v482c0 8.284 6.716 15 15 15h362v-437z" fill="#beebfa"/><path d="m188.5 0v512h188.5v-437l-75-75z" fill="#9ee2f8"/></g><path d="m302 0v60c0 8.284 6.716 15 15 15h60c0-41.355-33.645-75-75-75z" fill="#87c0ed"/><path d="m407 392h-60c-8.284 0-15-6.716-15-15v-5.289c0-17.921-4.678-36.97-14.302-58.236-3.781-8.356-5.698-17.263-5.698-26.475 0-35.841 29.159-65 65-65s65 29.159 65 65c0 9.212-1.917 18.119-5.698 26.475-9.624 21.266-14.302 40.316-14.302 58.236v5.289c0 8.284-6.716 15-15 15z" fill="#5f55af"/><path d="m422 377v-5.289c0-17.921 4.678-36.97 14.302-58.237 3.781-8.355 5.698-17.262 5.698-26.474 0-35.841-29.159-65-65-65v170h30c8.284 0 15-6.716 15-15z" fill="#453d83"/><g fill="#9ee2f8"><path d="m309.5 151h-242c-8.284 0-15-6.716-15-15s6.716-15 15-15h242c8.284 0 15 6.716 15 15s-6.716 15-15 15z"/><path d="m309.5 211h-242c-8.284 0-15-6.716-15-15s6.716-15 15-15h242c8.284 0 15 6.716 15 15s-6.716 15-15 15z"/><path d="m269.5 271h-202c-8.284 0-15-6.716-15-15s6.716-15 15-15h202c8.284 0 15 6.716 15 15s-6.716 15-15 15z"/></g><path d="m120.5 451c-37.495 0-68-30.505-68-68s30.505-68 68-68 68 30.505 68 68-30.505 68-68 68z" fill="#ff9f22"/><circle cx="120.5" cy="383" fill="#ff7c48" r="15"/><path d="m332 377v60c0 8.284 6.716 15 15 15h60c8.284 0 15-6.716 15-15v-60z" fill="#ff9f22"/><path d="m377 377v75h30c8.284 0 15-6.716 15-15v-60z" fill="#ff7c48"/><path d="m497 512h-240c-8.284 0-15-6.716-15-15 0-33.137 26.863-60 60-60h150c33.137 0 60 26.863 60 60 0 8.284-6.716 15-15 15z" fill="#5f55af"/><path d="m452 437h-75v75h120c8.284 0 15-6.716 15-15 0-33.137-26.863-60-60-60z" fill="#453d83"/><g fill="#87c0ed"><path d="m324.5 136c0-8.284-6.716-15-15-15h-121v30h121c8.284 0 15-6.716 15-15z"/><path d="m324.5 196c0-8.284-6.716-15-15-15h-121v30h121c8.284 0 15-6.716 15-15z"/><path d="m284.5 256c0-8.284-6.716-15-15-15h-81v30h81c8.284 0 15-6.716 15-15z"/></g></g></svg>