<svg id="Capa_1" enable-background="new 0 0 512 512" height="512" viewBox="0 0 512 512" width="512" xmlns="http://www.w3.org/2000/svg"><g><path d="m15 77h400v300h-400z" fill="#999fed"/><path d="m215 77h200v300h-200z" fill="#7c84e8"/><path d="m415 62h-15v100h-70v-100h-30v100h-70v-100h-30v100h-70v-100h-30v100h-70v-100h-15c-8.284 0-15 21.716-15 30v285c0 8.284 6.716 15 15 15h400c8.284 0 15-6.716 15-15v-285c0-8.284-6.716-30-15-30zm-315 300h-70v-70h70zm0-100h-70v-70h70zm100 100h-70v-70h70zm0-100h-70v-70h70zm100 100h-70v-70h70zm0-100h-70v-70h70zm100 100h-70v-170h70z" fill="#5f55af"/><path d="m415 62h-15v100h-70v-100h-30v100h-70v-100h-15v330h200c8.284 0 15-6.716 15-15v-285c0-8.284-6.716-30-15-30zm-115 300h-70v-70h70zm0-100h-70v-70h70zm100 100h-70v-170h70z" fill="#453d83"/><path d="m430 92h-430v-77c0-8.284 6.716-15 15-15h400c8.284 0 15 6.716 15 15z" fill="#ff9f22"/><path d="m430 15c0-8.284-6.716-15-15-15h-200v92h215z" fill="#ff7c48"/><path d="m460.333 497h-146.666c-20.251 0-36.667-16.416-36.667-36.667v-146.666c0-20.25 16.416-36.667 36.667-36.667h146.667c20.25 0 36.667 16.416 36.667 36.667v146.667c-.001 20.25-16.417 36.666-36.668 36.666z" fill="#5f55af"/><path d="m460.333 277h-73.333v220h73.333c20.25 0 36.667-16.416 36.667-36.667v-146.666c0-20.251-16.416-36.667-36.667-36.667z" fill="#453d83"/><path d="m460.333 512h-146.666c-28.49 0-51.667-23.178-51.667-51.667v-146.666c0-28.489 23.177-51.667 51.667-51.667h146.667c28.489 0 51.666 23.178 51.666 51.667v146.666c0 28.489-23.177 51.667-51.667 51.667zm-146.666-220c-11.947 0-21.667 9.72-21.667 21.667v146.666c0 11.947 9.72 21.667 21.667 21.667h146.667c11.946 0 21.666-9.72 21.666-21.667v-146.666c0-11.947-9.72-21.667-21.667-21.667z" fill="#ff9f22"/><path d="m460.333 262h-73.333v30h73.333c11.947 0 21.667 9.72 21.667 21.667v146.666c0 11.947-9.72 21.667-21.667 21.667h-73.333v30h73.333c28.49 0 51.667-23.178 51.667-51.667v-146.666c0-28.489-23.177-51.667-51.667-51.667z" fill="#ff7c48"/><path d="m437 402h-50c-8.284 0-15-6.716-15-15v-50c0-8.284 6.716-15 15-15s15 6.716 15 15v35h35c8.284 0 15 6.716 15 15s-6.716 15-15 15z" fill="#ff9f22"/><path d="m452 387c0-8.284-6.716-15-15-15h-35v-35c0-8.284-6.716-15-15-15v80h50c8.284 0 15-6.716 15-15z" fill="#ff7c48"/></g></svg>