<svg height="512" width="512" xmlns="http://www.w3.org/2000/svg"><path d="M8.787 503.213c11.716 11.716 30.711 11.716 42.426 0l42.855-42.855c5.858-5.858 5.858-15.355 0-21.213l-21.213-21.213c-5.858-5.858-15.355-5.858-21.213 0L8.787 460.787c-11.716 11.716-11.716 30.71 0 42.426z" fill="#beebfa"/><path d="M94.068 460.358c5.858-5.858 5.858-15.355 0-21.213l-10.607-10.607-74.674 74.675c11.716 11.716 30.711 11.716 42.426 0zm35.737-99.445l76.928-76.927 21.21 21.21-76.928 76.927z" fill="#9ee2f8"/><path d="M140.41 371.52l76.928-76.928 10.605 10.605-76.928 76.928z" fill="#87c0ed"/><circle cx="327" cy="185" fill="#999fed" r="170"/><path d="M327 355c93.888 0 170-76.112 170-170 0-46.944-19.028-89.444-49.792-120.208L206.792 305.208C237.556 335.972 280.056 355 327 355z" fill="#7c84e8"/><path d="M327 370c-102.009 0-185-82.991-185-185S224.991 0 327 0s185 82.991 185 185-82.991 185-185 185zm0-340c-85.467 0-155 69.533-155 155s69.533 155 155 155 155-69.533 155-155S412.467 30 327 30z" fill="#beebfa"/><path d="M436.55 75.45C464.617 103.516 482 142.266 482 185c0 85.467-69.533 155-155 155-42.734 0-81.484-17.383-109.55-45.45l-21.203 21.203C229.745 349.252 275.995 370 327 370c102.009 0 185-82.991 185-185 0-51.005-20.748-97.255-54.247-130.753z" fill="#9ee2f8"/><path d="M161.673 371.541l-21.213-21.213c-5.858-5.858-15.355-5.858-21.213 0l-67.604 67.604 42.426 42.426 67.604-67.604c5.858-5.858 5.858-15.356 0-21.213z" fill="#ff9f22"/><path d="M94.069 460.358l67.604-67.604c5.858-5.858 5.858-15.355 0-21.213l-10.607-10.607-78.211 78.211z" fill="#ff7c48"/><path d="M407 280H247c-8.284 0-15-6.716-15-15v-8.789c0-52.302 41.763-95.7 94.063-96.207C378.874 159.493 422 202.305 422 255v10c0 8.284-6.716 15-15 15z" fill="#5f55af"/><path d="M327 160.007V280h80c8.284 0 15-6.716 15-15v-10c0-52.383-42.617-94.992-95-94.993z" fill="#453d83"/><path d="M327 185c-31.705 0-57.5-25.795-57.5-57.5S295.295 70 327 70s57.5 25.795 57.5 57.5S358.706 185 327 185z" fill="#ffe4c2"/><path d="M327 70v115c31.706 0 57.5-25.794 57.5-57.5S358.706 70 327 70z" fill="#f2d1a5"/></svg>