<svg height="512" width="512" xmlns="http://www.w3.org/2000/svg"><path d="M312 0H15C6.716 0 0 6.716 0 15v482c0 8.284 6.716 15 15 15h357c8.284 0 15-6.716 15-15V75z" fill="#beebfa"/><path d="M193.5 0v512H372c8.284 0 15-6.716 15-15V75L312 0z" fill="#9ee2f8"/><path d="M312 0v60c0 8.284 6.716 15 15 15h60c0-41.355-33.645-75-75-75z" fill="#87c0ed"/><path d="M262 387v90c0 19.33 15.67 35 35 35h180c19.33 0 35-15.67 35-35v-90c0-8.284-6.716-15-15-15H277c-8.284 0-15 6.716-15 15z" fill="#ff7c48"/><path d="M497 372H387v140h90c19.33 0 35-15.67 35-35v-90c0-8.284-6.716-15-15-15z" fill="#ff4c04"/><path d="M437 342c-8.284 0-15-6.716-15-15v-30c0-2.757-2.243-5-5-5h-60c-2.757 0-5 2.243-5 5v30c0 8.284-6.716 15-15 15s-15-6.716-15-15v-30c0-19.299 15.701-35 35-35h60c19.299 0 35 15.701 35 35v30c0 8.284-6.716 15-15 15z" fill="#5f55af"/><path d="M417 262h-30v30h30c2.757 0 5 2.243 5 5v30c0 8.284 6.716 15 15 15s15-6.716 15-15v-30c0-19.299-15.701-35-35-35z" fill="#453d83"/><path d="M452 432c-8.284 0-15-6.716-15-15v-45h30v45c0 8.284-6.716 15-15 15z" fill="#ffde55"/><path d="M322 432c-8.284 0-15-6.716-15-15v-45h30v45c0 8.284-6.716 15-15 15z" fill="#fff79f"/><path d="M512 347c0-19.299-15.701-35-35-35H297c-19.299 0-35 15.701-35 35v40h250z" fill="#ff9f22"/><path d="M477 312h-90v75h125v-40c0-19.299-15.701-35-35-35z" fill="#ff7c48"/><path d="M93.5 331h-20c-8.284 0-15-6.716-15-15s6.716-15 15-15h20c8.284 0 15 6.716 15 15s-6.716 15-15 15zm130 0h-70c-8.284 0-15-6.716-15-15s6.716-15 15-15h70c8.284 0 15 6.716 15 15s-6.716 15-15 15zm-130 60h-20c-8.284 0-15-6.716-15-15s6.716-15 15-15h20c8.284 0 15 6.716 15 15s-6.716 15-15 15zm130 0h-70c-8.284 0-15-6.716-15-15s6.716-15 15-15h70c8.284 0 15 6.716 15 15s-6.716 15-15 15zm-130 60h-20c-8.284 0-15-6.716-15-15s6.716-15 15-15h20c8.284 0 15 6.716 15 15s-6.716 15-15 15zm130 0h-70c-8.284 0-15-6.716-15-15s6.716-15 15-15h70c8.284 0 15 6.716 15 15s-6.716 15-15 15z" fill="#9ee2f8"/><path d="M223.5 301h-30v30h30c8.284 0 15-6.716 15-15s-6.716-15-15-15zm0 60h-30v30h30c8.284 0 15-6.716 15-15s-6.716-15-15-15z" fill="#87c0ed"/><path d="M273.5 271h-160c-8.284 0-15-6.716-15-15v-8.789c0-52.302 41.763-95.7 94.063-96.207 52.811-.512 95.937 42.3 95.937 94.995v10c0 8.285-6.716 15.001-15 15.001z" fill="#5f55af"/><path d="M193.5 151.007V271h80c8.284 0 15-6.716 15-15v-10c0-52.383-42.617-94.992-95-94.993z" fill="#453d83"/><path d="M193.5 176c-31.705 0-57.5-25.795-57.5-57.5S161.795 61 193.5 61 251 86.795 251 118.5 225.205 176 193.5 176z" fill="#ffe4c2"/><path d="M193.5 61v115c31.706 0 57.5-25.794 57.5-57.5S225.206 61 193.5 61z" fill="#f2d1a5"/><path d="M223.5 421h-30v30h30c8.284 0 15-6.716 15-15s-6.716-15-15-15z" fill="#87c0ed"/></svg>