<svg height="512" width="512" xmlns="http://www.w3.org/2000/svg"><path d="M45 312c-13.294 0-25.714 7.992-34.076 21.927C3.88 345.668 0 360.965 0 377s3.88 31.332 10.924 43.073C19.286 434.008 31.706 442 45 442h422V312z" fill="#beebfa"/><path d="M256 312h211v130H256z" fill="#9ee2f8"/><path d="M256 270c-36.179 0-70.391-4.396-96.335-12.379C119.443 245.245 111 227.612 111 215v-87.273c0-8.284 6.716-15 15-15h260c8.284 0 15 6.716 15 15V215c0 12.612-8.443 30.245-48.665 42.621C326.391 265.604 292.179 270 256 270z" fill="#453d83"/><path d="M386 112.727H256V270c36.179 0 70.391-4.396 96.335-12.379C392.557 245.245 401 227.612 401 215v-87.273c0-8.284-6.716-15-15-15z" fill="#2d2755"/><path d="M261.126.903a15 15 0 00-10.252 0l-220 80c-13.165 4.787-13.165 23.406 0 28.194l220 80a15 15 0 0010.252 0l220-80V80.903z" fill="#5f55af"/><path d="M261.126.903A14.997 14.997 0 00256 0v190c1.735 0 3.471-.301 5.126-.903l220-80V80.903z" fill="#453d83"/><path d="M467 442c-13.294 0-25.714-7.992-34.076-21.927C425.88 408.332 422 393.035 422 377s3.88-31.332 10.924-43.073C441.286 319.992 453.706 312 467 312s25.714 7.992 34.076 21.927C508.12 345.668 512 360.965 512 377s-3.88 31.332-10.924 43.073C492.714 434.008 480.294 442 467 442z" fill="#87c0ed"/><path d="M476 240c-8.284 0-15-6.716-15-15V110H256c-8.284 0-15-6.716-15-15s6.716-15 15-15h220c8.284 0 15 6.716 15 15v130c0 8.284-6.716 15-15 15z" fill="#fff79f"/><path d="M461 110v115c0 8.284 6.716 15 15 15s15-6.716 15-15V95c0-8.284-6.716-15-15-15H256v30z" fill="#ffde55"/><path d="M273.757 511.219L256 505.3l-17.757 5.919c-9.713 3.238-19.743-3.992-19.743-14.23v-68.773h75v68.773c0 10.238-10.03 17.467-19.743 14.23z" fill="#ff9f22"/><path d="M256 505.3l17.757 5.919c9.713 3.238 19.743-3.992 19.743-14.23v-68.773H256z" fill="#ff7c48"/><circle cx="256" cy="392" fill="#ffde55" r="45"/><path d="M301 392c0-24.853-20.147-45-45-45v90c24.853 0 45-20.147 45-45z" fill="#ffcd00"/><path d="M256 452c-33.084 0-60-26.916-60-60s26.916-60 60-60 60 26.916 60 60-26.916 60-60 60zm0-90c-16.542 0-30 13.458-30 30s13.458 30 30 30 30-13.458 30-30-13.458-30-30-30z" fill="#fff79f"/><path d="M286 392c0 16.542-13.458 30-30 30v30c33.084 0 60-26.916 60-60s-26.916-60-60-60v30c16.542 0 30 13.458 30 30z" fill="#ffde55"/></svg>