<svg height="512" width="512" xmlns="http://www.w3.org/2000/svg"><path d="M512 306H0v55l21.83 15L0 391v40l21.83 15L0 461v25c0 8.284 6.716 15 15 15h186l55-20 55 20h186c8.284 0 15-6.716 15-15v-25l-23.452-15L512 431v-40l-23.452-15L512 361z" fill="#9cdd05"/><path d="M256 481l55 20h186c8.284 0 15-6.716 15-15v-25l-23.452-15L512 431v-40l-23.452-15L512 361v-55H256z" fill="#85bb04"/><path d="M100 11L0 111v110l100 100h312l100-100V111L412 11H311l-55 20-55-20z" fill="#d6fc7e"/><path d="M311 11l-55 20v290h156l100-100V111L412 11z" fill="#b2fa09"/><path d="M0 361h512v30H0zm0 70h512v30H0z" fill="#d6fc7e"/><path d="M396 181h-40c-8.284 0-15-6.716-15-15s6.716-15 15-15h40c8.284 0 15 6.716 15 15s-6.716 15-15 15z" fill="#85bb04"/><path d="M156 181h-40c-8.284 0-15-6.716-15-15s6.716-15 15-15h40c8.284 0 15 6.716 15 15s-6.716 15-15 15z" fill="#9cdd05"/><path d="M256 281c-63.411 0-115-51.589-115-115S192.589 51 256 51s115 51.589 115 115-51.589 115-115 115z" fill="#b2fa09"/><path d="M512 111c-55.229 0-100-44.771-100-100h85c8.284 0 15 6.716 15 15z" fill="#9cdd05"/><path d="M15 11h85c0 55.228-44.771 100-100 100V26c0-8.284 6.716-15 15-15z" fill="#b2fa09"/><path d="M512 321H412c0-55.228 44.771-100 100-100z" fill="#9cdd05"/><path d="M0 221c55.229 0 100 44.771 100 100H0zm256 140h256v30H256zm0 70h256v30H256z" fill="#b2fa09"/><path d="M371 166c0-63.411-51.589-115-115-115v230c63.411 0 115-51.589 115-115z" fill="#9cdd05"/><path d="M311 501H201V11h110z" fill="#999fed"/><path d="M256 11h55v490h-55z" fill="#7c84e8"/></svg>