<svg height="512" width="512" xmlns="http://www.w3.org/2000/svg"><path d="M256 0C159.505 0 81 78.505 81 175c0 53.149 23.778 102.791 65.236 136.196C168.329 328.999 181 354.368 181 380.8c0 10.604 8.596 19.2 19.2 19.2h111.6c10.604 0 19.2-8.596 19.2-19.2 0-26.432 12.671-51.801 34.764-69.604C407.222 277.791 431 228.149 431 175 431 78.505 352.495 0 256 0z" fill="#fff79f"/><path d="M311.8 400c10.604 0 19.2-8.596 19.2-19.2 0-26.432 12.671-51.801 34.764-69.604C407.222 277.791 431 228.149 431 175 431 78.505 352.495 0 256 0v400z" fill="#ffde55"/><path d="M336 270H176c-8.284 0-15-6.716-15-15v-8.789c0-52.302 41.763-95.7 94.063-96.207C307.874 149.493 351 192.305 351 245v10c0 8.284-6.716 15-15 15z" fill="#5f55af"/><path d="M256 150.007V270h80c8.284 0 15-6.716 15-15v-10c0-52.383-42.617-94.992-95-94.993z" fill="#453d83"/><path d="M256 175c-31.705 0-57.5-25.795-57.5-57.5S224.295 60 256 60s57.5 25.795 57.5 57.5S287.705 175 256 175z" fill="#ffe4c2"/><path d="M256 60v115c31.706 0 57.5-25.794 57.5-57.5S287.706 60 256 60z" fill="#f2d1a5"/><path d="M266 512h-20c-24.853 0-45-20.147-45-45v-22c0-8.284 6.716-15 15-15h80c8.284 0 15 6.716 15 15v22c0 24.853-20.147 45-45 45z" fill="#5f55af"/><path d="M311 467v-22c0-8.284-6.716-15-15-15h-40v82h10c24.853 0 45-20.147 45-45z" fill="#453d83"/><path d="M181 380.8V425c0 19.299 15.701 35 35 35h80c19.299 0 35-15.701 35-35v-44.2z" fill="#beebfa"/><path d="M256 460h40c19.299 0 35-15.701 35-35v-44.2h-75z" fill="#9ee2f8"/><path d="M467.012 75.002c-4.847 0-9.604-2.346-12.495-6.682-4.595-6.893-2.732-16.206 4.161-20.801l30-20c6.892-4.597 16.206-2.733 20.801 4.16s2.732 16.206-4.161 20.801l-30 20a14.917 14.917 0 01-8.306 2.522zm29.973 250a14.93 14.93 0 01-8.307-2.521l-30-20c-6.893-4.595-8.756-13.908-4.161-20.801 4.596-6.894 13.91-8.755 20.801-4.16l30 20c6.893 4.595 8.756 13.908 4.161 20.801-2.89 4.335-7.648 6.681-12.494 6.681z" fill="#ffde55"/><path d="M44.988 75.002a14.93 14.93 0 01-8.307-2.521l-30-20C-.212 47.886-2.075 38.573 2.52 31.68c4.596-6.894 13.91-8.756 20.801-4.16l30 20c6.893 4.595 8.756 13.908 4.161 20.801-2.89 4.335-7.647 6.681-12.494 6.681zm-29.973 250c-4.847 0-9.604-2.346-12.495-6.682-4.595-6.893-2.732-16.206 4.161-20.801l30-20c6.892-4.597 16.206-2.733 20.801 4.16s2.732 16.206-4.161 20.801l-30 20a14.917 14.917 0 01-8.306 2.522zM45 190H15c-8.284 0-15-6.716-15-15s6.716-15 15-15h30c8.284 0 15 6.716 15 15s-6.716 15-15 15z" fill="#fff79f"/><path d="M497 190h-30c-8.284 0-15-6.716-15-15s6.716-15 15-15h30c8.284 0 15 6.716 15 15s-6.716 15-15 15z" fill="#ffde55"/></svg>