<svg height="512" width="512" xmlns="http://www.w3.org/2000/svg"><path d="M510.875 317.577c-.972-12.39-7.51-23.373-17.938-30.133-14.865-9.635-34.511-8.167-47.777 3.568l-92.996 82.264a9.993 9.993 0 01-6.626 2.51h-21.001c20.478 0 37.709-16.124 38.193-36.596.499-21.089-16.511-38.404-37.489-38.404H167.587c-25.444 0-50.519 8.603-70.603 24.225L6.791 395.16A14.999 14.999 0 001 407v90c0 8.284 6.716 15 15 15h108.588c3.085 0 6.096-.951 8.621-2.725l54.808-38.489h144.824a79.883 79.883 0 0053.448-20.474l111.565-100.174c9.247-8.304 13.993-20.172 13.021-32.561z" fill="#ffe4c2"/><path d="M256 470.786h76.841a79.883 79.883 0 0053.448-20.474l111.565-100.174c9.247-8.303 13.993-20.171 13.022-32.561-.972-12.39-7.51-23.373-17.938-30.133-14.865-9.635-34.511-8.167-47.777 3.568l-92.996 82.264a9.993 9.993 0 01-6.626 2.51h-21.001c20.478 0 37.709-16.124 38.193-36.596.499-21.089-16.511-38.404-37.489-38.404h-69.24v170z" fill="#f2d1a5"/><path d="M352.164 373.276a10.001 10.001 0 01-6.626 2.51H244.506c-8.284 0-15 6.716-15 15 0 8.284 6.716 15 15 15h80.734c37.511 0 67.974-30.757 67.494-68.376l-.017-.008z" fill="#f2d1a5"/><path d="M256 405.786h69.24c37.511 0 67.974-30.757 67.494-68.376l-.017-.008-40.554 35.874a10 10 0 01-6.625 2.51H256z" fill="#f2bb88"/><path d="M356 255H156c-8.284 0-15-6.716-15-15v-12.5c0-63.411 51.589-115 115-115s115 51.589 115 115V240c0 8.284-6.716 15-15 15z" fill="#5f55af"/><path d="M356 255c8.284 0 15-6.716 15-15v-12.5c0-63.411-51.589-115-115-115V255z" fill="#453d83"/><path d="M256 135c-37.22 0-67.5-30.281-67.5-67.5S218.78 0 256 0c37.219 0 67.5 30.281 67.5 67.5S293.219 135 256 135z" fill="#ffe4c2"/><path d="M256 0v135c37.219 0 67.5-30.281 67.5-67.5S293.219 0 256 0z" fill="#f2d1a5"/></svg>