<svg height="512" width="512" xmlns="http://www.w3.org/2000/svg"><path d="M15 15h120v120H15z" fill="#ff9f22"/><path d="M15 196h120v120H15z" fill="#d6fc7e"/><path d="M15 377h120v120H15z" fill="#999fed"/><path d="M75 15h60v120H75z" fill="#ff7c48"/><path d="M75 196h60v120H75z" fill="#b2fa09"/><path d="M75 377h60v120H75z" fill="#7c84e8"/><path d="M289.01 148.277L257 131.448l-32.01 16.829c-11.004 5.785-23.866-3.559-21.764-15.813l6.113-35.644-25.897-25.243c-8.903-8.678-3.99-23.798 8.313-25.585l35.789-5.2 16.005-32.43c5.502-11.149 21.4-11.149 26.902 0l16.005 32.43 35.789 5.2c12.303 1.788 17.216 16.907 8.313 25.585L304.661 96.82l6.113 35.644c2.102 12.254-10.759 21.599-21.764 15.813zm0 180.983L257 312.432l-32.01 16.829c-11.004 5.785-23.866-3.559-21.764-15.813l6.113-35.644-25.897-25.243c-8.903-8.678-3.99-23.798 8.313-25.585l35.789-5.2 16.005-32.43c5.502-11.149 21.4-11.149 26.902 0l16.005 32.43 35.789 5.2c12.303 1.788 17.216 16.907 8.313 25.585l-25.897 25.243 6.113 35.644c2.102 12.253-10.759 21.598-21.764 15.812zm176.897 0l-32.011-16.829-32.01 16.829c-11.004 5.785-23.866-3.559-21.764-15.813l6.113-35.644-25.897-25.243c-8.903-8.678-3.99-23.798 8.313-25.585l35.788-5.2 16.005-32.43c5.502-11.149 21.4-11.149 26.902 0l16.005 32.43 35.789 5.2c12.303 1.788 17.216 16.907 8.313 25.585l-25.897 25.243 6.114 35.644c2.103 12.254-10.759 21.599-21.763 15.813zM289.01 510.244L257 493.415l-32.01 16.829c-11.004 5.785-23.866-3.559-21.764-15.813l6.113-35.644-25.897-25.243c-8.903-8.678-3.99-23.798 8.313-25.585l35.789-5.2 16.005-32.43c5.502-11.149 21.4-11.149 26.902 0l16.005 32.43 35.789 5.2c12.303 1.788 17.216 16.907 8.313 25.585l-25.897 25.243 6.113 35.644c2.102 12.254-10.759 21.598-21.764 15.813z" fill="#fff79f"/><path d="M310.774 132.465l-6.113-35.644 25.897-25.243c8.903-8.678 3.99-23.798-8.313-25.585l-35.789-5.2-16.005-32.43C267.7 2.787 262.35 0 257 0v131.448l32.01 16.829c11.005 5.786 23.866-3.559 21.764-15.812zm11.471 94.51l-35.789-5.2-16.005-32.43c-2.751-5.574-8.101-8.362-13.451-8.362v131.448l32.01 16.829c11.004 5.785 23.866-3.559 21.764-15.813l-6.113-35.644 25.897-25.243c8.903-8.677 3.99-23.797-8.313-25.585zm176.896 0l-35.789-5.2-16.005-32.43c-2.751-5.574-8.101-8.362-13.451-8.362v131.448l32.01 16.829c11.004 5.785 23.866-3.559 21.764-15.813l-6.113-35.644 25.897-25.243c8.903-8.677 3.99-23.797-8.313-25.585zM289.01 510.244c11.004 5.785 23.866-3.559 21.764-15.813l-6.113-35.644 25.897-25.243c8.903-8.678 3.99-23.798-8.313-25.585l-35.789-5.2-16.005-32.43c-2.751-5.574-8.101-8.362-13.451-8.362v131.448z" fill="#ffde55"/><path d="M135 331H15c-8.284 0-15-6.716-15-15V196c0-8.284 6.716-15 15-15h120c8.284 0 15 6.716 15 15v120c0 8.284-6.716 15-15 15zM30 301h90v-90H30z" fill="#beebfa"/><path d="M120 211v90H75v30h60c8.284 0 15-6.716 15-15V196c0-8.284-6.716-15-15-15H75v30z" fill="#9ee2f8"/><path d="M135 150H15c-8.284 0-15-6.716-15-15V15C0 6.716 6.716 0 15 0h120c8.284 0 15 6.716 15 15v120c0 8.284-6.716 15-15 15zM30 120h90V30H30z" fill="#beebfa"/><path d="M150 135V15c0-8.284-6.716-15-15-15H75v30h45v90H75v30h60c8.284 0 15-6.716 15-15z" fill="#9ee2f8"/><path d="M135 512H15c-8.284 0-15-6.716-15-15V377c0-8.284 6.716-15 15-15h120c8.284 0 15 6.716 15 15v120c0 8.284-6.716 15-15 15zM30 482h90v-90H30z" fill="#beebfa"/><path d="M120 392v90H75v30h60c8.284 0 15-6.716 15-15V377c0-8.284-6.716-15-15-15H75v30z" fill="#9ee2f8"/></svg>