<svg height="512" width="512" xmlns="http://www.w3.org/2000/svg"><path d="M196 211h-20c-8.284 0-15-6.716-15-15s6.716-15 15-15h20c8.284 0 15 6.716 15 15s-6.716 15-15 15zm140 0h-80c-8.284 0-15-6.716-15-15s6.716-15 15-15h80c8.284 0 15 6.716 15 15s-6.716 15-15 15zm-140 60h-20c-8.284 0-15-6.716-15-15s6.716-15 15-15h20c8.284 0 15 6.716 15 15s-6.716 15-15 15zm140 0h-80c-8.284 0-15-6.716-15-15s6.716-15 15-15h80c8.284 0 15 6.716 15 15s-6.716 15-15 15zm-140 60h-20c-8.284 0-15-6.716-15-15s6.716-15 15-15h20c8.284 0 15 6.716 15 15s-6.716 15-15 15zm140 0h-80c-8.284 0-15-6.716-15-15s6.716-15 15-15h80c8.284 0 15 6.716 15 15s-6.716 15-15 15z" fill="#5f55af"/><path d="M256 512c-57.425 0-111.731-18.639-157.047-53.9-7.119-5.54-7.773-16.066-1.395-22.445l65.157-65.157a15 15 0 0118.889-1.9C203.734 383.254 229.46 391 256 391s52.266-7.746 74.396-22.401a15 15 0 0118.889 1.9l65.157 65.157c6.379 6.379 5.725 16.905-1.395 22.445C367.731 493.361 313.425 512 256 512z" fill="#ff9f22"/><path d="M55.037 414.508C20.524 370.154.8 315.86.026 259.665-.784 200.887 17.889 145.232 53.9 98.953c5.54-7.12 16.066-7.774 22.445-1.395l65.157 65.158a15 15 0 011.9 18.888C128.747 203.735 121 229.461 121 256c0 26.54 7.747 52.266 22.402 74.396l.738 1.114a13.365 13.365 0 01-1.693 16.83l-67.41 67.41c-5.685 5.685-15.063 5.102-20-1.242z" fill="#999fed"/><path d="M437.019 74.98C388.667 26.629 324.38 0 256 0 198.576 0 144.27 18.639 98.954 53.901c-7.12 5.54-7.774 16.066-1.395 22.445l65.157 65.156a15 15 0 0018.888 1.9C203.736 128.746 229.461 121 256 121c74.439 0 135 60.561 135 135 0 26.54-7.747 52.266-22.402 74.396a15 15 0 001.9 18.888l65.157 65.157c6.379 6.379 16.905 5.725 22.445-1.395C493.361 367.731 512 313.425 512 256c0-68.38-26.629-132.667-74.981-181.02z" fill="#fff79f"/><path d="M336 211c8.284 0 15-6.716 15-15s-6.716-15-15-15h-80v30zm0 60c8.284 0 15-6.716 15-15s-6.716-15-15-15h-80v30zm0 60c8.284 0 15-6.716 15-15s-6.716-15-15-15h-80v30z" fill="#453d83"/><path d="M414.442 435.655l-65.157-65.157a15 15 0 00-18.889-1.9C308.266 383.254 282.54 391 256 391v121c57.425 0 111.731-18.639 157.047-53.9 7.119-5.54 7.773-16.066 1.395-22.445z" fill="#ff7c48"/><path d="M391 256c0 26.54-7.747 52.266-22.402 74.396a15 15 0 001.9 18.888l65.157 65.157c6.379 6.379 16.905 5.725 22.445-1.395C493.361 367.731 512 313.425 512 256c0-68.38-26.628-132.667-74.98-181.02C388.667 26.629 324.38 0 256 0v121c74.439 0 135 60.561 135 135z" fill="#ffde55"/></svg>