<svg height="512" width="512" xmlns="http://www.w3.org/2000/svg"><path d="M477 497H35c-11.046 0-20-8.954-20-20V177c0-11.046 8.954-20 20-20h442c11.046 0 20 8.954 20 20v300c0 11.046-8.954 20-20 20z" fill="#999fed"/><path d="M477 157H256v340h221c11.046 0 20-8.954 20-20V177c0-11.046-8.954-20-20-20z" fill="#7c84e8"/><path d="M477 512H35c-19.299 0-35-15.701-35-35V177c0-19.299 15.701-35 35-35h442c19.299 0 35 15.701 35 35v300c0 19.299-15.701 35-35 35zM35 172c-2.757 0-5 2.243-5 5v300c0 2.757 2.243 5 5 5h442c2.757 0 5-2.243 5-5V177c0-2.757-2.243-5-5-5z" fill="#7c84e8"/><path d="M477 142H256v30h221c2.757 0 5 2.243 5 5v300c0 2.757-2.243 5-5 5H256v30h221c19.299 0 35-15.701 35-35V177c0-19.299-15.701-35-35-35z" fill="#5f69e3"/><path d="M131 327v90c0 19.33 15.67 35 35 35h180c19.33 0 35-15.67 35-35v-90c0-8.284-6.716-15-15-15H146c-8.284 0-15 6.716-15 15z" fill="#ff7c48"/><path d="M366 312H256v140h90c19.33 0 35-15.67 35-35v-90c0-8.284-6.716-15-15-15z" fill="#ff4c04"/><path d="M306 282c-8.284 0-15-6.716-15-15v-30c0-2.757-2.243-5-5-5h-60c-2.757 0-5 2.243-5 5v30c0 8.284-6.716 15-15 15s-15-6.716-15-15v-30c0-19.299 15.701-35 35-35h60c19.299 0 35 15.701 35 35v30c0 8.284-6.716 15-15 15z" fill="#5f55af"/><path d="M286 202h-30v30h30c2.757 0 5 2.243 5 5v30c0 8.284 6.716 15 15 15s15-6.716 15-15v-30c0-19.299-15.701-35-35-35z" fill="#453d83"/><path d="M321 372c-8.284 0-15-6.716-15-15v-45h30v45c0 8.284-6.716 15-15 15z" fill="#ffde55"/><path d="M191 372c-8.284 0-15-6.716-15-15v-45h30v45c0 8.284-6.716 15-15 15z" fill="#fff79f"/><circle cx="437" cy="437" fill="#453d83" r="15"/><circle cx="75" cy="437" fill="#5f55af" r="15"/><path d="M402 60h30v147h-30z" fill="#ffcd00"/><path d="M80 60h30v147H80zm357 162h-40c-8.284 0-15-6.716-15-15s6.716-15 15-15h40c8.284 0 15 6.716 15 15s-6.716 15-15 15z" fill="#ffde55"/><path d="M115 222H75c-8.284 0-15-6.716-15-15s6.716-15 15-15h40c8.284 0 15 6.716 15 15s-6.716 15-15 15z" fill="#fff79f"/><path d="M497 0H15C6.716 0 0 6.716 0 15v45c0 8.284 6.716 15 15 15h482c8.284 0 15-6.716 15-15V15c0-8.284-6.716-15-15-15z" fill="#5f55af"/><path d="M497 0H256v75h241c8.284 0 15-6.716 15-15V15c0-8.284-6.716-15-15-15z" fill="#453d83"/><path d="M381 287c0-19.299-15.701-35-35-35H166c-19.299 0-35 15.701-35 35v40h250z" fill="#ff9f22"/><path d="M346 252h-90v75h125v-40c0-19.299-15.701-35-35-35z" fill="#ff7c48"/></svg>