<svg height="512" width="512" xmlns="http://www.w3.org/2000/svg"><path d="M426 145c0-37.451-25.77-68.8-60.52-77.512C361.778 37.905 336.588 15 306 15c-20.881 0-39.254 10.678-50 26.86C245.254 25.678 226.881 15 206 15c-30.588 0-55.778 22.905-59.48 52.488C111.77 76.2 86 107.549 86 145c0 21.329 8.4 40.658 22.006 55C94.4 214.342 86 233.671 86 255c0 37.451 25.77 68.8 60.52 77.512C150.222 362.095 175.412 385 206 385h100c30.588 0 55.778-22.905 59.48-52.488C400.23 323.8 426 292.451 426 255c0-21.329-8.4-40.658-22.006-55C417.6 185.658 426 166.329 426 145z" fill="#ffde55"/><path d="M306 385c30.588 0 55.778-22.905 59.48-52.488C400.23 323.8 426 292.451 426 255c0-21.329-8.4-40.658-22.006-55C417.6 185.658 426 166.329 426 145c0-37.451-25.77-68.8-60.52-77.512C361.778 37.905 336.588 15 306 15c-20.881 0-39.254 10.678-50 26.86V385z" fill="#ffcd00"/><path d="M266 512h-20c-24.853 0-45-20.147-45-45v-22c0-8.284 6.716-15 15-15h80c8.284 0 15 6.716 15 15v22c0 24.853-20.147 45-45 45z" fill="#5f55af"/><path d="M311 467v-22c0-8.284-6.716-15-15-15h-40v82h10c24.853 0 45-20.147 45-45z" fill="#453d83"/><path d="M181 395.692V425c0 19.33 15.67 35 35 35h80c19.33 0 35-15.67 35-35v-29.307z" fill="#beebfa"/><path d="M331 425v-29.307h-75V460h40c19.33 0 35-15.67 35-35z" fill="#9ee2f8"/><path d="M441 145c0-40.314-25.272-75.722-62.541-89.212C369.898 23.374 340.329 0 306 0a74.805 74.805 0 00-50 19.106A74.805 74.805 0 00206 0c-34.328 0-63.897 23.374-72.459 55.788C96.272 69.279 71 104.686 71 145c0 19.886 6.178 38.992 17.607 55C77.178 216.008 71 235.114 71 255c0 40.314 25.272 75.721 62.541 89.212C142.103 376.626 171.672 400 206 400h100c34.329 0 63.898-23.374 72.459-55.788C415.728 330.722 441 295.314 441 255c0-19.886-6.178-38.992-17.607-55C434.822 183.992 441 164.886 441 145zM206 370c-22.616 0-41.789-16.917-44.596-39.352l-.001-.004h.001c-1.688-13.483 2.722-27.415 12.776-37.47 5.858-5.857 5.858-15.355 0-21.213-5.857-5.857-15.355-5.857-21.213 0-10.827 10.826-17.758 24.355-20.55 38.637A64.81 64.81 0 01101 255c0-16.65 6.353-32.517 17.888-44.677 5.49-5.787 5.49-14.859 0-20.646C107.353 177.517 101 161.65 101 145c0-23.24 12.287-44.094 31.417-55.599 2.837 14.454 9.89 27.972 20.551 38.632 2.929 2.929 6.768 4.394 10.606 4.394s7.678-1.465 10.606-4.394c5.858-5.857 5.858-15.355 0-21.213-9.83-9.83-14.5-23.714-12.777-37.467v-.001C164.211 46.917 183.384 30 206 30c13.693 0 26.482 6.211 35 16.776v191.217c-17.459-4.816-30-17.784-30-32.993 0-8.284-6.716-15-15-15s-15 6.716-15 15c0 31.39 25.808 57.653 60 63.692V370zm187.112-159.677C404.647 222.483 411 238.35 411 255c0 23.24-12.287 44.094-31.417 55.599-2.792-14.282-9.723-27.811-20.55-38.637-5.857-5.857-15.355-5.857-21.213 0s-5.858 15.355 0 21.213c10.055 10.055 14.464 23.987 12.776 37.47C347.789 353.078 328.617 370 306 370h-35V162.007c17.459 4.816 30 17.784 30 32.993 0 8.284 6.716 15 15 15s15-6.716 15-15c0-31.39-25.808-57.653-60-63.692V46.776C279.518 36.211 292.307 30 306 30c22.617 0 41.789 16.917 44.596 39.351 1.725 13.754-2.946 27.639-12.776 37.47-5.858 5.857-5.858 15.355 0 21.213 2.929 2.929 6.768 4.394 10.606 4.394s7.678-1.465 10.606-4.394c10.66-10.66 17.714-24.178 20.551-38.632A64.81 64.81 0 01411 145c0 16.65-6.353 32.517-17.888 44.677-5.49 5.787-5.49 14.859 0 20.646z" fill="#fff79f"/><path d="M306 400c34.329 0 63.898-23.374 72.459-55.788C415.728 330.722 441 295.314 441 255c0-19.886-6.178-38.992-17.607-55C434.822 183.992 441 164.886 441 145c0-40.314-25.272-75.722-62.541-89.212C369.898 23.374 340.329 0 306 0a74.805 74.805 0 00-50 19.106V400zm-35-237.993c17.459 4.816 30 17.784 30 32.993 0 8.284 6.716 15 15 15s15-6.716 15-15c0-31.39-25.808-57.653-60-63.692V46.776C279.518 36.211 292.307 30 306 30c22.617 0 41.789 16.917 44.596 39.351 1.725 13.754-2.946 27.639-12.776 37.47-5.858 5.857-5.858 15.355 0 21.213 2.929 2.929 6.768 4.394 10.606 4.394s7.678-1.465 10.606-4.394c10.66-10.66 17.714-24.178 20.551-38.632A64.81 64.81 0 01411 145c0 16.65-6.353 32.517-17.888 44.677-5.49 5.787-5.49 14.859 0 20.646C404.647 222.483 411 238.35 411 255c0 23.24-12.287 44.094-31.417 55.599-2.792-14.282-9.723-27.811-20.55-38.637-5.857-5.857-15.355-5.857-21.213 0s-5.858 15.355 0 21.213c10.055 10.055 14.464 23.987 12.776 37.47C347.789 353.078 328.617 370 306 370h-35zm196.012-62.005c-4.847 0-9.604-2.346-12.495-6.682-4.595-6.893-2.732-16.206 4.161-20.801l30-20c6.892-4.597 16.206-2.733 20.801 4.16s2.732 16.206-4.161 20.801l-30 20a14.917 14.917 0 01-8.306 2.522zm29.973 250a14.93 14.93 0 01-8.307-2.521l-30-20c-6.893-4.595-8.756-13.908-4.161-20.801 4.596-6.894 13.91-8.755 20.801-4.16l30 20c6.893 4.595 8.756 13.908 4.161 20.801-2.89 4.335-7.648 6.681-12.494 6.681z" fill="#ffde55"/><path d="M44.988 100.002a14.93 14.93 0 01-8.307-2.521l-30-20C-.212 72.886-2.075 63.573 2.52 56.68c4.596-6.894 13.91-8.756 20.801-4.16l30 20c6.893 4.595 8.756 13.908 4.161 20.801-2.89 4.335-7.647 6.681-12.494 6.681zm-29.973 250c-4.847 0-9.604-2.346-12.495-6.682-4.595-6.893-2.732-16.206 4.161-20.801l30-20c6.892-4.597 16.206-2.733 20.801 4.16s2.732 16.206-4.161 20.801l-30 20a14.917 14.917 0 01-8.306 2.522zM45 215H15c-8.284 0-15-6.716-15-15s6.716-15 15-15h30c8.284 0 15 6.716 15 15s-6.716 15-15 15z" fill="#fff79f"/><path d="M497 215h-30c-8.284 0-15-6.716-15-15s6.716-15 15-15h30c8.284 0 15 6.716 15 15s-6.716 15-15 15z" fill="#ffde55"/></svg>