<svg height="512" width="512" xmlns="http://www.w3.org/2000/svg"><path d="M165 512H15a15 15 0 01-11.331-24.829l32.338-37.279C12.699 420.733 0 384.684 0 347c0-90.981 74.019-165 165-165s165 74.019 165 165-74.018 165-165 165z" fill="#beebfa"/><g fill="#9ee2f8"><path d="M165 182v330c90.981 0 165-74.019 165-165s-74.018-165-165-165z"/><path d="M215 332H115c-8.284 0-15-6.716-15-15s6.716-15 15-15h100c8.284 0 15 6.716 15 15s-6.716 15-15 15zm0 60H115c-8.284 0-15-6.716-15-15s6.716-15 15-15h100c8.284 0 15 6.716 15 15s-6.716 15-15 15z"/></g><path d="M215 362h-50v30h50c8.284 0 15-6.716 15-15s-6.716-15-15-15zm0-60h-50v30h50c8.284 0 15-6.716 15-15s-6.716-15-15-15z" fill="#87c0ed"/><path d="M497 330H347c-90.981 0-165-74.019-165-165S256.018 0 347 0s165 74.019 165 165c0 37.684-12.699 73.733-36.007 102.892l32.338 37.279A15 15 0 01497 330z" fill="#999fed"/><path d="M508.331 305.171l-32.338-37.279C499.301 238.733 512 202.684 512 165 512 74.019 437.981 0 347 0v330h150a15 15 0 0011.331-24.829z" fill="#7c84e8"/><circle cx="347" cy="252" fill="#fff79f" r="15"/><path d="M347 221.586c-8.284 0-15-6.716-15-15v-44.491c0-8.284 6.716-15 15-15 7.623 0 14.717-3.051 19.977-8.59 5.254-5.534 7.929-12.794 7.532-20.443-.743-14.321-12.574-25.767-26.933-26.056a26.513 26.513 0 00-.564-.006c-13.715 0-25.396 10.091-27.293 23.687a27.981 27.981 0 00-.266 3.861c0 8.284-6.716 15-15 15s-15-6.716-15-15c0-2.678.187-5.371.554-8.007 4.022-28.823 29.064-50.126 58.173-49.529 30.009.605 54.734 24.542 56.289 54.495.828 15.946-4.761 31.095-15.736 42.654-7.309 7.698-16.62 13.179-26.732 15.925v31.5c-.001 8.284-6.717 15-15.001 15z" fill="#fff79f"/><path d="M347 237v30c8.284 0 15-6.716 15-15s-6.716-15-15-15zm57.469-120.493c-1.555-29.953-26.28-53.89-56.289-54.495-.395-.008-.786.003-1.18.003V92h.012c.188 0 .375.002.564.006 14.359.289 26.19 11.734 26.933 26.056.397 7.649-2.278 14.909-7.532 20.443-5.259 5.539-12.353 8.59-19.977 8.59v74.491c8.284 0 15-6.716 15-15v-31.5c10.112-2.746 19.424-8.227 26.732-15.925 10.976-11.559 16.564-26.708 15.737-42.654z" fill="#ffde55"/></svg>