<svg height="512" width="512" xmlns="http://www.w3.org/2000/svg"><path d="M256 482c-49.415 0-95.873-19.244-130.815-54.185C90.244 392.873 71 346.415 71 297s19.244-95.873 54.185-130.815C160.127 131.244 206.585 112 256 112s95.873 19.244 130.815 54.185C421.756 201.127 441 247.585 441 297s-19.244 95.873-54.185 130.815C351.873 462.756 305.415 482 256 482z" fill="#fff79f"/><path d="M386.815 427.815C421.756 392.873 441 346.415 441 297s-19.244-95.873-54.185-130.815C351.873 131.244 305.416 112 256 112v370c49.416 0 95.873-19.244 130.815-54.185z" fill="#ffde55"/><path d="M241 127v45c0 8.284 6.716 15 15 15 8.284 0 15-6.716 15-15v-45zm30 340h-30v-45c0-8.284 6.716-15 15-15 8.284 0 15 6.716 15 15zM131 312H86v-30h45c8.284 0 15 6.716 15 15 0 8.284-6.716 15-15 15zm295 0h-45c-8.284 0-15-6.716-15-15 0-8.284 6.716-15 15-15h45z" fill="#453d83"/><path d="M221.37 269.079l-42.426 84.853c-6.447 12.893 7.231 26.571 20.125 20.125l84.853-42.426a14.976 14.976 0 003.898-2.81l3.536-17.678-49.498-49.497-17.678 3.536a14.954 14.954 0 00-2.81 3.897z" fill="#999fed"/><path d="M256 187c8.284 0 15-6.716 15-15v-45h-15zm15 280v-45c0-8.284-6.716-15-15-15v60zm155-155h-45c-8.284 0-15-6.716-15-15 0-8.284 6.716-15 15-15h45z" fill="#2d2755"/><path d="M181.754 371.246c4.225 4.225 10.868 6.033 17.315 2.81l84.853-42.426a14.976 14.976 0 003.898-2.81l3.536-17.678-24.749-24.749z" fill="#7c84e8"/><path d="M256 112c-30.879 0-56-25.121-56-56s25.121-56 56-56 56 25.121 56 56-25.121 56-56 56zm0-82c-14.337 0-26 11.663-26 26s11.663 26 26 26 26-11.663 26-26-11.663-26-26-26z" fill="#453d83"/><path d="M282 56c0 14.337-11.663 26-26 26v30c30.879 0 56-25.121 56-56S286.879 0 256 0v30c14.337 0 26 11.663 26 26z" fill="#2d2755"/><path d="M408.028 144.972C367.42 104.364 313.429 82 256 82s-111.42 22.364-152.028 62.972C63.364 185.58 41 239.571 41 297s22.364 111.42 62.972 152.028S198.571 512 256 512s111.42-22.364 152.028-62.972S471 354.429 471 297s-22.364-111.42-62.972-152.028zM256 452c-85.468 0-155-69.532-155-155s69.532-155 155-155 155 69.532 155 155-69.532 155-155 155z" fill="#5f55af"/><path d="M471 297c0-57.429-22.364-111.42-62.972-152.028S313.429 82 256 82v60c85.468 0 155 69.532 155 155s-69.532 155-155 155v60c57.429 0 111.42-22.364 152.028-62.972S471 354.429 471 297z" fill="#453d83"/><path d="M333.056 240.069c6.447-12.893-7.231-26.571-20.125-20.125l-84.853 42.427a14.993 14.993 0 00-3.898 2.81l63.64 63.64a15.01 15.01 0 002.81-3.898z" fill="#ff9f22"/><path d="M330.246 222.754L256 297l31.82 31.82a15.01 15.01 0 002.81-3.898l42.427-84.853c3.222-6.447 1.415-13.09-2.811-17.315z" fill="#ff7c48"/></svg>