<svg height="512" width="512" xmlns="http://www.w3.org/2000/svg"><path d="M45 177c-16.569 0-30 13.431-30 30v260c0 16.569 13.431 30 30 30h422c16.569 0 30-13.431 30-30V207c0-16.569-13.431-30-30-30z" fill="#beebfa"/><path d="M467 177H256v320h211c16.569 0 30-13.431 30-30V207c0-16.569-13.431-30-30-30z" fill="#9ee2f8"/><path d="M376 132h-80c-8.284 0-15-6.716-15-15s23.475-15 31.759-15H376c8.271 0 15-6.729 15-15s-6.729-15-15-15c-24.813 0-45-20.187-45-45V15c0-8.284 6.716-15 15-15s15 6.716 15 15v12c0 8.271 6.729 15 15 15 24.813 0 45 20.187 45 45s-20.187 45-45 45z" fill="#ff7c48"/><path d="M467 512H45c-24.813 0-45-20.187-45-45V207c0-24.813 20.187-45 45-45h422c24.813 0 45 20.187 45 45v260c0 24.813-20.187 45-45 45zM45 192c-8.271 0-15 6.729-15 15v260c0 8.271 6.729 15 15 15h422c8.271 0 15-6.729 15-15V207c0-8.271-6.729-15-15-15z" fill="#9ee2f8"/><g fill="#87c0ed"><path d="M467 162H256v30h211c8.271 0 15 6.729 15 15v260c0 8.271-6.729 15-15 15H256v30h211c24.813 0 45-20.187 45-45V207c0-24.813-20.187-45-45-45z"/><path d="M436 272h-90c-8.284 0-15-6.716-15-15s6.716-15 15-15h90c8.284 0 15 6.716 15 15s-6.716 15-15 15zm0 60H296c-8.284 0-15-6.716-15-15s6.716-15 15-15h140c8.284 0 15 6.716 15 15s-6.716 15-15 15zm-70 60h-70c-8.284 0-15-6.716-15-15s6.716-15 15-15h70c8.284 0 15 6.716 15 15s-6.716 15-15 15zm70 0h-20c-8.284 0-15-6.716-15-15s6.716-15 15-15h20c8.284 0 15 6.716 15 15s-6.716 15-15 15zm-70 60h-70c-8.284 0-15-6.716-15-15s6.716-15 15-15h70c8.284 0 15 6.716 15 15s-6.716 15-15 15zm70 0h-20c-8.284 0-15-6.716-15-15s6.716-15 15-15h20c8.284 0 15 6.716 15 15s-6.716 15-15 15z"/></g><path d="M236 452H76c-8.284 0-15-6.716-15-15v-8.789c0-52.302 41.763-95.7 94.063-96.207C207.874 331.493 251 374.305 251 427v10c0 8.284-6.716 15-15 15z" fill="#5f55af"/><path d="M156 332.007V452h80c8.284 0 15-6.716 15-15v-10c0-52.383-42.617-94.992-95-94.993z" fill="#453d83"/><path d="M156 357c-31.705 0-57.5-25.795-57.5-57.5S124.295 242 156 242s57.5 25.795 57.5 57.5S187.705 357 156 357z" fill="#ffe4c2"/><path d="M156 242v115c31.706 0 57.5-25.794 57.5-57.5S187.706 242 156 242z" fill="#f2d1a5"/><path d="M216 132h-80c-24.813 0-45-20.187-45-45s20.187-45 45-45c8.271 0 15-6.729 15-15V15c0-8.284 6.716-15 15-15s15 6.716 15 15v12c0 24.813-20.187 45-45 45-8.271 0-15 6.729-15 15s6.729 15 15 15h63.241c8.284 0 31.759 6.716 31.759 15s-6.716 15-15 15z" fill="#ff9f22"/><path d="M286 222h-60c-7.643 0-14.064-5.747-14.908-13.344L199.241 102h113.518l-11.85 106.656C300.064 216.253 293.643 222 286 222z" fill="#999fed"/><path d="M256 222h30c7.643 0 14.064-5.747 14.908-13.344L312.759 102H256z" fill="#7c84e8"/></svg>