<svg height="512" width="512" xmlns="http://www.w3.org/2000/svg"><path d="M411.786 90.882C379.611 33.975 321.374 0 256 0S132.389 33.975 100.214 90.882s-31.263 124.325 2.44 180.341L238.495 497h35.01l135.841-225.776c33.703-56.016 34.615-123.434 2.44-180.342z" fill="#ff9f22"/><path d="M273.505 497l135.841-225.776c33.703-56.016 34.615-123.434 2.44-180.341S321.374 0 256 0v497z" fill="#ff7c48"/><path d="M336 270H176c-8.284 0-15-6.716-15-15v-8.789c0-52.302 41.763-95.7 94.063-96.207C307.874 149.493 351 192.305 351 245v10c0 8.284-6.716 15-15 15z" fill="#5f55af"/><path d="M256 150.007V270h80c8.284 0 15-6.716 15-15v-10c0-52.383-42.617-94.992-95-94.993z" fill="#453d83"/><path d="M256 175c-31.705 0-57.5-25.795-57.5-57.5S224.295 60 256 60s57.5 25.795 57.5 57.5S287.705 175 256 175z" fill="#ffe4c2"/><path d="M256 60v115c31.706 0 57.5-25.794 57.5-57.5S287.706 60 256 60z" fill="#f2d1a5"/><path d="M396 512H116c-8.284 0-15-6.716-15-15s6.716-15 15-15h280c8.284 0 15 6.716 15 15s-6.716 15-15 15z" fill="#d6fc7e"/><path d="M411 497c0-8.284-6.716-15-15-15H256v30h140c8.284 0 15-6.716 15-15z" fill="#b2fa09"/></svg>