<svg height="512" width="512" xmlns="http://www.w3.org/2000/svg"><path d="M65 212c-8.284 0-15-6.716-15-15V55c0-30.327 24.673-55 55-55h50c8.284 0 15 6.716 15 15s-6.716 15-15 15h-50c-13.785 0-25 11.215-25 25v142c0 8.284-6.716 15-15 15z" fill="#5f55af"/><path d="M155 0h-50C89.25 0 75.036 6.665 65 17.31V212c8.284 0 15-6.716 15-15V55c0-13.785 11.215-25 25-25h50c8.284 0 15-6.716 15-15s-6.716-15-15-15z" fill="#453d83"/><path d="M210 55C210 24.389 184.863-.462 154.146.007 123.967.467 100 25.653 100 55.835V60c0 8.284 6.716 15 15 15h80c8.284 0 15-6.716 15-15z" fill="#fff79f"/><path d="M100 60v15c0 8.284 6.716 15 15 15h80c8.284 0 15-6.716 15-15V60z" fill="#ffde55"/><path d="M230 317c0-8.284-6.716-15-15-15H15c-8.284 0-15 6.716-15 15v82.5l17 15-17 15V497c0 8.284 6.716 15 15 15h200c8.284 0 15-6.716 15-15v-67.5l-12-15 12-15z" fill="#453d83"/><path d="M230 317c0-8.284-6.716-15-15-15H115v210h100c8.284 0 15-6.716 15-15v-67.5l-12-15 12-15z" fill="#2d2755"/><path d="M85 182H45c-24.853 0-45 20.147-45 45v15c0 8.284 6.716 15 15 15h115v-30c0-24.853-20.147-45-45-45z" fill="#beebfa"/><path d="M130 227c0-24.853-20.147-45-45-45H65v75h65z" fill="#9ee2f8"/><path d="M477 15H277c-11.046 0-20 8.954-20 20v142c0 11.046 8.954 20 20 20h200c11.046 0 20-8.954 20-20V35c0-11.046-8.954-20-20-20z" fill="#5f55af"/><path d="M421.796 194.534A15 15 0 00407 182h-60a15 15 0 00-14.796 12.534l-10 60h109.592z" fill="#9ee2f8"/><path d="M477 15H377v182h100c11.046 0 20-8.954 20-20V35c0-11.046-8.954-20-20-20z" fill="#453d83"/><path d="M421.796 194.534A15 15 0 00407 182h-30v72.534h54.796z" fill="#87c0ed"/><path d="M497 302h-15v195c0 8.284 6.716 15 15 15s15-6.716 15-15V317c0-8.284-6.716-15-15-15z" fill="#2d2755"/><path d="M100 302v45c0 8.284 6.716 15 15 15s15-6.716 15-15v-45zm0 112.5v45c0 8.284 6.716 15 15 15s15-6.716 15-15v-45z" fill="#fff79f"/><path d="M296 512c-8.284 0-15-6.716-15-15v-75h30v75c0 8.284-6.716 15-15 15z" fill="#5f55af"/><path d="M416 512c-8.284 0-15-6.716-15-15v-75h30v75c0 8.284-6.716 15-15 15z" fill="#453d83"/><path d="M436 362H276c-8.284 0-15 6.716-15 15v45c0 8.284 6.716 15 15 15h160c8.284 0 15-6.716 15-15v-45c0-8.284-6.716-15-15-15z" fill="#ff9f22"/><path d="M436 362h-80v75h80c8.284 0 15-6.716 15-15v-45c0-8.284-6.716-15-15-15z" fill="#ff7c48"/><path d="M130 347v-45h-15v60c8.284 0 15-6.716 15-15zm0 112.5v-45h-15v60c8.284 0 15-6.716 15-15z" fill="#ffde55"/><path d="M477 0H277c-19.299 0-35 15.701-35 35v142c0 19.299 15.701 35 35 35h200c19.299 0 35-15.701 35-35V35c0-19.299-15.701-35-35-35zM272 157V35c0-2.757 2.243-5 5-5h200c2.757 0 5 2.243 5 5v122z" fill="#beebfa"/><path d="M477 0H377v30h100c2.757 0 5 2.243 5 5v122H377v55h100c19.299 0 35-15.701 35-35V35c0-19.299-15.701-35-35-35z" fill="#9ee2f8"/><path d="M497 242H0v75h512v-60c0-8.284-6.716-15-15-15z" fill="#5f55af"/><path d="M512 257c0-8.284-6.716-15-15-15H115v75h397z" fill="#453d83"/><path d="M0 399.5h230v30H0z" fill="#5f55af"/><path d="M115 399.5h115v30H115z" fill="#453d83"/></svg>