<svg height="512" width="512" xmlns="http://www.w3.org/2000/svg"><path d="M511.955 495.848l-5.149-66.941c-.983-12.778-16.501-18.518-25.562-9.456l-7.031 7.031L85.518 37.788l7.031-7.031c9.062-9.062 3.321-24.579-9.456-25.562L16.152.045C6.98-.66-.66 6.98.045 16.152l5.149 66.941c.983 12.778 16.501 18.518 25.562 9.456l7.031-7.031 388.694 388.694-7.031 7.031c-9.062 9.062-3.321 24.579 9.456 25.562l66.941 5.149c9.173.706 16.813-6.934 16.108-16.106z" fill="#d6fc7e"/><path d="M4.395 4.395A14.932 14.932 0 00.046 16.152l5.149 66.941c.983 12.778 16.501 18.518 25.562 9.456l7.031-7.031 388.694 388.694-7.031 7.031c-9.062 9.062-3.321 24.579 9.456 25.562l66.941 5.149a14.932 14.932 0 0011.757-4.349z" fill="#b2fa09"/><path d="M.045 495.848l5.149-66.941c.983-12.778 16.501-18.518 25.562-9.456l7.031 7.031L426.482 37.788l-7.031-7.031c-9.062-9.062-3.321-24.579 9.456-25.562L495.848.046c9.172-.705 16.812 6.935 16.106 16.106l-5.149 66.941c-.983 12.778-16.501 18.518-25.562 9.456l-7.031-7.031L85.518 474.212l7.031 7.031c9.062 9.062 3.321 24.579-9.456 25.562l-66.941 5.149C6.98 512.66-.66 505.02.045 495.848z" fill="#ff9f22"/><path d="M507.606 4.395a14.932 14.932 0 014.349 11.757l-5.149 66.941c-.983 12.778-16.501 18.518-25.562 9.456l-7.031-7.031L85.518 474.212l7.031 7.031c9.062 9.062 3.321 24.579-9.456 25.562l-66.941 5.149a14.932 14.932 0 01-11.757-4.349z" fill="#ff7c48"/><path d="M161 185v110c0 8.284 6.716 15 15 15h25v187c0 8.284 6.716 15 15 15h80c8.284 0 15-6.716 15-15V310h25c8.284 0 15-6.716 15-15V185c0-52.467-42.533-95-95-95s-95 42.533-95 95z" fill="#5f55af"/><path d="M256 90v422h40c8.284 0 15-6.716 15-15V310h25c8.284 0 15-6.716 15-15V185c0-52.467-42.533-95-95-95z" fill="#453d83"/><path d="M256 115c-31.705 0-57.5-25.795-57.5-57.5S224.295 0 256 0s57.5 25.795 57.5 57.5S287.706 115 256 115z" fill="#ffe4c2"/><path d="M256 0v115c31.706 0 57.5-25.794 57.5-57.5S287.706 0 256 0z" fill="#f2d1a5"/></svg>