<svg height="512" width="512" xmlns="http://www.w3.org/2000/svg"><path d="M336 0H176c-30.327 0-55 24.673-55 55v160c0 30.327 24.673 55 55 55h160c30.327 0 55-24.673 55-55V55c0-30.327-24.673-55-55-55z" fill="#ff9f22"/><path d="M336 0h-80v270h80c30.327 0 55-24.673 55-55V55c0-30.327-24.673-55-55-55z" fill="#ff7c48"/><path d="M496 512H321v-23.789c0-52.302 41.763-95.7 94.063-96.207C467.874 391.493 511 434.305 511 487v10c0 8.284-6.716 15-15 15z" fill="#beebfa"/><path d="M416 392.007V512h80c8.284 0 15-6.716 15-15v-10c0-52.383-42.617-94.992-95-94.993z" fill="#9ee2f8"/><path d="M416 417c-31.705 0-57.5-25.795-57.5-57.5S384.295 302 416 302s57.5 25.795 57.5 57.5S447.705 417 416 417z" fill="#ffe4c2"/><path d="M416 302v115c31.706 0 57.5-25.794 57.5-57.5S447.706 302 416 302z" fill="#f2d1a5"/><path d="M191 512H16c-8.284 0-15-6.716-15-15v-8.789c0-52.302 41.763-95.7 94.063-96.207C147.874 391.493 191 434.305 191 487z" fill="#fff79f"/><path d="M96 392.007V512h95v-25c0-52.383-42.617-94.992-95-94.993z" fill="#ffde55"/><path d="M96 417c-31.705 0-57.5-25.795-57.5-57.5S64.295 302 96 302s57.5 25.795 57.5 57.5S127.705 417 96 417z" fill="#ffe4c2"/><path d="M96 302v115c31.706 0 57.5-25.794 57.5-57.5S127.706 302 96 302z" fill="#f2d1a5"/><path d="M220.645 188.033l-35.355-35.355c-5.858-5.858-5.858-15.355 0-21.213 5.858-5.858 15.355-5.858 21.213 0l24.749 24.748 74.246-74.246c5.858-5.858 15.355-5.858 21.213 0 5.858 5.858 5.858 15.355 0 21.213l-84.853 84.853c-5.858 5.858-15.355 5.858-21.213 0z" fill="#fff79f"/><path d="M326.711 81.967c-5.858-5.858-15.355-5.858-21.213 0L256 131.464v42.427l70.711-70.711c5.858-5.857 5.858-15.355 0-21.213z" fill="#ffde55"/><path d="M351 512H161v-23.789c0-52.302 41.763-95.7 94.063-96.207C307.874 391.493 351 434.305 351 487z" fill="#5f55af"/><path d="M256 392.007V512h95v-25c0-52.383-42.617-94.992-95-94.993z" fill="#453d83"/><path d="M256 417c-31.705 0-57.5-25.795-57.5-57.5S224.295 302 256 302s57.5 25.795 57.5 57.5S287.705 417 256 417z" fill="#ffe4c2"/><path d="M256 302v115c31.706 0 57.5-25.794 57.5-57.5S287.706 302 256 302z" fill="#f2d1a5"/></svg>