<svg height="512" width="512" xmlns="http://www.w3.org/2000/svg"><path d="M210 152h-90V52h90z" fill="#999fed"/><path d="M392 152h-90V52h90z" fill="#7c84e8"/><path d="M215 0H115c-8.284 0-15 6.716-15 15v37c0 8.284 6.716 15 15 15h100c8.284 0 15-6.716 15-15V15c0-8.284-6.716-15-15-15z" fill="#fff79f"/><path d="M397 0H297c-8.284 0-15 6.716-15 15v37c0 8.284 6.716 15 15 15h100c8.284 0 15-6.716 15-15V15c0-8.284-6.716-15-15-15z" fill="#ffde55"/><path d="M377 122H271l-15 20-15-20H135c-24.813 0-45 20.187-45 45v50c0 8.284 6.716 15 15 15h302c8.284 0 15-6.716 15-15v-50c0-24.813-20.187-45-45-45z" fill="#fff79f"/><path d="M377 122H271l-15 20v90h151c8.284 0 15-6.716 15-15v-50c0-24.813-20.187-45-45-45z" fill="#ffde55"/><path d="M256 167c8.284 0 15-6.716 15-15v-30h-30v30c0 8.284 6.716 15 15 15z" fill="#ffde55"/><path d="M256 122v45c8.284 0 15-6.716 15-15v-30z" fill="#ffcd00"/><path d="M312 202H200c-8.284 0-15 6.716-15 15v175c0 8.284 6.716 15 15 15h41l15-20 15 20h41c8.284 0 15-6.716 15-15V217c0-8.284-6.716-15-15-15z" fill="#5f55af"/><path d="M312 202h-56v185l15 20h41c8.284 0 15-6.716 15-15V217c0-8.284-6.716-15-15-15z" fill="#453d83"/><path d="M105 202c-24.521 0-45.625 18.304-49.092 42.577L28.419 437c0 8.284 6.716 15 15 15H185c8.284 0 15-6.716 15-15V202z" fill="#999fed"/><path d="M456.092 244.578C452.625 220.304 431.521 202 407 202h-95v235c0 8.284 6.716 15 15 15h141.581c8.284 0 15-6.716 15-15z" fill="#7c84e8"/><path d="M483.581 437H312v60h179.982c0-.706-.031-1.414-.132-2.122z" fill="#5f69e3"/><path d="M497 512H307c-8.284 0-15-6.716-15-15s6.716-15 15-15h190c8.284 0 15 6.716 15 15s-6.716 15-15 15z" fill="#ffde55"/><path d="M20.15 494.878a14.985 14.985 0 00-.132 2.122H200v-60H28.419z" fill="#7c84e8"/><path d="M205 512H15c-8.284 0-15-6.716-15-15s6.716-15 15-15h190c8.284 0 15 6.716 15 15s-6.716 15-15 15z" fill="#fff79f"/><path d="M256 282c-8.284 0-15 6.716-15 15v110h30V297c0-8.284-6.716-15-15-15z" fill="#453d83"/><path d="M271 297c0-8.284-6.716-15-15-15v125h15z" fill="#2d2755"/></svg>