<svg height="512" width="512" xmlns="http://www.w3.org/2000/svg"><path d="M126.078 332.01l-77.953 45.006a241.17 241.17 0 0087.858 87.858l45.006-77.953a150.728 150.728 0 01-54.911-54.911z" fill="#999fed"/><path d="M180.99 386.922l-45.006 77.953C171.289 485.302 212.277 497 256 497v-90c-27.327 0-52.944-7.311-75.01-20.078z" fill="#ff9f22"/><path d="M106 257H16c0 43.723 11.698 84.711 32.125 120.017l77.953-45.006C113.311 309.944 106 284.327 106 257z" fill="#999fed"/><path d="M256 407v90c43.723 0 84.711-11.698 120.017-32.125l-45.006-77.953C308.944 399.689 283.327 407 256 407z" fill="#ff7c48"/><path d="M406 257c0 27.327-7.311 52.944-20.078 75.01l77.953 45.006C484.302 341.711 496 300.723 496 257zm-74.99 129.922l45.006 77.953a241.17 241.17 0 0087.858-87.858l-77.953-45.006a150.736 150.736 0 01-54.911 54.911z" fill="#ffde55"/><path d="M496 242h-90c-8.284 0-15 6.716-15 15 0 74.439-60.561 135-135 135s-135-60.561-135-135c0-8.284-6.716-15-15-15H16c-8.284 0-15 6.716-15 15 0 68.113 26.524 132.149 74.688 180.312C123.851 485.476 187.887 512 256 512s132.149-26.524 180.312-74.688S511 325.113 511 257c0-8.284-6.716-15-15-15zM241 481.492c-30.064-1.989-58.534-9.903-84.245-22.594l30.086-52.109A163.724 163.724 0 00241 421.317zm30-60.176a163.724 163.724 0 0054.159-14.528l30.086 52.11c-25.712 12.691-54.181 20.605-84.245 22.594zM91.676 272a163.691 163.691 0 0014.536 54.16l-52.101 30.08A223.296 223.296 0 0131.495 272zM69.148 382.199l52.104-30.083a166.34 166.34 0 0039.631 39.63l-30.085 52.109a226.854 226.854 0 01-61.65-61.656zm312.054 61.657l-30.085-52.109a166.382 166.382 0 0039.631-39.631l52.105 30.083a226.89 226.89 0 01-61.651 61.657zm76.688-87.615l-52.101-30.081A163.691 163.691 0 00420.325 272h60.182a223.362 223.362 0 01-22.617 84.241z" fill="#beebfa"/><path d="M35 30H15C6.716 30 0 23.284 0 15S6.716 0 15 0h20c8.284 0 15 6.716 15 15s-6.716 15-15 15zm140 0H95c-8.284 0-15-6.716-15-15S86.716 0 95 0h80c8.284 0 15 6.716 15 15s-6.716 15-15 15zM35 90H15C6.716 90 0 83.284 0 75s6.716-15 15-15h20c8.284 0 15 6.716 15 15s-6.716 15-15 15zm140 0H95c-8.284 0-15-6.716-15-15s6.716-15 15-15h80c8.284 0 15 6.716 15 15s-6.716 15-15 15zM35 150H15c-8.284 0-15-6.716-15-15s6.716-15 15-15h20c8.284 0 15 6.716 15 15s-6.716 15-15 15zm140 0H95c-8.284 0-15-6.716-15-15s6.716-15 15-15h80c8.284 0 15 6.716 15 15s-6.716 15-15 15z" fill="#5f55af"/><path d="M357 30h-20c-8.284 0-15-6.716-15-15s6.716-15 15-15h20c8.284 0 15 6.716 15 15s-6.716 15-15 15zm140 0h-80c-8.284 0-15-6.716-15-15s6.716-15 15-15h80c8.284 0 15 6.716 15 15s-6.716 15-15 15zM357 90h-20c-8.284 0-15-6.716-15-15s6.716-15 15-15h20c8.284 0 15 6.716 15 15s-6.716 15-15 15zm140 0h-80c-8.284 0-15-6.716-15-15s6.716-15 15-15h80c8.284 0 15 6.716 15 15s-6.716 15-15 15zm-140 60h-20c-8.284 0-15-6.716-15-15s6.716-15 15-15h20c8.284 0 15 6.716 15 15s-6.716 15-15 15zm140 0h-80c-8.284 0-15-6.716-15-15s6.716-15 15-15h80c8.284 0 15 6.716 15 15s-6.716 15-15 15z" fill="#453d83"/><path d="M161 317c0 8.284 6.716 15 15 15h160c8.284 0 15-6.716 15-15 0-52.467-42.533-95-95-95s-95 42.533-95 95z" fill="#5f55af"/><path d="M256 332h80c8.284 0 15-6.716 15-15 0-52.467-42.533-95-95-95z" fill="#453d83"/><path d="M256 247c-31.705 0-57.5-25.795-57.5-57.5S224.295 132 256 132s57.5 25.795 57.5 57.5S287.705 247 256 247z" fill="#ffe4c2"/><path d="M256 132v115c31.706 0 57.5-25.794 57.5-57.5S287.706 132 256 132z" fill="#f2d1a5"/><path d="M436.312 437.312C484.476 389.149 511 325.113 511 257c0-8.284-6.716-15-15-15h-90c-8.284 0-15 6.716-15 15 0 74.439-60.561 135-135 135v120c68.113 0 132.149-26.524 180.312-74.688zM420.324 272h60.182a223.342 223.342 0 01-22.616 84.241l-52.101-30.081A163.714 163.714 0 00420.324 272zm-29.577 80.116l52.105 30.083a226.854 226.854 0 01-61.65 61.656l-30.085-52.109a166.355 166.355 0 0039.63-39.63zM271 421.316a163.724 163.724 0 0054.159-14.528l30.086 52.11c-25.712 12.691-54.181 20.605-84.245 22.594z" fill="#9ee2f8"/></svg>