<svg height="512" width="512" xmlns="http://www.w3.org/2000/svg"><path d="M302 362h60v-15c0-41.421 33.579-75 75-75s75 33.579 75 75v150c0 8.284-6.716 15-15 15h-85c-8.284 0-50-6.716-50-15v-75h-60c-16.569 0-30-13.431-30-30 0-16.569 13.431-30 30-30z" fill="#5f55af"/><path d="M437 272v240h60c8.284 0 15-6.716 15-15V347c0-41.421-33.579-75-75-75z" fill="#453d83"/><path d="M210 362h-60v-15c0-41.421-33.579-75-75-75S0 305.579 0 347v150c0 8.284 6.716 15 15 15h85c8.284 0 50-6.716 50-15v-75h60c16.569 0 30-13.431 30-30 0-16.569-13.431-30-30-30z" fill="#5f55af"/><path d="M210 362h-60v-15c0-41.421-33.579-75-75-75S0 305.579 0 347v150c0 8.284 6.716 15 15 15h85c8.284 0 50-6.716 50-15v-75h60c16.569 0 30-13.431 30-30 0-16.569-13.431-30-30-30z" fill="#5f55af"/><path d="M210 362h-60v-15c0-41.421-33.579-75-75-75v240h25c8.284 0 50-6.716 50-15v-75h60c16.569 0 30-13.431 30-30 0-16.569-13.431-30-30-30zm227 35v-20c0-8.284 6.716-15 15-15 8.284 0 15 6.716 15 15v20c0 30.376-24.624 55-55 55h-50v-30h50c13.807 0 25-11.193 25-25z" fill="#453d83"/><path d="M452 362c-8.284 0-15 6.716-15 15v68.985c17.804-9.105 30-27.615 30-48.985v-20c0-8.284-6.716-15-15-15z" fill="#2d2755"/><path d="M316.002 190c-3.345 0-6.66-1.117-9.372-3.287L260.738 150h-9.477l-45.892 36.713a14.996 14.996 0 01-15.868 1.807A15.004 15.004 0 01181 175v-25h-5c-19.299 0-35-15.701-35-35V35c0-19.299 15.701-35 35-35h160c19.299 0 35 15.701 35 35v80c0 19.299-15.701 35-35 35h-5v25a15.004 15.004 0 01-14.998 15z" fill="#beebfa"/><path d="M336 0h-80v150h4.738l45.892 36.713a15.002 15.002 0 0015.868 1.807A15.003 15.003 0 00331 175v-25h5c19.299 0 35-15.701 35-35V35c0-19.299-15.701-35-35-35z" fill="#9ee2f8"/><path d="M296 90h-80c-8.284 0-15-6.716-15-15s6.716-15 15-15h80c8.284 0 15 6.716 15 15s-6.716 15-15 15z" fill="#9ee2f8"/><path d="M296 60h-40v30h40c8.284 0 15-6.716 15-15s-6.716-15-15-15z" fill="#87c0ed"/><path d="M75 397v-20c0-8.284-6.716-15-15-15-8.284 0-15 6.716-15 15v20c0 30.376 24.624 55 55 55h50v-30h-50c-13.807 0-25-11.193-25-25z" fill="#453d83"/><path d="M75 397v48.985A54.741 54.741 0 00100 452h50v-30h-50c-13.807 0-25-11.193-25-25z" fill="#2d2755"/><path d="M412 512H100v-90h312z" fill="#fff79f"/><path d="M412 512H256v-90h156z" fill="#ffde55"/><path d="M102.5 287C68.037 287 40 258.963 40 224.5S68.037 162 102.5 162s62.5 28.037 62.5 62.5-28.037 62.5-62.5 62.5zM347 224.5c0-34.463 28.037-62.5 62.5-62.5s62.5 28.037 62.5 62.5-28.037 62.5-62.5 62.5-62.5-28.037-62.5-62.5z" fill="#ffe4c2"/><path d="M102.5 162v125c34.463 0 62.5-28.037 62.5-62.5S136.963 162 102.5 162zm307 0v125c34.463 0 62.5-28.037 62.5-62.5S443.963 162 409.5 162z" fill="#f2d1a5"/></svg>