<svg height="512" width="512" xmlns="http://www.w3.org/2000/svg"><path d="M15 15h482v400H15z" fill="#999fed"/><path d="M256 15h241v400H256z" fill="#7c84e8"/><path d="M255.997 260A15.001 15.001 0 01241 245V95c0-19.299 15.701-35 35-35h140c19.299 0 35 15.701 35 35v80c0 19.299-15.701 35-35 35H312.213l-45.606 45.606a14.998 14.998 0 01-10.61 4.394z" fill="#ff9f22"/><path d="M416 60H276a34.798 34.798 0 00-20 6.302V260a14.994 14.994 0 0010.606-4.394L312.213 210H416c19.299 0 35-15.701 35-35V95c0-19.299-15.701-35-35-35z" fill="#ff7c48"/><path d="M376 150h-60c-8.284 0-15-6.716-15-15s6.716-15 15-15h60c8.284 0 15 6.716 15 15s-6.716 15-15 15z" fill="#ff4c04"/><path d="M226 380H66c-8.284 0-15-6.716-15-15v-8.789c0-52.302 41.763-95.7 94.063-96.207C197.874 259.493 241 302.305 241 355v10c0 8.284-6.716 15-15 15z" fill="#5f55af"/><path d="M146 260.007V380h80c8.284 0 15-6.716 15-15v-10c0-52.383-42.617-94.992-95-94.993z" fill="#453d83"/><path d="M146 285c-31.705 0-57.5-25.795-57.5-57.5S114.295 170 146 170s57.5 25.795 57.5 57.5S177.705 285 146 285z" fill="#ffe4c2"/><path d="M146 170v115c31.706 0 57.5-25.794 57.5-57.5S177.706 170 146 170z" fill="#f2d1a5"/><path d="M327.781 400H184.219l-23.659 97h190.88z" fill="#9ee2f8"/><path d="M256 497h95.44l-23.659-97H256z" fill="#87c0ed"/><path d="M366 512H146c-8.284 0-15-6.716-15-15s6.716-15 15-15h220c8.284 0 15 6.716 15 15s-6.716 15-15 15z" fill="#beebfa"/><path d="M381 497c0-8.284-6.716-15-15-15H256v30h110c8.284 0 15-6.716 15-15z" fill="#9ee2f8"/><path d="M497 0H15C6.716 0 0 6.716 0 15v400c0 8.284 6.716 15 15 15h482c8.284 0 15-6.716 15-15V15c0-8.284-6.716-15-15-15zM30 355V30h452v325z" fill="#beebfa"/><path d="M497 0H256v30h226v325H256v75h241c8.284 0 15-6.716 15-15V15c0-8.284-6.716-15-15-15z" fill="#9ee2f8"/></svg>