<svg height="512" width="512" xmlns="http://www.w3.org/2000/svg"><path d="M256 512c-1.452 0-2.904-.211-4.31-.633-61.357-18.407-114.001-55.302-152.239-106.696C61.212 353.278 41 292.253 41 228.194V55a15 15 0 019.429-13.927C118.564 13.819 187.728 0 256 0s137.437 13.819 205.571 41.073A15 15 0 01471 55v173.194c0 64.059-20.212 125.084-58.45 176.478-38.239 51.394-90.882 88.289-152.239 106.696A15.036 15.036 0 01256 512z" fill="#beebfa"/><path d="M412.55 404.671C450.788 353.278 471 292.253 471 228.194V55a15 15 0 00-9.429-13.927C393.437 13.819 324.272 0 256 0v512c1.452 0 2.904-.211 4.311-.633 61.357-18.407 114-55.302 152.239-106.696z" fill="#9ee2f8"/><path d="M256 453.953c-1.807 0-3.613-.326-5.33-.979-45.844-17.428-84.672-47.782-112.286-87.78C110.656 325.03 96 277.657 96 228.196V93.569a15 15 0 0110.389-14.274C156.292 63.174 206.628 55 256 55s99.708 8.174 149.611 24.295A15.001 15.001 0 01416 93.569v134.627c0 49.461-14.656 96.834-42.384 136.998-27.614 39.999-66.441 70.353-112.286 87.78a14.989 14.989 0 01-5.33.979z" fill="#9ee2f8"/><path d="M261.33 452.974c45.845-17.428 84.672-47.782 112.286-87.78C401.344 325.03 416 277.657 416 228.196V93.569a15 15 0 00-10.389-14.274C355.708 63.174 305.372 55 256 55v398.953c1.807 0 3.613-.326 5.33-.979z" fill="#87c0ed"/><path d="M336 322H176c-8.284 0-15-6.716-15-15v-8.789c0-52.302 41.763-95.7 94.063-96.207C307.874 201.493 351 244.305 351 297v10c0 8.284-6.716 15-15 15z" fill="#5f55af"/><path d="M256 202.007V322h80c8.284 0 15-6.716 15-15v-10c0-52.383-42.617-94.992-95-94.993z" fill="#453d83"/><path d="M256 227c-31.705 0-57.5-25.795-57.5-57.5S224.295 112 256 112s57.5 25.795 57.5 57.5S287.705 227 256 227z" fill="#ffe4c2"/><path d="M256 112v115c31.706 0 57.5-25.794 57.5-57.5S287.706 112 256 112z" fill="#f2d1a5"/></svg>