<svg height="512" width="512" xmlns="http://www.w3.org/2000/svg"><path d="M476 512H36c-8.284 0-15-6.716-15-15V97a15 15 0 0110.69-14.367l100-30A14.98 14.98 0 01136 52h240c1.46 0 2.912.213 4.31.633l100 30A15 15 0 01491 97v400c0 8.284-6.716 15-15 15z" fill="#9ee2f8"/><path d="M491 497V97a15 15 0 00-10.69-14.367l-100-30A14.98 14.98 0 00376 52H256v460h220c8.284 0 15-6.716 15-15z" fill="#87c0ed"/><path d="M291.657 194.5c0 8.284-6.716 15-15 15h-41.314c-8.284 0-15-6.716-15-15L201.3 127.849l14.423-4.12 80.841-1 14.423 4.12z" fill="#ff9f22"/><path d="M256 123.23v86.27h20.657c8.284 0 15-6.716 15-15l19.329-67.651-14.423-4.12z" fill="#ff7c48"/><path d="M196.831 381.169l-7.794 61.875a14.999 14.999 0 004.276 12.481l7.081 7.08H311.44V351.56l-9.509-75.491L290 249l2.423-48.423-.766-6.077h-71.314l-11.263 89.42L210 328z" fill="#5f55af"/><path d="M290 249l2.423-48.423-.766-6.077H256v268.106h55.44V351.56l-9.509-75.491z" fill="#453d83"/><path d="M292.423 200.577L209.08 283.92l-12.249 97.249 105.1-105.1zM311.44 351.56L200.393 462.606l45 45c5.858 5.858 15.355 5.858 21.213 0l52.081-52.08a15 15 0 004.276-12.481z" fill="#ff9f22"/><path d="M311.44 351.56L256 407v105c3.839 0 7.678-1.465 10.607-4.394l52.081-52.08a15 15 0 004.276-12.481zM256 322l45.931-45.931-9.508-75.492L256 237z" fill="#ff7c48"/><path d="M386.862 46.655l-40-42H165.138l-40 42a15 15 0 00-3.474 14.756l40 130a15.004 15.004 0 0010.238 10.019 15.006 15.006 0 0013.976-3.141L256 136.932l70.123 61.357a15.015 15.015 0 0013.976 3.141 15 15 0 0010.238-10.019l40-130a15 15 0 00-3.475-14.756z" fill="#beebfa"/><path d="M336 0H176a15.002 15.002 0 00-10.862 4.655L256 136.932 346.862 4.655A15.002 15.002 0 00336 0z" fill="#9ee2f8"/><path d="M346.862 4.655H256v132.276l70.123 61.357a15.015 15.015 0 0013.976 3.141 15 15 0 0010.238-10.019l40-130a15 15 0 00-3.474-14.756z" fill="#9ee2f8"/><path d="M346.862 4.655A15.002 15.002 0 00336 0h-80v136.932z" fill="#87c0ed"/></svg>