<svg height="512" width="512" xmlns="http://www.w3.org/2000/svg"><path d="M107 291v180c0 11.046 8.954 20 20 20h43.945c14.39 0 26.055-11.665 26.055-26.055a26.053 26.053 0 00-11.603-21.679L167 431V291" fill="#453d83"/><path d="M411.427 150.432C397.191 131.452 377.863 121 357 121v190c20.863 0 40.191-10.452 54.427-29.432C424.693 263.879 432 240.593 432 216s-7.307-47.879-20.573-65.568z" fill="#ff9f22"/><path d="M357 311c20.863 0 40.191-10.452 54.427-29.432C424.693 263.879 432 240.593 432 216h-75z" fill="#ff7c48"/><path d="M497 231h-30c-8.284 0-15-6.716-15-15 0-8.284 6.716-15 15-15h30c8.284 0 15 6.716 15 15 0 8.284-6.716 15-15 15zm-52.99-82.5c-4.142-7.174-1.684-16.348 5.49-20.49l25.98-15c7.174-4.142 16.348-1.684 20.49 5.49 4.142 7.174 1.684 16.348-5.49 20.49l-25.98 15c-7.174 4.142-16.348 1.684-20.49-5.49z" fill="#5f55af"/><path d="M475.48 318.99l-25.98-15c-7.174-4.142-9.632-13.316-5.49-20.49 4.142-7.174 13.316-9.632 20.49-5.49l25.98 15c7.174 4.142 9.632 13.316 5.49 20.49-4.141 7.174-13.315 9.632-20.49 5.49zM452 216c0 8.284 6.716 15 15 15h30c8.284 0 15-6.716 15-15z" fill="#453d83"/><path d="M67 281H35c-19.33 0-35-15.67-35-35v-60c0-19.33 15.67-35 35-35h32c8.284 0 15 6.716 15 15v100c0 8.284-6.716 15-15 15z" fill="#beebfa"/><path d="M0 216v30c0 19.33 15.67 35 35 35h32c8.284 0 15-6.716 15-15v-50z" fill="#9ee2f8"/><path d="M144.565 121v190L297 361.812h15V70.188h-15z" fill="#beebfa"/><path d="M144.565 216v95L297 361.812h15V216z" fill="#9ee2f8"/><path d="M297 70.188v291.624l60 20V50.188z" fill="#5f55af"/><path d="M297 216v145.812l60 20V216z" fill="#453d83"/><path d="M147 121H97c-24.813 0-45 20.187-45 45v.833l15 15-15 15v38.333l15 15-15 15V266c0 24.813 20.187 45 45 45h50c8.284 0 15-6.716 15-15V136c0-8.284-6.716-15-15-15z" fill="#ff9f22"/><path d="M52 216v19.167l15 15-15 15V266c0 24.813 20.187 45 45 45h50c8.284 0 15-6.716 15-15v-80zm60-34.167c0-8.284-6.716-15-15-15H52v30h45c8.284 0 15-6.715 15-15z" fill="#ff7c48"/><path d="M112 250.167c0-8.284-6.716-15-15-15H52v30h45c8.284 0 15-6.716 15-15z" fill="#ff4c04"/><path d="M357 411c-8.284 0-15-6.716-15-15V36c0-8.284 6.716-15 15-15s15 6.716 15 15v360c0 8.284-6.716 15-15 15z" fill="#beebfa"/><path d="M342 216v180c0 8.284 6.716 15 15 15s15-6.716 15-15V216z" fill="#9ee2f8"/></svg>