<svg height="512" width="512" xmlns="http://www.w3.org/2000/svg"><path d="M8.787 503.213c11.716 11.716 30.711 11.716 42.426 0l42.855-42.855c5.858-5.858 5.858-15.355 0-21.213l-21.213-21.213c-5.858-5.858-15.355-5.858-21.213 0L8.787 460.787c-11.716 11.716-11.716 30.71 0 42.426z" fill="#beebfa"/><path d="M94.068 460.358c5.858-5.858 5.858-15.355 0-21.213l-10.607-10.607-74.674 74.675c11.716 11.716 30.711 11.716 42.426 0zm35.737-99.445l76.928-76.927 21.21 21.21-76.928 76.927z" fill="#9ee2f8"/><path d="M140.41 371.52l76.928-76.928 10.605 10.605-76.928 76.928z" fill="#87c0ed"/><circle cx="327" cy="185" fill="#999fed" r="170"/><path d="M327 355c93.888 0 170-76.112 170-170 0-46.944-19.028-89.444-49.792-120.208L206.792 305.208C237.556 335.972 280.056 355 327 355z" fill="#7c84e8"/><path d="M327 370c-102.009 0-185-82.991-185-185S224.991 0 327 0s185 82.991 185 185-82.991 185-185 185zm0-340c-85.467 0-155 69.533-155 155s69.533 155 155 155 155-69.533 155-155S412.467 30 327 30z" fill="#beebfa"/><path d="M436.55 75.45C464.617 103.516 482 142.266 482 185c0 85.467-69.533 155-155 155-42.734 0-81.484-17.383-109.55-45.45l-21.203 21.203C229.745 349.252 275.995 370 327 370c102.009 0 185-82.991 185-185 0-51.005-20.748-97.255-54.247-130.753z" fill="#9ee2f8"/><path d="M161.673 371.541l-21.213-21.213c-5.858-5.858-15.355-5.858-21.213 0l-67.604 67.604 42.426 42.426 67.604-67.604c5.858-5.858 5.858-15.356 0-21.213z" fill="#ff9f22"/><path d="M94.069 460.358l67.604-67.604c5.858-5.858 5.858-15.355 0-21.213l-10.607-10.607-78.211 78.211zM212 175v60c0 19.33 15.67 35 35 35h160c19.33 0 35-15.67 35-35v-60c0-8.284-6.716-15-15-15H227c-8.284 0-15 6.716-15 15z" fill="#ff7c48"/><path d="M427 160H327v110h80c19.33 0 35-15.67 35-35v-60c0-8.284-6.716-15-15-15z" fill="#ff4c04"/><path d="M387 210c-8.284 0-15-6.716-15-15v-35h30v35c0 8.284-6.716 15-15 15z" fill="#ffde55"/><path d="M267 210c-8.284 0-15-6.716-15-15v-35h30v35c0 8.284-6.716 15-15 15z" fill="#fff79f"/><path d="M367 140c-8.284 0-15-6.716-15-15V95c0-2.757-2.243-5-5-5h-40c-2.757 0-5 2.243-5 5v30c0 8.284-6.716 15-15 15s-15-6.716-15-15V95c0-19.299 15.701-35 35-35h40c19.299 0 35 15.701 35 35v30c0 8.284-6.716 15-15 15z" fill="#5f55af"/><path d="M352 95v30c0 8.284 6.716 15 15 15s15-6.716 15-15V95c0-19.299-15.701-35-35-35h-20v30h20c2.757 0 5 2.243 5 5z" fill="#453d83"/><path d="M442 145c0-19.299-15.701-35-35-35H247c-19.299 0-35 15.701-35 35v30h230z" fill="#ff9f22"/><path d="M442 145c0-19.299-15.701-35-35-35h-80v65h115z" fill="#ff7c48"/></svg>