<svg height="512" width="512" xmlns="http://www.w3.org/2000/svg"><path d="M322 185v90c0 8.284 6.716 15 15 15h25v207h110V290h25c8.284 0 15-6.716 15-15v-90c0-52.467-42.533-95-95-95s-95 42.533-95 95z" fill="#5f55af"/><path d="M417 90v407h55V290h25c8.284 0 15-6.716 15-15v-90c0-52.467-42.533-95-95-95z" fill="#453d83"/><path d="M82.5 497H15c-8.284 0-15-6.716-15-15v-97c0-8.284 6.716-15 15-15h67.5z" fill="#ff9f22"/><path d="M150 497H67.5V305c0-8.284 6.716-15 15-15H150z" fill="#ff7c48"/><path d="M217.5 497H135V225c0-8.284 6.716-15 15-15h67.5z" fill="#ff4c04"/><path d="M291.332 116.214l-43.693-50.976c-5.987-6.984-16.791-6.984-22.778 0l-43.693 50.976c-8.34 9.73-1.426 24.762 11.389 24.762h9.943V497H270V140.976h9.943c12.816 0 19.729-15.032 11.389-24.762z" fill="#d6fc7e"/><path d="M417 115c-31.705 0-57.5-25.795-57.5-57.5S385.295 0 417 0s57.5 25.795 57.5 57.5S448.705 115 417 115z" fill="#ffe4c2"/><path d="M291.332 116.214l-43.693-50.976A14.933 14.933 0 00236.25 60v437H270V140.976h9.943c12.816 0 19.729-15.032 11.389-24.762z" fill="#b2fa09"/><path d="M497 482H0v15c0 8.284 6.716 15 15 15h482c8.284 0 15-6.716 15-15s-6.716-15-15-15z" fill="#5f55af"/><path d="M497 482H236.25v30H497c8.284 0 15-6.716 15-15s-6.716-15-15-15z" fill="#453d83"/><path d="M417 0v115c31.706 0 57.5-25.794 57.5-57.5S448.706 0 417 0z" fill="#f2d1a5"/></svg>