<svg height="512" width="512" xmlns="http://www.w3.org/2000/svg"><path d="M15 95h482v320H15z" fill="#5f55af"/><path d="M256 95h241v320H256z" fill="#453d83"/><path d="M327.781 400H184.219l-23.659 97h190.88z" fill="#7c84e8"/><path d="M256 497h95.44l-23.659-97H256z" fill="#5f69e3"/><path d="M366 512H146c-8.284 0-15-6.716-15-15s6.716-15 15-15h220c8.284 0 15 6.716 15 15s-6.716 15-15 15z" fill="#999fed"/><path d="M381 497c0-8.284-6.716-15-15-15H256v30h110c8.284 0 15-6.716 15-15z" fill="#7c84e8"/><path d="M497 80H15C6.716 80 0 86.716 0 95v320c0 8.284 6.716 15 15 15h482c8.284 0 15-6.716 15-15V95c0-8.284-6.716-15-15-15zM30 355V110h452v245z" fill="#999fed"/><path d="M497 80H256v30h226v245H256v75h241c8.284 0 15-6.716 15-15V95c0-8.284-6.716-15-15-15z" fill="#7c84e8"/><path d="M376 0H76c-8.284 0-15 6.716-15 15v355h390V75z" fill="#beebfa"/><path d="M256 370h195V75L376 0H256z" fill="#9ee2f8"/><path d="M376 0v60c0 8.284 6.716 15 15 15h60c0-41.421-33.579-75-75-75z" fill="#87c0ed"/><path d="M30 355h452l15 75H15z" fill="#999fed"/><path d="M482 355H256v75h241" fill="#7c84e8"/><path d="M386 135h-40c-8.284 0-15-6.716-15-15s6.716-15 15-15h40c8.284 0 15 6.716 15 15s-6.716 15-15 15zm0 60h-40c-8.284 0-15-6.716-15-15s6.716-15 15-15h40c8.284 0 15 6.716 15 15s-6.716 15-15 15zm0 60h-40c-8.284 0-15-6.716-15-15s6.716-15 15-15h40c8.284 0 15 6.716 15 15s-6.716 15-15 15z" fill="#87c0ed"/><path d="M386 315H126c-8.284 0-15-6.716-15-15s6.716-15 15-15h260c8.284 0 15 6.716 15 15s-6.716 15-15 15z" fill="#9ee2f8"/><path d="M256 315h130c8.284 0 15-6.716 15-15s-6.716-15-15-15H256z" fill="#87c0ed"/><path d="M121 240c0 8.284 6.716 15 15 15h160c8.284 0 15-6.716 15-15 0-52.467-42.533-95-95-95s-95 42.533-95 95z" fill="#5f55af"/><path d="M216 255h80c8.284 0 15-6.716 15-15 0-52.467-42.533-95-95-95z" fill="#453d83"/><path d="M216 170c-31.705 0-57.5-25.795-57.5-57.5S184.295 55 216 55s57.5 25.795 57.5 57.5S247.705 170 216 170z" fill="#ffe4c2"/><path d="M216 55v115c31.706 0 57.5-25.794 57.5-57.5S247.706 55 216 55z" fill="#f2d1a5"/></svg>