<svg height="512" width="512" xmlns="http://www.w3.org/2000/svg"><path d="M386 512H126c-8.284 0-15-6.716-15-15v-29.01c0-30.877 21.976-57.683 52.253-63.738l59.806-11.961A15.056 15.056 0 01226 392h60c.987 0 1.973.098 2.941.291l59.806 11.961C379.024 410.308 401 437.113 401 467.99V497c0 8.284-6.716 15-15 15z" fill="#5f55af"/><path d="M348.747 404.252l-59.806-11.961A15.049 15.049 0 00286 392h-30v120h130c8.284 0 15-6.716 15-15v-29.01c0-30.877-21.976-57.682-52.253-63.738z" fill="#453d83"/><path d="M256 434.5c-20.711 0-37.5-16.789-37.5-37.5v-36.826a7.5 7.5 0 017.5-7.5h60a7.5 7.5 0 017.5 7.5V397c0 20.711-16.789 37.5-37.5 37.5z" fill="#f2d1a5"/><path d="M256 434.5c20.711 0 37.5-16.789 37.5-37.5v-36.826a7.5 7.5 0 00-7.5-7.5h-30z" fill="#f2bb88"/><path d="M256 382c-46.869 0-85-38.131-85-85v-50c0-8.284 6.716-15 15-15h140c8.284 0 15 11.716 15 20v45c0 46.869-38.131 85-85 85z" fill="#ffe4c2"/><path d="M341 297v-45c0-8.284-6.716-20-15-20h-70v150c46.869 0 85-38.131 85-85z" fill="#f2d1a5"/><path d="M296 172h-95c-33.084 0-60 26.916-60 60s26.916 60 60 60h5c8.284 0 15-6.716 15-15v-25h120v-35c0-24.813-20.186-45-45-45z" fill="#ff9f22"/><path d="M341 217c0-24.813-20.187-45-45-45h-40v80h85z" fill="#ff7c48"/><path d="M288.01 148.277L256 131.448l-32.01 16.829c-11.004 5.785-23.866-3.559-21.764-15.813l6.113-35.644-25.897-25.243c-8.903-8.678-3.99-23.798 8.313-25.585l35.789-5.2 16.005-32.43c5.502-11.149 21.4-11.149 26.902 0l16.005 32.43 35.789 5.2c12.303 1.788 17.216 16.907 8.313 25.585L303.661 96.82l6.113 35.644c2.102 12.254-10.759 21.599-21.764 15.813z" fill="#fff79f"/><path d="M309.774 132.465l-6.113-35.644 25.897-25.243c8.903-8.678 3.99-23.798-8.313-25.585l-35.789-5.2-16.005-32.43C266.7 2.787 261.35 0 256 0v131.448l32.01 16.829c11.005 5.786 23.866-3.559 21.764-15.812z" fill="#ffde55"/><path d="M465.907 208.244l-32.011-16.829-32.01 16.829c-11.004 5.785-23.866-3.559-21.764-15.813l6.113-35.644-25.897-25.243c-8.903-8.678-3.99-23.798 8.313-25.585l35.788-5.2 16.005-32.43c5.502-11.149 21.4-11.149 26.902 0l16.005 32.43 35.789 5.2c12.303 1.788 17.216 16.907 8.313 25.585l-25.897 25.243 6.114 35.644c2.103 12.254-10.759 21.598-21.763 15.813z" fill="#fff79f"/><path d="M499.141 105.676l-35.789-5.214-16.005-32.518c-2.751-5.59-8.101-8.384-13.451-8.384v131.804l32.01 16.874c11.004 5.801 23.866-3.569 21.764-15.855l-6.113-35.741 25.897-25.311c8.903-8.701 3.99-23.862-8.313-25.655z" fill="#ffde55"/><path d="M110.114 208.244l-32.01-16.829-32.01 16.829c-11.004 5.785-23.866-3.559-21.764-15.813l6.113-35.644-25.897-25.243c-8.903-8.678-3.99-23.798 8.313-25.585l35.789-5.2 16.005-32.43c5.502-11.149 21.4-11.149 26.902 0l16.005 32.43 35.789 5.2c12.303 1.788 17.216 16.907 8.313 25.585l-25.897 25.243 6.113 35.644c2.102 12.254-10.759 21.598-21.764 15.813z" fill="#fff79f"/><path d="M110.114 208.244c11.004 5.785 23.866-3.559 21.764-15.813l-6.113-35.644 25.897-25.243c8.903-8.678 3.99-23.798-8.313-25.585l-35.789-5.2-16.005-32.43c-2.751-5.574-8.101-8.362-13.451-8.362v131.448z" fill="#ffde55"/></svg>