<svg height="512" width="512" xmlns="http://www.w3.org/2000/svg"><path d="M385.873 424.077l-83.355-48.125 33.75-58.457 83.355 48.125c16.142 9.32 21.673 29.961 12.353 46.103-9.32 16.143-29.961 21.674-46.103 12.354z" fill="#f2d1a5"/><path d="M326.142 467.534l-57.374-33.125 33.75-58.457 57.374 33.125c16.142 9.32 21.673 29.961 12.353 46.103-9.32 16.143-29.961 21.674-46.103 12.354z" fill="#f2d1a5"/><path d="M98.138 146.082l150.213-86.724c14.178-8.186 31.121-9.64 46.486-3.989l49.124 18.069 54.537-31.487c7.138-4.121 16.265-1.711 20.437 5.398l91.001 155.062a15 15 0 01-3.403 19.173l-52.101 42.891-194.949-112.553z" fill="#b46e5a"/><path d="M321.044 464.591l-74.917-43.253-.892-.715L91.701 297.537 7.502 248.925c-7.016-4.051-9.548-12.941-5.719-20.08L86.906 70.144c4.003-7.462 13.385-10.134 20.719-5.9l71.447 41.25 90 17.321 186.973 107.949z" fill="#ffe4c2"/><path d="M1.784 228.845c-3.829 7.139-1.298 16.03 5.719 20.08l84.198 48.612 153.534 123.085.892.715 74.917 43.253 67.5-116.914L44.567 149.081z" fill="#f2d1a5"/><path d="M453.373 307.163l-83.355-48.125 33.75-58.457 83.355 48.125c16.142 9.32 21.673 29.961 12.353 46.103-9.319 16.143-29.961 21.674-46.103 12.354zm-16.43 68.457l-100.675-58.125 33.75-58.457 100.675 58.125c16.142 9.32 21.673 29.961 12.353 46.103-9.319 16.143-29.96 21.674-46.103 12.354z" fill="#ffe4c2"/><path d="M303.05 114.379l-115.723 66.813c-17.936 10.355-40.871 4.21-51.226-13.726-10.355-17.936-4.21-40.871 13.726-51.226l98.524-56.883c14.179-8.186 31.122-9.64 46.486-3.987" fill="#b46e5a"/><path d="M147.982 421.113c-16.142-9.32-21.673-29.961-12.353-46.103l36.25-62.787c9.32-16.142 29.961-21.673 46.103-12.353 16.142 9.32 21.673 29.961 12.353 46.103l-36.25 62.787c-9.32 16.142-29.961 21.672-46.103 12.353z" fill="#a65d4e"/><path d="M206.438 454.863c-16.142-9.32-21.673-29.961-12.353-46.103l26.25-45.466c9.32-16.142 29.961-21.673 46.103-12.353 16.142 9.32 21.673 29.961 12.353 46.103l-26.25 45.466c-9.319 16.142-29.96 21.672-46.103 12.353z" fill="#a65d4e"/><path d="M31.068 353.613c-16.142-9.32-21.673-29.961-12.353-46.103l36.25-62.787c9.32-16.142 29.961-21.673 46.103-12.353 16.142 9.32 21.673 29.961 12.353 46.103l-36.25 62.787c-9.319 16.142-29.96 21.672-46.103 12.353zm58.457 33.75c-16.142-9.32-21.673-29.961-12.353-46.103l46.25-80.107c9.32-16.142 29.961-21.673 46.103-12.353 16.142 9.32 21.673 29.961 12.353 46.103l-46.25 80.107c-9.32 16.142-29.961 21.672-46.103 12.353z" fill="#b46e5a"/></svg>