<svg height="512" width="512" xmlns="http://www.w3.org/2000/svg"><path d="M31 317v180c0 8.284 6.716 15 15 15h420c8.284 0 15-6.716 15-15V317z" fill="#9ee2f8"/><path d="M481 497V317H256v195h210c8.284 0 15-6.716 15-15z" fill="#87c0ed"/><path d="M389.802 270H122.198l-13.926-167.11c-2.2-26.4 6.826-52.722 24.763-72.215C150.973 11.181 176.453 0 202.944 0h106.111c26.491 0 51.972 11.181 69.909 30.675 17.937 19.493 26.963 45.814 24.763 72.215z" fill="#ff9f22"/><path d="M389.802 270l13.926-167.11c2.2-26.4-6.826-52.722-24.763-72.215C361.027 11.181 335.547 0 309.056 0H256v270z" fill="#ff7c48"/><path d="M351 270H161v-23.789c0-52.302 41.763-95.7 94.063-96.207C307.874 149.493 351 192.305 351 245z" fill="#5f55af"/><path d="M256 150.007V270h95v-25c0-52.383-42.617-94.992-95-94.993z" fill="#453d83"/><path d="M256 175c-31.705 0-57.5-25.795-57.5-57.5S224.295 60 256 60s57.5 25.795 57.5 57.5S287.705 175 256 175z" fill="#ffe4c2"/><path d="M256 60v115c31.706 0 57.5-25.794 57.5-57.5S287.706 60 256 60z" fill="#f2d1a5"/><path d="M406 407H106c-8.284 0-15-6.716-15-15s6.716-15 15-15h300c8.284 0 15 6.716 15 15s-6.716 15-15 15zm0 60H106c-8.284 0-15-6.716-15-15s6.716-15 15-15h300c8.284 0 15 6.716 15 15s-6.716 15-15 15z" fill="#beebfa"/><path d="M406 377H256v30h150c8.284 0 15-6.716 15-15s-6.716-15-15-15zm0 60H256v30h150c8.284 0 15-6.716 15-15s-6.716-15-15-15z" fill="#9ee2f8"/><path d="M1 270v47c0 8.284 6.716 15 15 15h480c8.284 0 15-6.716 15-15v-47c0-8.284-6.716-15-15-15H16c-8.284 0-15 6.716-15 15z" fill="#beebfa"/><path d="M496 255H256v77h240c8.284 0 15-6.716 15-15v-47c0-8.284-6.716-15-15-15z" fill="#9ee2f8"/></svg>