<svg height="512" width="512" xmlns="http://www.w3.org/2000/svg"><path d="M0 177v100c0 19.33 15.67 35 35 35h442c19.33 0 35-15.67 35-35V177c0-8.284-6.716-15-15-15H15c-8.284 0-15 6.716-15 15z" fill="#ff9f22"/><path d="M497 162H256v150h221c19.33 0 35-15.67 35-35V177c0-8.284-6.716-15-15-15z" fill="#ff7c48"/><path d="M111 237v260c0 8.284 6.716 15 15 15h260c8.284 0 15-6.716 15-15V237z" fill="#beebfa"/><path d="M256 512h130c8.284 0 15-6.716 15-15V237H256z" fill="#9ee2f8"/><path d="M406 252H106c-8.284 0-15-6.716-15-15s6.716-15 15-15h300c8.284 0 15 6.716 15 15s-6.716 15-15 15z" fill="#ff7c48"/><path d="M161 437c0 8.284 6.716 15 15 15h160c8.284 0 15-6.716 15-15 0-52.467-42.533-95-95-95s-95 42.533-95 95z" fill="#5f55af"/><path d="M256 452h80c8.284 0 15-6.716 15-15 0-52.467-42.533-95-95-95z" fill="#453d83"/><path d="M256 367c-31.705 0-57.5-25.795-57.5-57.5S224.295 252 256 252s57.5 25.795 57.5 57.5S287.705 367 256 367z" fill="#ffe4c2"/><path d="M256 252v115c31.706 0 57.5-25.794 57.5-57.5S287.706 252 256 252z" fill="#f2d1a5"/><path d="M406 222H256v30h150c8.284 0 15-6.716 15-15s-6.716-15-15-15z" fill="#ff4c04"/><path d="M512 77c0-19.299-15.701-35-35-35H35C15.701 42 0 57.701 0 77v100h512z" fill="#5f55af"/><path d="M477 42H256v135h256V77c0-19.299-15.701-35-35-35z" fill="#453d83"/><path d="M386 0H126c-8.284 0-15 6.716-15 15v102h290V15c0-8.284-6.716-15-15-15z" fill="#beebfa"/><path d="M386 0H256v117h145V15c0-8.284-6.716-15-15-15z" fill="#9ee2f8"/><path d="M406 132H106c-8.284 0-15-6.716-15-15s6.716-15 15-15h300c8.284 0 15 6.716 15 15s-6.716 15-15 15z" fill="#453d83"/><path d="M406 102H256v30h150c8.284 0 15-6.716 15-15s-6.716-15-15-15z" fill="#2d2755"/></svg>