<svg height="512" width="512" xmlns="http://www.w3.org/2000/svg"><path d="M391 141.837H121V95c0-52.467 42.533-95 95-95h80c52.467 0 95 42.533 95 95z" fill="#fff79f"/><path d="M391 95c0-52.467-42.533-95-95-95h-40v141.837h135z" fill="#ffde55"/><path d="M436 502H76c-8.284 0-15-6.716-15-15v-51.158c0-26.227 9.08-51.902 25.568-72.298 16.487-20.396 39.691-34.654 65.336-40.149l60.953-13.062A14.954 14.954 0 01216 310h80c1.057 0 2.11.111 3.143.333l60.953 13.062c25.645 5.495 48.849 19.754 65.336 40.149C441.92 383.939 451 409.615 451 435.842V487c0 8.284-6.716 15-15 15z" fill="#5f55af"/><path d="M451 487v-51.158c0-26.227-9.08-51.902-25.568-72.298-16.487-20.396-39.691-34.654-65.336-40.149l-60.953-13.062A14.954 14.954 0 00296 310h-40v192h180c8.284 0 15-6.716 15-15z" fill="#453d83"/><path d="M313.916 502H198.084l29.979-125.878L256 356l27.938 20.122z" fill="#7c84e8"/><path d="M256 356v146h57.916l-29.978-125.878z" fill="#5f69e3"/><path d="M204.177 325.79c.247.987.581 1.954 1.025 2.876l22.861 47.456h55.875l22.86-47.456c.444-.923.778-1.889 1.025-2.876z" fill="#999fed"/><path d="M256 376.122h27.938l22.86-47.456c.444-.923.778-1.889 1.025-2.876H256z" fill="#7c84e8"/><path d="M308.285 250.534h-104.57v71.622c0 1.23.165 2.448.461 3.634 14.782 6.833 36.89 13.594 51.823 13.594 14.934 0 37.042-6.762 51.823-13.594.296-1.186.461-2.404.461-3.633v-71.623z" fill="#f2d1a5"/><path d="M256 339.384c14.934 0 37.042-6.762 51.823-13.594.296-1.186.461-2.404.461-3.633v-71.622H256z" fill="#f2bb88"/><path d="M181 200h-42.5c-20.711 0-37.5-16.789-37.5-37.5s16.789-37.5 37.5-37.5H181z" fill="#f2d1a5"/><path d="M373.5 200H331v-75h42.5c20.711 0 37.5 16.789 37.5 37.5S394.211 200 373.5 200z" fill="#f2bb88"/><path d="M496 512H16c-8.284 0-15-6.716-15-15s6.716-15 15-15h480c8.284 0 15 6.716 15 15s-6.716 15-15 15z" fill="#ff9f22"/><path d="M386 436h-30c-8.284 0-15-6.716-15-15s6.716-15 15-15h30c8.284 0 15 6.716 15 15s-6.716 15-15 15z" fill="#ffde55"/><path d="M266.316 96.724c-5.716-5.553-14.916-5.553-20.631 0A100.005 100.005 0 01176 125h-25v58.845c0 57.941 46.448 105.821 104.387 106.153C313.565 290.332 361 243.102 361 185v-60h-25a100.001 100.001 0 01-69.684-28.276z" fill="#ffe4c2"/><path d="M336 125a100.001 100.001 0 01-69.684-28.276c-2.858-2.777-6.587-4.165-10.316-4.165v197.435c57.897-.001 105-47.097 105-104.994v-60z" fill="#f2d1a5"/><path d="M256 512h240c8.284 0 15-6.716 15-15s-6.716-15-15-15H256z" fill="#ff7c48"/></svg>