<svg height="512" width="512" xmlns="http://www.w3.org/2000/svg"><path d="M416 90c-8.284 0-15-6.716-15-15V45c0-8.271-6.729-15-15-15-8.284 0-15-6.716-15-15s6.716-15 15-15c24.813 0 45 20.187 45 45v30c0 8.284-6.716 15-15 15z" fill="#ff7c48"/><path d="M106 512H46c-8.284 0-15-6.716-15-15V75c0-8.284 6.716-15 15-15h120a15 15 0 0114.851 17.111l-60 422A15 15 0 01106 512z" fill="#87c0ed"/><path d="M166 60h300c8.284 0 15 6.716 15 15v422c0 8.284-6.716 15-15 15H91V135z" fill="#beebfa"/><path d="M286 60v452h180c8.284 0 15-6.716 15-15V75c0-8.284-6.716-15-15-15z" fill="#9ee2f8"/><path d="M406 391H166c-8.284 0-15-6.716-15-15s6.716-15 15-15h240c8.284 0 15 6.716 15 15s-6.716 15-15 15zm0 60H166c-8.284 0-15-6.716-15-15s6.716-15 15-15h240c8.284 0 15 6.716 15 15s-6.716 15-15 15z" fill="#9ee2f8"/><path d="M421 376c0-8.284-6.716-15-15-15H286v30h120c8.284 0 15-6.716 15-15zm0 60c0-8.284-6.716-15-15-15H286v30h120c8.284 0 15-6.716 15-15zm-15-105h-30c-8.284 0-15-6.716-15-15s6.716-15 15-15h30c8.284 0 15 6.716 15 15s-6.716 15-15 15zm0-60h-30c-8.284 0-15-6.716-15-15s6.716-15 15-15h30c8.284 0 15 6.716 15 15s-6.716 15-15 15z" fill="#87c0ed"/><path d="M166 60v60c0 8.284-6.716 15-15 15H91c0-41.355 33.645-75 75-75z" fill="#9ee2f8"/><path d="M326 331H166c-8.284 0-15-6.716-15-15v-8.789c0-52.302 41.763-95.7 94.063-96.207C297.874 210.493 341 253.305 341 306v10c0 8.284-6.716 15-15 15z" fill="#5f55af"/><path d="M246 211.007V331h80c8.284 0 15-6.716 15-15v-10c0-52.383-42.617-94.992-95-94.993z" fill="#453d83"/><path d="M246 236c-31.705 0-57.5-25.795-57.5-57.5S214.295 121 246 121s57.5 25.795 57.5 57.5S277.705 236 246 236z" fill="#ffe4c2"/><path d="M246 121v115c31.706 0 57.5-25.794 57.5-57.5S277.706 121 246 121z" fill="#f2d1a5"/><path d="M386 180c-24.813 0-45-20.187-45-45V45c0-24.813 20.187-45 45-45 8.284 0 15 6.716 15 15s-6.716 15-15 15c-8.271 0-15 6.729-15 15v90c0 8.271 6.729 15 15 15s15-6.729 15-15c0-8.284 6.716-15 15-15s15 6.716 15 15c0 24.813-20.187 45-45 45z" fill="#ff7c48"/></svg>