<svg height="512" width="512" xmlns="http://www.w3.org/2000/svg"><path d="M416 472H56c-8.284 0-15-6.716-15-15V15c0-8.284 6.716-15 15-15h360c8.284 0 15 6.716 15 15v442c0 8.284-6.716 15-15 15z" fill="#9ee2f8"/><path d="M416 0H236v472h180c8.284 0 15-6.716 15-15V15c0-8.284-6.716-15-15-15z" fill="#87c0ed"/><path d="M326 412H146c-3.979 0-7.794-1.58-10.606-4.394l-30-30A14.992 14.992 0 01101 367V105c0-3.979 1.58-7.794 4.394-10.606l30-30A14.992 14.992 0 01146 60h180c3.979 0 7.794 1.58 10.606 4.394l30 30A14.992 14.992 0 01371 105v262c0 3.979-1.58 7.794-4.394 10.606l-30 30A14.992 14.992 0 01326 412z" fill="#beebfa"/><g fill="#9ee2f8"><path d="M366.606 94.394l-30-30A14.992 14.992 0 00326 60h-90v352h90c3.979 0 7.794-1.58 10.606-4.394l30-30A14.992 14.992 0 00371 367V105c0-3.979-1.58-7.794-4.394-10.606z"/><path d="M296 150H176c-8.284 0-15-6.716-15-15s6.716-15 15-15h120c8.284 0 15 6.716 15 15s-6.716 15-15 15zm0 60H176c-8.284 0-15-6.716-15-15s6.716-15 15-15h120c8.284 0 15 6.716 15 15s-6.716 15-15 15zm-30 60h-60c-8.284 0-15-6.716-15-15s6.716-15 15-15h60c8.284 0 15 6.716 15 15s-6.716 15-15 15z"/></g><path d="M311 135c0-8.284-6.716-15-15-15h-60v30h60c8.284 0 15-6.716 15-15zm-15 45h-60v30h60c8.284 0 15-6.716 15-15s-6.716-15-15-15zm-30 90c8.284 0 15-6.716 15-15s-6.716-15-15-15h-30v30z" fill="#87c0ed"/><path d="M419.5 508.973L396 491.348l-23.5 17.625c-9.889 7.416-24 .361-24-12v-87.869l95 .001v87.868c0 12.36-14.111 19.416-24 12z" fill="#ff9f22"/><path d="M396 409.104v82.244l23.5 17.625c9.889 7.416 24 .361 24-12v-87.868z" fill="#ff7c48"/><circle cx="396" cy="357" fill="#fff79f" r="75"/><path d="M396 282v150c41.355 0 75-33.645 75-75s-33.645-75-75-75z" fill="#ffde55"/><circle cx="396" cy="357" fill="#ffde55" r="45"/><path d="M396 312v90c24.813 0 45-20.187 45-45s-20.187-45-45-45z" fill="#ffcd00"/><circle cx="396" cy="357" fill="#fff79f" r="15"/><path d="M411 357c0-8.284-6.716-15-15-15v30c8.284 0 15-6.716 15-15z" fill="#ffde55"/></svg>