<svg height="512" width="512" xmlns="http://www.w3.org/2000/svg"><path d="M295 0H15C6.716 0 0 6.716 0 15v482c0 8.284 6.716 15 15 15h340c8.284 0 15-6.716 15-15v-96l-70-85 70-80V75z" fill="#beebfa"/><path d="M185 0v512h170c8.284 0 15-6.716 15-15v-96l-70-85 70-80V75L295 0z" fill="#9ee2f8"/><path d="M295 0v60c0 8.284 6.716 15 15 15h60c0-41.355-33.645-75-75-75z" fill="#87c0ed"/><path d="M305 151H65c-8.284 0-15-6.716-15-15 0-8.284 6.716-15 15-15h240c8.284 0 15 6.716 15 15 0 8.284-6.716 15-15 15zm-70 60H65c-8.284 0-15-6.716-15-15 0-8.284 6.716-15 15-15h170c8.284 0 15 6.716 15 15 0 8.284-6.716 15-15 15zm-40 60H65c-8.284 0-15-6.716-15-15 0-8.284 6.716-15 15-15h130c8.284 0 15 6.716 15 15 0 8.284-6.716 15-15 15zm0 60H65c-8.284 0-15-6.716-15-15 0-8.284 6.716-15 15-15h130c8.284 0 15 6.716 15 15 0 8.284-6.716 15-15 15zm0 60H65c-8.284 0-15-6.716-15-15 0-8.284 6.716-15 15-15h130c8.284 0 15 6.716 15 15 0 8.284-6.716 15-15 15zm40 60H65c-8.284 0-15-6.716-15-15 0-8.284 6.716-15 15-15h170c8.284 0 15 6.716 15 15 0 8.284-6.716 15-15 15z" fill="#9ee2f8"/><path d="M320 136c0-8.284-6.716-15-15-15H185v30h120c8.284 0 15-6.716 15-15zm-70 60c0-8.284-6.716-15-15-15h-50v30h50c8.284 0 15-6.716 15-15zm-40 60c0-8.284-6.716-15-15-15h-10v30h10c8.284 0 15-6.716 15-15zm0 60c0-8.284-6.716-15-15-15h-10v30h10c8.284 0 15-6.716 15-15zm0 60c0-8.284-6.716-15-15-15h-10v30h10c8.284 0 15-6.716 15-15zm40 60c0-8.284-6.716-15-15-15h-50v30h50c8.284 0 15-6.716 15-15z" fill="#87c0ed"/><path d="M504.5 337.029l-16.992-9.811a111.144 111.144 0 000-22.436l16.992-9.811a15.001 15.001 0 005.49-20.49l-30-51.962a14.999 14.999 0 00-20.49-5.49l-17.076 9.859a108.716 108.716 0 00-19.348-11.209V196c0-8.284-6.716-15-15-15h-59.999c-8.284 0-15 6.716-15 15v19.678a108.812 108.812 0 00-19.348 11.209l-17.076-9.859a14.996 14.996 0 00-20.49 5.49l-30 51.962a14.997 14.997 0 005.49 20.49l16.992 9.811a111.144 111.144 0 000 22.436l-16.992 9.811a15.001 15.001 0 00-5.49 20.49l30 51.962a15.004 15.004 0 009.108 6.989 14.992 14.992 0 0011.382-1.499l17.076-9.859a108.716 108.716 0 0019.348 11.209V436c0 8.284 6.716 15 15 15h59.999c8.284 0 15-6.716 15-15v-19.678a108.812 108.812 0 0019.348-11.209l17.076 9.859a15.008 15.008 0 0011.382 1.499 14.994 14.994 0 009.108-6.989l30-51.962a15.003 15.003 0 00-5.49-20.491zM378.076 366c-27.569 0-49.999-22.43-49.999-50s22.43-50 49.999-50c27.57 0 50 22.43 50 50s-22.43 50-50 50z" fill="#5f55af"/><path d="M504.5 337.029l-16.992-9.811a111.144 111.144 0 000-22.436l16.992-9.811a15.001 15.001 0 005.49-20.49l-30-51.962a14.999 14.999 0 00-20.49-5.49l-17.076 9.859a108.716 108.716 0 00-19.348-11.209V196c0-8.284-6.716-15-15-15h-30v85c27.57 0 50 22.43 50 50s-22.429 50-50 50v85h30c8.284 0 15-6.716 15-15v-19.678a108.812 108.812 0 0019.348-11.209l17.076 9.859a15.008 15.008 0 0011.382 1.499 14.994 14.994 0 009.108-6.989l30-51.962a15.003 15.003 0 00-5.49-20.491z" fill="#453d83"/></svg>