<svg height="512" width="512" xmlns="http://www.w3.org/2000/svg"><path d="M315 0H15C6.716 0 0 6.716 0 15v482c0 8.284 6.716 15 15 15h360c8.284 0 15-6.716 15-15V75z" fill="#beebfa"/><path d="M195 0v512h180c8.284 0 15-6.716 15-15V75L315 0z" fill="#9ee2f8"/><path d="M397 471c-63.411 0-115-51.589-115-115s51.589-115 115-115 115 51.589 115 115-51.589 115-115 115z" fill="#ff9f22"/><path d="M397 241v230c63.411 0 115-51.589 115-115s-51.589-115-115-115z" fill="#ff7c48"/><path d="M315 0v60c0 8.284 6.716 15 15 15h60c0-41.355-33.645-75-75-75z" fill="#87c0ed"/><path d="M95 331H75c-8.284 0-15-6.716-15-15s6.716-15 15-15h20c8.284 0 15 6.716 15 15s-6.716 15-15 15zm140 0h-80c-8.284 0-15-6.716-15-15s6.716-15 15-15h80c8.284 0 15 6.716 15 15s-6.716 15-15 15zM95 391H75c-8.284 0-15-6.716-15-15s6.716-15 15-15h20c8.284 0 15 6.716 15 15s-6.716 15-15 15zm140 0h-80c-8.284 0-15-6.716-15-15s6.716-15 15-15h80c8.284 0 15 6.716 15 15s-6.716 15-15 15zM95 451H75c-8.284 0-15-6.716-15-15s6.716-15 15-15h20c8.284 0 15 6.716 15 15s-6.716 15-15 15zm160 0H155c-8.284 0-15-6.716-15-15s6.716-15 15-15h100c8.284 0 15 6.716 15 15s-6.716 15-15 15z" fill="#9ee2f8"/><path d="M275 271H115c-8.284 0-15-6.716-15-15v-8.789c0-52.302 41.763-95.7 94.063-96.207C246.874 150.493 290 193.305 290 246v10c0 8.284-6.716 15-15 15z" fill="#5f55af"/><path d="M195 151.007V271h80c8.284 0 15-6.716 15-15v-10c0-52.383-42.617-94.992-95-94.993z" fill="#453d83"/><path d="M250 316c0-8.284-6.716-15-15-15h-40v30h40c8.284 0 15-6.716 15-15zm0 60c0-8.284-6.716-15-15-15h-40v30h40c8.284 0 15-6.716 15-15zm20 60c0-8.284-6.716-15-15-15h-60v30h60c8.284 0 15-6.716 15-15z" fill="#87c0ed"/><path d="M195 176c-31.705 0-57.5-25.795-57.5-57.5S163.295 61 195 61s57.5 25.795 57.5 57.5S226.705 176 195 176z" fill="#ffe4c2"/><path d="M195 61v115c31.706 0 57.5-25.794 57.5-57.5S226.706 61 195 61z" fill="#f2d1a5"/><path d="M435.891 317.109c-5.858-5.858-15.355-5.858-21.213 0L397 334.787l-17.678-17.678c-5.858-5.858-15.355-5.858-21.213 0-5.858 5.858-5.858 15.355 0 21.213L375.787 356l-17.678 17.677c-5.858 5.858-5.858 15.355 0 21.213 5.858 5.858 15.355 5.858 21.213 0L397 377.213l17.678 17.678c5.858 5.858 15.355 5.858 21.213 0 5.858-5.858 5.858-15.355 0-21.213L418.213 356l17.678-17.677c5.858-5.858 5.858-15.356 0-21.214z" fill="#fff79f"/><path d="M435.891 394.891c5.858-5.858 5.858-15.355 0-21.213L418.213 356l17.678-17.677c5.858-5.858 5.858-15.355 0-21.213-5.858-5.858-15.355-5.858-21.213 0L397 334.787v42.426l17.678 17.677c5.858 5.859 15.355 5.859 21.213.001z" fill="#ffde55"/></svg>