<svg height="512" width="512" xmlns="http://www.w3.org/2000/svg"><path d="M342 376.976c0 8.284-6.716 15-15 15H185c-8.284 0-15-6.716-15-15 0-8.284-6.716-15-15-15H15c-8.284 0-15 6.716-15 15a125.221 125.221 0 0030.166 81.455c19.463 22.69 46.438 37.669 75.957 42.178C155.848 508.203 205.924 512 256 512s100.152-3.797 149.877-11.391c29.518-4.508 56.493-19.487 75.957-42.178A125.232 125.232 0 00512 376.976c0-8.284-6.716-15-15-15H357c-8.284 0-15 6.716-15 15z" fill="#999fed"/><path d="M497 361.976H357c-8.284 0-15 6.716-15 15s-6.716 15-15 15h-71V512a992.5 992.5 0 00149.877-11.391c29.518-4.508 56.493-19.487 75.957-42.178A125.232 125.232 0 00512 376.976c0-8.284-6.716-15-15-15z" fill="#7c84e8"/><path d="M512 376.95v-39.974c0-19.33-15.67-35-35-35H377c-19.33 0-35 15.67-35 35v40h170v-.026z" fill="#5f69e3"/><path d="M170 336.976c0-19.33-15.67-35-35-35H35c-19.33 0-35 15.67-35 35v40h170z" fill="#7c84e8"/><path d="M206 15v160.024h13.693c12.815 0 19.729 15.032 11.389 24.762l-43.693 50.976c-5.986 6.984-16.791 6.984-22.778 0l-43.693-50.976c-8.34-9.73-1.426-24.762 11.389-24.762H146V15c0-8.284 6.716-15 15-15h30c8.284 0 15 6.716 15 15z" fill="#ff9f22"/><path d="M231.082 199.786l-43.693 50.975A14.93 14.93 0 01176 256V0h15c8.284 0 15 6.716 15 15v160.024h13.693c12.816 0 19.729 15.032 11.389 24.762z" fill="#ff7c48"/><path d="M366 241V80.976h13.693c12.815 0 19.729-15.032 11.389-24.762L347.389 5.238c-5.986-6.984-16.791-6.984-22.778 0l-43.693 50.976c-8.34 9.73-1.426 24.762 11.389 24.762H306V241c0 8.284 6.716 15 15 15h30c8.284 0 15-6.716 15-15z" fill="#d6fc7e"/><path d="M391.082 56.214L347.389 5.238A14.933 14.933 0 00336 0v256h15c8.284 0 15-6.716 15-15V80.976h13.693c12.816 0 19.729-15.032 11.389-24.762z" fill="#b2fa09"/></svg>