<svg height="512" width="512" xmlns="http://www.w3.org/2000/svg"><path d="M175 210H15c-8.284 0-15-6.716-15-15v-8.789c0-52.302 41.763-95.7 94.063-96.207C146.874 89.493 190 132.305 190 185v10c0 8.284-6.716 15-15 15z" fill="#5f55af"/><path d="M95 90.007V210h80c8.284 0 15-6.716 15-15v-10c0-52.383-42.617-94.992-95-94.993z" fill="#453d83"/><path d="M95 115c-31.705 0-57.5-25.795-57.5-57.5S63.295 0 95 0s57.5 25.795 57.5 57.5S126.705 115 95 115z" fill="#ffe4c2"/><path d="M95 0v115c31.706 0 57.5-25.794 57.5-57.5S126.706 0 95 0z" fill="#f2d1a5"/><path d="M497 512H337c-8.284 0-15-6.716-15-15v-8.789c0-52.302 41.763-95.7 94.063-96.207C468.874 391.493 512 434.305 512 487v10c0 8.284-6.716 15-15 15z" fill="#beebfa"/><path d="M417 392.007V512h80c8.284 0 15-6.716 15-15v-10c0-52.383-42.617-94.992-95-94.993z" fill="#9ee2f8"/><path d="M417 417c-31.705 0-57.5-25.795-57.5-57.5S385.295 302 417 302s57.5 25.795 57.5 57.5S448.706 417 417 417z" fill="#ffe4c2"/><path d="M417 302v115c31.706 0 57.5-25.794 57.5-57.5S448.706 302 417 302z" fill="#f2d1a5"/><path d="M266.737 441.889l-50.976-43.693c-9.73-8.34-24.762-1.427-24.762 11.389v13.693h-66v-137c0-8.284-6.716-15-15-15H80c-8.284 0-15 6.716-15 15v182c0 8.284 6.716 15 15 15h111v13.693c0 12.815 15.032 19.729 24.762 11.389l50.976-43.693c6.984-5.987 6.984-16.792-.001-22.778z" fill="#ff9f22"/><path d="M266.737 441.889l-50.976-43.693c-9.73-8.34-24.762-1.427-24.762 11.389v13.693h-66v-137c0-8.284-6.716-15-15-15H95v212h96v13.693c0 12.815 15.032 19.729 24.762 11.389l50.976-43.693c6.984-5.987 6.984-16.792-.001-22.778z" fill="#ff7c48"/><path d="M245.263 70.111l50.976 43.693c9.73 8.34 24.762 1.427 24.762-11.389V88.722h66v137c0 8.284 6.716 15 15 15h30c8.284 0 15-6.716 15-15v-182c0-8.284-6.716-15-15-15H321V15.029C321 2.214 305.968-4.7 296.238 3.64l-50.976 43.693c-6.984 5.987-6.984 16.792.001 22.778z" fill="#ff9f22"/><path d="M432 28.722h-15v212h15c8.284 0 15-6.716 15-15v-182c0-8.284-6.716-15-15-15z" fill="#ff7c48"/></svg>