<svg height="512" width="512" xmlns="http://www.w3.org/2000/svg"><path d="M376 497H136c-11.046 0-20-8.954-20-20V35c0-11.046 8.954-20 20-20h240c11.046 0 20 8.954 20 20v442c0 11.046-8.954 20-20 20z" fill="#999fed"/><path d="M376 15H256v482h120c11.046 0 20-8.954 20-20V35c0-11.046-8.954-20-20-20z" fill="#7c84e8"/><path d="M181.292 17.942l10 50A14.999 14.999 0 00206 80h100c7.15 0 13.307-5.047 14.708-12.058l10-50z" fill="#9ee2f8"/><path d="M256 80h50c7.15 0 13.307-5.047 14.708-12.058l10-50H256z" fill="#87c0ed"/><path d="M376 0H136c-19.299 0-35 15.701-35 35v442c0 19.299 15.701 35 35 35h240c19.299 0 35-15.701 35-35V35c0-19.299-15.701-35-35-35zM131 427V35c0-2.757 2.243-5 5-5h240c2.757 0 5 2.243 5 5v392z" fill="#beebfa"/><path d="M411 477V35c0-19.299-15.701-35-35-35H256v30h120c2.757 0 5 2.243 5 5v392H256v85h120c19.299 0 35-15.701 35-35z" fill="#9ee2f8"/><path d="M346 381h-90c-8.284 0-15-6.716-15-15s6.716-15 15-15h90c8.284 0 15 6.716 15 15s-6.716 15-15 15z" fill="#7c84e8"/><path d="M346 381c8.284 0 15-6.716 15-15s-6.716-15-15-15h-90v30z" fill="#5f69e3"/><path d="M196 381h-20c-8.284 0-15-6.716-15-15s6.716-15 15-15h20c8.284 0 15 6.716 15 15s-6.716 15-15 15z" fill="#7c84e8"/><path d="M336 321H176c-8.284 0-15-6.716-15-15v-8.789c0-52.302 41.763-95.7 94.063-96.207C307.874 200.493 351 243.305 351 296v10c0 8.284-6.716 15-15 15z" fill="#5f55af"/><path d="M256 201.007V321h80c8.284 0 15-6.716 15-15v-10c0-52.383-42.617-94.992-95-94.993z" fill="#453d83"/><path d="M256 226c-31.705 0-57.5-25.795-57.5-57.5S224.295 111 256 111s57.5 25.795 57.5 57.5S287.705 226 256 226z" fill="#ffe4c2"/><path d="M256 111v115c31.706 0 57.5-25.794 57.5-57.5S287.706 111 256 111z" fill="#f2d1a5"/></svg>