<svg height="512" width="512" xmlns="http://www.w3.org/2000/svg"><path d="M17.722 511.745c-10.333 1.902-19.37-7.134-17.468-17.468l11.962-64.983c7.208-39.164 43.857-66.388 83.435-61.999l2.615.29 46.147 46.147.291 2.615c4.397 39.578-22.835 76.227-61.998 83.436z" fill="#fff79f"/><path d="M17.722 511.745l64.983-11.962c39.163-7.209 66.396-43.857 61.998-83.436l-.291-2.615-23.072-23.072L4.4 507.6c3.313 3.313 8.156 5.096 13.322 4.145z" fill="#ffde55"/><path d="M143.054 425.514l-56.569-56.569c-13.668-13.668-13.668-35.829 0-49.497l28.284-28.284c5.858-5.858 15.355-5.858 21.213 0l84.853 84.853c5.858 5.858 5.858 15.355 0 21.213l-28.284 28.284c-13.668 13.669-35.829 13.669-49.497 0z" fill="#ff9f22"/><path d="M143.054 425.514c13.668 13.668 35.829 13.668 49.497 0l28.284-28.284c5.858-5.858 5.858-15.355 0-21.213l-42.426-42.426-63.64 63.639z" fill="#ff7c48"/><path d="M132.428 231.079L93.537 269.97c-5.858 5.858-5.858 15.355 0 21.213l127.279 127.279c5.858 5.858 15.355 5.858 21.213 0l38.891-38.891c5.858-5.858 5.858-15.355 0-21.213L153.642 231.079c-5.858-5.858-15.356-5.858-21.214 0z" fill="#7c84e8"/><path d="M220.816 418.463c5.858 5.858 15.355 5.858 21.213 0l38.891-38.891c5.858-5.858 5.858-15.355 0-21.213l-63.64-63.64-60.104 60.104z" fill="#5f69e3"/><path d="M304.417 465.757l-23.496-86.185 70.711-113.137 10.607 10.607c44.91 44.91 44.91 117.724 0 162.635l-32.742 32.742c-8.146 8.144-22.051 4.451-25.08-6.662z" fill="#ff7c48"/><path d="M39.581 182.505l32.742-32.742c44.91-44.91 117.724-44.91 162.635 0l10.607 10.607-113.137 70.71-86.185-23.496c-11.113-3.03-14.806-16.935-6.662-25.079zm468.18-166.499a14.998 14.998 0 00-11.767-11.767c-48.283-9.657-97.456-2.592-140.153 18.918l-10.606 10.606 133.002 133.002 10.606-10.606c21.51-42.697 28.575-91.87 18.918-140.153z" fill="#ff9f22"/><path d="M478.237 166.766l10.606-10.606c21.51-42.697 28.575-91.871 18.918-140.153a14.987 14.987 0 00-4.102-7.665l-91.924 91.924z" fill="#ff7c48"/><path d="M355.841 23.157a217.377 217.377 0 00-55.946 40.455L132.428 231.08 280.92 379.572l167.467-167.467a217.38 217.38 0 0040.456-55.946z" fill="#999fed"/><path d="M280.92 379.572l167.467-167.467a217.347 217.347 0 0040.456-55.946l-66.501-66.501-215.668 215.668z" fill="#7c84e8"/><path d="M383.451 156.833l-28.284-28.284c-5.858-5.858-5.858-15.355 0-21.213s15.355-5.858 21.213 0l28.284 28.284c5.858 5.858 5.858 15.355 0 21.213s-15.355 5.858-21.213 0zm-42.426 42.427l-28.284-28.284c-5.858-5.858-5.858-15.355 0-21.213s15.355-5.858 21.213 0l28.284 28.284c5.858 5.858 5.858 15.355 0 21.213s-15.356 5.858-21.213 0z" fill="#beebfa"/><path d="M383.451 156.833c5.858 5.858 15.355 5.858 21.213 0s5.858-15.355 0-21.213l-14.142-14.142-21.213 21.213zm-42.427 42.427c5.858 5.858 15.355 5.858 21.213 0s5.858-15.355 0-21.213l-14.142-14.142-21.213 21.213z" fill="#9ee2f8"/><circle cx="273.849" cy="238.151" fill="#ff9f22" r="45"/><path d="M305.669 269.97c17.546-17.546 17.545-46.094 0-63.64l-63.64 63.64c17.546 17.546 46.094 17.546 63.64 0z" fill="#ff7c48"/><circle cx="273.849" cy="238.151" fill="#beebfa" r="15"/><path d="M284.456 248.757c5.849-5.849 5.849-15.365 0-21.213l-21.213 21.213c5.848 5.849 15.364 5.849 21.213 0z" fill="#9ee2f8"/></svg>