<svg height="512" width="512" xmlns="http://www.w3.org/2000/svg"><path d="M402.688 354.922C363.271 340.141 311.176 332 256 332s-107.271 8.141-146.688 22.922C65.26 371.441 41 395.264 41 422c0 10.544 3.789 20.632 11.061 30h407.878c7.272-9.368 11.061-19.456 11.061-30 0-26.736-24.26-50.559-68.312-67.078z" fill="#999fed"/><path d="M459.939 452c7.272-9.368 11.061-19.456 11.061-30 0-26.736-24.26-50.559-68.312-67.078C363.271 340.141 311.176 332 256 332v120z" fill="#7c84e8"/><path d="M402.688 414.922C363.271 400.141 311.176 392 256 392s-107.271 8.141-146.688 22.922C82.633 424.927 63.229 437.613 52.061 452c11.168 14.387 30.572 27.073 57.251 37.078 8.355 3.133 17.285 5.964 26.688 8.487L166 482l30 26.674c19.238 2.19 39.404 3.326 60 3.326s40.762-1.135 60-3.326L346 482l30 15.565c9.403-2.522 18.333-5.354 26.688-8.487 26.679-10.005 46.083-22.691 57.251-37.078-11.168-14.387-30.572-27.073-57.251-37.078z" fill="#5f55af"/><path d="M346 482l30 15.565c9.403-2.522 18.333-5.354 26.688-8.487 26.679-10.005 46.083-22.691 57.251-37.078-11.168-14.387-30.572-27.073-57.251-37.078C363.271 400.141 311.176 392 256 392v120c20.596 0 40.762-1.135 60-3.326z" fill="#453d83"/><path d="M181 272h150v30H181zm0-60h150v30H181zm0-60h150v30H181zm0-60h150v30H181zm0-60h150v30H181z" fill="#9ee2f8"/><path d="M256 272h75v30h-75zm0-60h75v30h-75zm0-60h75v30h-75zm0-60h75v30h-75zm0-60h75v30h-75z" fill="#87c0ed"/><path d="M181 0h-30c-8.284 0-15 6.716-15 15v482.565c18.399 4.935 38.624 8.675 60 11.109V15c0-8.284-6.716-15-15-15z" fill="#beebfa"/><path d="M361 0h-30c-8.284 0-15 6.716-15 15v493.674c21.376-2.434 41.601-6.174 60-11.109V15c0-8.284-6.716-15-15-15z" fill="#9ee2f8"/></svg>