<svg height="512" width="512" xmlns="http://www.w3.org/2000/svg"><path d="M15 77h400v300H15z" fill="#999fed"/><path d="M215 77h200v300H215z" fill="#7c84e8"/><path d="M415 62h-15v100h-70V62h-30v100h-70V62h-30v100h-70V62h-30v100H30V62H15C6.716 62 0 83.716 0 92v285c0 8.284 6.716 15 15 15h400c8.284 0 15-6.716 15-15V92c0-8.284-6.716-30-15-30zM100 362H30v-70h70zm0-100H30v-70h70zm100 100h-70v-70h70zm0-100h-70v-70h70zm100 100h-70v-70h70zm0-100h-70v-70h70zm100 100h-70V192h70z" fill="#5f55af"/><path d="M415 62h-15v100h-70V62h-30v100h-70V62h-15v330h200c8.284 0 15-6.716 15-15V92c0-8.284-6.716-30-15-30zM300 362h-70v-70h70zm0-100h-70v-70h70zm100 100h-70V192h70z" fill="#453d83"/><path d="M430 92H0V15C0 6.716 6.716 0 15 0h400c8.284 0 15 6.716 15 15z" fill="#ff9f22"/><path d="M430 15c0-8.284-6.716-15-15-15H215v92h215z" fill="#ff7c48"/><path d="M460.333 497H313.667C293.416 497 277 480.584 277 460.333V313.667c0-20.25 16.416-36.667 36.667-36.667h146.667c20.25 0 36.667 16.416 36.667 36.667v146.667C497 480.584 480.584 497 460.333 497z" fill="#5f55af"/><path d="M460.333 277H387v220h73.333c20.25 0 36.667-16.416 36.667-36.667V313.667C497 293.416 480.584 277 460.333 277z" fill="#453d83"/><path d="M460.333 512H313.667C285.177 512 262 488.822 262 460.333V313.667C262 285.178 285.177 262 313.667 262h146.667C488.823 262 512 285.178 512 313.667v146.666C512 488.822 488.823 512 460.333 512zM313.667 292C301.72 292 292 301.72 292 313.667v146.666C292 472.28 301.72 482 313.667 482h146.667C472.28 482 482 472.28 482 460.333V313.667C482 301.72 472.28 292 460.333 292z" fill="#ff9f22"/><path d="M460.333 262H387v30h73.333C472.28 292 482 301.72 482 313.667v146.666C482 472.28 472.28 482 460.333 482H387v30h73.333c28.49 0 51.667-23.178 51.667-51.667V313.667C512 285.178 488.823 262 460.333 262z" fill="#ff7c48"/><path d="M437 402h-50c-8.284 0-15-6.716-15-15v-50c0-8.284 6.716-15 15-15s15 6.716 15 15v35h35c8.284 0 15 6.716 15 15s-6.716 15-15 15z" fill="#ff9f22"/><path d="M452 387c0-8.284-6.716-15-15-15h-35v-35c0-8.284-6.716-15-15-15v80h50c8.284 0 15-6.716 15-15z" fill="#ff7c48"/></svg>